  0
SECTION
  2
HEADER
  9
$ANGBASE
  50
0.0
  9
$ANGDIR
  70
1
  9
$MEASUREMENT
  70
1
  0
ENDSEC
  0
SECTION
  2
TABLES
  0
TABLE
  2
LTYPE
  70
4
  0
LTYPE
  5
40F
  2
CONTINUOUS
  70
0
  3
Solid line
  72
65
  73
0
  40
0.0
  0
LTYPE
  5
410
  2
DASHDOT
 70
0
  3
Dash Dot ____ _ ____ _
 72
65
 73
4
 40
2.0
 49
1.25
 49
-0.25
 49
0.25
 49
-0.25
  0
LTYPE
  5
411
  2
DASHED
 70
0
  3
Dashed __ __ __ __ __
 72
65
 73
2
 40
0.75
 49
0.5
 49
-0.25
  0
LTYPE
  5
43B
  2
DOTTED
 70
0
  3
Dotted .  .  .  .
 72
65
 73
2
 40
0.2
 49
0.0
 49
-0.2
  0
ENDTAB
  0
TABLE
  2
STYLE
  70
4
  0
STYLE
  2
KICAD
  70
0
  40
0
  41
1
  42
1
  50
0
  71
0
  3
isocp.shx
  0
STYLE
  2
KICADB
  70
0
  40
0
  41
1
  42
1
  50
0
  71
0
  3
isocp.shx
  0
STYLE
  2
KICADI
  70
0
  40
0
  41
1
  42
1
  50
15
  71
0
  3
isocp.shx
  0
STYLE
  2
KICADBI
  70
0
  40
0
  41
1
  42
1
  50
15
  71
0
  3
isocp.shx
  0
ENDTAB
  0
TABLE
  2
LAYER
  70
1
  0
LAYER
  2
BLACK
  70
0
  62
7
  6
CONTINUOUS
  0
ENDTAB
  0
ENDSEC
  0
SECTION
  2
ENTITIES
0
LINE
8
BLACK
6
CONTINUOUS
10
49.0999999999999943
20
-82.7000000000000028
11
137.3249999999999886
21
-82.7000000000000028
0
LINE
8
BLACK
6
CONTINUOUS
10
137.3249999999999886
20
-82.7000000000000028
11
137.3249999999999886
21
-165.5749999999999886
0
LINE
8
BLACK
6
CONTINUOUS
10
137.3249999999999886
20
-165.5749999999999886
11
49.0999999999999943
21
-165.5749999999999886
0
LINE
8
BLACK
6
CONTINUOUS
10
49.0999999999999943
20
-165.5749999999999886
11
49.0999999999999943
21
-82.7000000000000028
0
LINE
8
BLACK
6
CONTINUOUS
10
51.6827679999999958
20
-168.7148379999999861
11
51.6827679999999958
21
-166.7148379999999861
0
LINE
8
BLACK
6
CONTINUOUS
10
51.6827679999999958
20
-166.7148379999999861
11
52.1589579999999984
21
-166.7148379999999861
0
LINE
8
BLACK
6
CONTINUOUS
10
52.1589579999999984
20
-166.7148379999999861
11
52.4446729999999945
21
-166.8100759999999809
0
LINE
8
BLACK
6
CONTINUOUS
10
52.4446729999999945
20
-166.8100759999999809
11
52.6351489999999984
21
-167.000551999999999
0
LINE
8
BLACK
6
CONTINUOUS
10
52.6351489999999984
20
-167.000551999999999
11
52.7303870000000003
21
-167.1910279999999887
0
LINE
8
BLACK
6
CONTINUOUS
10
52.7303870000000003
20
-167.1910279999999887
11
52.8256249999999952
21
-167.5719799999999964
0
LINE
8
BLACK
6
CONTINUOUS
10
52.8256249999999952
20
-167.5719799999999964
11
52.8256249999999952
21
-167.8576949999999783
0
LINE
8
BLACK
6
CONTINUOUS
10
52.8256249999999952
20
-167.8576949999999783
11
52.7303870000000003
21
-168.2386469999999861
0
LINE
8
BLACK
6
CONTINUOUS
10
52.7303870000000003
20
-168.2386469999999861
11
52.6351489999999984
21
-168.4291230000000041
0
LINE
8
BLACK
6
CONTINUOUS
10
52.6351489999999984
20
-168.4291230000000041
11
52.4446729999999945
21
-168.6195999999999913
0
LINE
8
BLACK
6
CONTINUOUS
10
52.4446729999999945
20
-168.6195999999999913
11
52.1589579999999984
21
-168.7148379999999861
0
LINE
8
BLACK
6
CONTINUOUS
10
52.1589579999999984
20
-168.7148379999999861
11
51.6827679999999958
21
-168.7148379999999861
0
LINE
8
BLACK
6
CONTINUOUS
10
53.6827679999999958
20
-168.7148379999999861
11
53.6827679999999958
21
-167.3815039999999783
0
LINE
8
BLACK
6
CONTINUOUS
10
53.6827679999999958
20
-167.7624569999999835
11
53.7780059999999978
21
-167.5719799999999964
0
LINE
8
BLACK
6
CONTINUOUS
10
53.7780059999999978
20
-167.5719799999999964
11
53.8732439999999997
21
-167.4767420000000016
0
LINE
8
BLACK
6
CONTINUOUS
10
53.8732439999999997
20
-167.4767420000000016
11
54.0637199999999964
21
-167.3815039999999783
0
LINE
8
BLACK
6
CONTINUOUS
10
54.0637199999999964
20
-167.3815039999999783
11
54.2541969999999978
21
-167.3815039999999783
0
LINE
8
BLACK
6
CONTINUOUS
10
54.9208629999999971
20
-168.7148379999999861
11
54.9208629999999971
21
-167.3815039999999783
0
LINE
8
BLACK
6
CONTINUOUS
10
54.9208629999999971
20
-166.7148379999999861
11
54.8256249999999952
21
-166.8100759999999809
0
LINE
8
BLACK
6
CONTINUOUS
10
54.8256249999999952
20
-166.8100759999999809
11
54.9208629999999971
21
-166.9053140000000042
0
LINE
8
BLACK
6
CONTINUOUS
10
54.9208629999999971
20
-166.9053140000000042
11
55.016100999999999
21
-166.8100759999999809
0
LINE
8
BLACK
6
CONTINUOUS
10
55.016100999999999
20
-166.8100759999999809
11
54.9208629999999971
21
-166.7148379999999861
0
LINE
8
BLACK
6
CONTINUOUS
10
54.9208629999999971
20
-166.7148379999999861
11
54.9208629999999971
21
-166.9053140000000042
0
LINE
8
BLACK
6
CONTINUOUS
10
56.1589579999999984
20
-168.7148379999999861
11
55.9684819999999945
21
-168.6195999999999913
0
LINE
8
BLACK
6
CONTINUOUS
10
55.9684819999999945
20
-168.6195999999999913
11
55.8732439999999997
21
-168.4291230000000041
0
LINE
8
BLACK
6
CONTINUOUS
10
55.8732439999999997
20
-168.4291230000000041
11
55.8732439999999997
21
-166.7148379999999861
0
LINE
8
BLACK
6
CONTINUOUS
10
57.2065769999999958
20
-168.7148379999999861
11
57.016100999999999
21
-168.6195999999999913
0
LINE
8
BLACK
6
CONTINUOUS
10
57.016100999999999
20
-168.6195999999999913
11
56.9208629999999971
21
-168.4291230000000041
0
LINE
8
BLACK
6
CONTINUOUS
10
56.9208629999999971
20
-168.4291230000000041
11
56.9208629999999971
21
-166.7148379999999861
0
LINE
8
BLACK
6
CONTINUOUS
10
59.4922919999999991
20
-168.7148379999999861
11
59.4922919999999991
21
-166.7148379999999861
0
LINE
8
BLACK
6
CONTINUOUS
10
59.4922919999999991
20
-166.7148379999999861
11
60.1589589999999959
21
-168.1434089999999912
0
LINE
8
BLACK
6
CONTINUOUS
10
60.1589589999999959
20
-168.1434089999999912
11
60.8256249999999952
21
-166.7148379999999861
0
LINE
8
BLACK
6
CONTINUOUS
10
60.8256249999999952
20
-166.7148379999999861
11
60.8256249999999952
21
-168.7148379999999861
0
LINE
8
BLACK
6
CONTINUOUS
10
62.6351489999999984
20
-168.7148379999999861
11
62.6351489999999984
21
-167.6672189999999887
0
LINE
8
BLACK
6
CONTINUOUS
10
62.6351489999999984
20
-167.6672189999999887
11
62.5399109999999965
21
-167.4767420000000016
0
LINE
8
BLACK
6
CONTINUOUS
10
62.5399109999999965
20
-167.4767420000000016
11
62.3494349999999997
21
-167.3815039999999783
0
LINE
8
BLACK
6
CONTINUOUS
10
62.3494349999999997
20
-167.3815039999999783
11
61.9684819999999945
21
-167.3815039999999783
0
LINE
8
BLACK
6
CONTINUOUS
10
61.9684819999999945
20
-167.3815039999999783
11
61.7780059999999978
21
-167.4767420000000016
0
LINE
8
BLACK
6
CONTINUOUS
10
62.6351489999999984
20
-168.6195999999999913
11
62.4446729999999945
21
-168.7148379999999861
0
LINE
8
BLACK
6
CONTINUOUS
10
62.4446729999999945
20
-168.7148379999999861
11
61.9684819999999945
21
-168.7148379999999861
0
LINE
8
BLACK
6
CONTINUOUS
10
61.9684819999999945
20
-168.7148379999999861
11
61.7780059999999978
21
-168.6195999999999913
0
LINE
8
BLACK
6
CONTINUOUS
10
61.7780059999999978
20
-168.6195999999999913
11
61.6827679999999958
21
-168.4291230000000041
0
LINE
8
BLACK
6
CONTINUOUS
10
61.6827679999999958
20
-168.4291230000000041
11
61.6827679999999958
21
-168.2386469999999861
0
LINE
8
BLACK
6
CONTINUOUS
10
61.6827679999999958
20
-168.2386469999999861
11
61.7780059999999978
21
-168.0481709999999964
0
LINE
8
BLACK
6
CONTINUOUS
10
61.7780059999999978
20
-168.0481709999999964
11
61.9684819999999945
21
-167.9529330000000016
0
LINE
8
BLACK
6
CONTINUOUS
10
61.9684819999999945
20
-167.9529330000000016
11
62.4446729999999945
21
-167.9529330000000016
0
LINE
8
BLACK
6
CONTINUOUS
10
62.4446729999999945
20
-167.9529330000000016
11
62.6351489999999984
21
-167.8576949999999783
0
LINE
8
BLACK
6
CONTINUOUS
10
63.5875299999999939
20
-167.3815039999999783
11
63.5875299999999939
21
-169.3815039999999783
0
LINE
8
BLACK
6
CONTINUOUS
10
63.5875299999999939
20
-167.4767420000000016
11
63.7780059999999978
21
-167.3815039999999783
0
LINE
8
BLACK
6
CONTINUOUS
10
63.7780059999999978
20
-167.3815039999999783
11
64.1589589999999959
21
-167.3815039999999783
0
LINE
8
BLACK
6
CONTINUOUS
10
64.1589589999999959
20
-167.3815039999999783
11
64.3494349999999997
21
-167.4767420000000016
0
LINE
8
BLACK
6
CONTINUOUS
10
64.3494349999999997
20
-167.4767420000000016
11
64.4446729999999945
21
-167.5719799999999964
0
LINE
8
BLACK
6
CONTINUOUS
10
64.4446729999999945
20
-167.5719799999999964
11
64.5399110000000036
21
-167.7624569999999835
0
LINE
8
BLACK
6
CONTINUOUS
10
64.5399110000000036
20
-167.7624569999999835
11
64.5399110000000036
21
-168.3338849999999809
0
LINE
8
BLACK
6
CONTINUOUS
10
64.5399110000000036
20
-168.3338849999999809
11
64.4446729999999945
21
-168.524360999999999
0
LINE
8
BLACK
6
CONTINUOUS
10
64.4446729999999945
20
-168.524360999999999
11
64.3494349999999997
21
-168.6195999999999913
0
LINE
8
BLACK
6
CONTINUOUS
10
64.3494349999999997
20
-168.6195999999999913
11
64.1589589999999959
21
-168.7148379999999861
0
LINE
8
BLACK
6
CONTINUOUS
10
64.1589589999999959
20
-168.7148379999999861
11
63.7780059999999978
21
-168.7148379999999861
0
LINE
8
BLACK
6
CONTINUOUS
10
63.7780059999999978
20
-168.7148379999999861
11
63.5875299999999939
21
-168.6195999999999913
0
LINE
8
BLACK
6
CONTINUOUS
10
65.3970539999999971
20
-168.524360999999999
11
65.492291999999992
21
-168.6195999999999913
0
LINE
8
BLACK
6
CONTINUOUS
10
65.492291999999992
20
-168.6195999999999913
11
65.3970539999999971
21
-168.7148379999999861
0
LINE
8
BLACK
6
CONTINUOUS
10
65.3970539999999971
20
-168.7148379999999861
11
65.3018160000000023
21
-168.6195999999999913
0
LINE
8
BLACK
6
CONTINUOUS
10
65.3018160000000023
20
-168.6195999999999913
11
65.3970539999999971
21
-168.524360999999999
0
LINE
8
BLACK
6
CONTINUOUS
10
65.3970539999999971
20
-168.524360999999999
11
65.3970539999999971
21
-168.7148379999999861
0
LINE
8
BLACK
6
CONTINUOUS
10
65.3970539999999971
20
-167.4767420000000016
11
65.492291999999992
21
-167.5719799999999964
0
LINE
8
BLACK
6
CONTINUOUS
10
65.492291999999992
20
-167.5719799999999964
11
65.3970539999999971
21
-167.6672189999999887
0
LINE
8
BLACK
6
CONTINUOUS
10
65.3970539999999971
20
-167.6672189999999887
11
65.3018160000000023
21
-167.5719799999999964
0
LINE
8
BLACK
6
CONTINUOUS
10
65.3018160000000023
20
-167.5719799999999964
11
65.3970539999999971
21
-167.4767420000000016
0
LINE
8
BLACK
6
CONTINUOUS
10
65.3970539999999971
20
-167.4767420000000016
11
65.3970539999999971
21
-167.6672189999999887
  0
ENDSEC
  0
EOF
