  0
SECTION
  2
HEADER
  9
$ANGBASE
  50
0.0
  9
$ANGDIR
  70
1
  9
$MEASUREMENT
  70
1
  0
ENDSEC
  0
SECTION
  2
TABLES
  0
TABLE
  2
LTYPE
  70
4
  0
LTYPE
  5
40F
  2
CONTINUOUS
  70
0
  3
Solid line
  72
65
  73
0
  40
0.0
  0
LTYPE
  5
410
  2
DASHDOT
 70
0
  3
Dash Dot ____ _ ____ _
 72
65
 73
4
 40
2.0
 49
1.25
 49
-0.25
 49
0.25
 49
-0.25
  0
LTYPE
  5
411
  2
DASHED
 70
0
  3
Dashed __ __ __ __ __
 72
65
 73
2
 40
0.75
 49
0.5
 49
-0.25
  0
LTYPE
  5
43B
  2
DOTTED
 70
0
  3
Dotted .  .  .  .
 72
65
 73
2
 40
0.2
 49
0.0
 49
-0.2
  0
ENDTAB
  0
TABLE
  2
STYLE
  70
4
  0
STYLE
  2
KICAD
  70
0
  40
0
  41
1
  42
1
  50
0
  71
0
  3
isocp.shx
  0
STYLE
  2
KICADB
  70
0
  40
0
  41
1
  42
1
  50
0
  71
0
  3
isocp.shx
  0
STYLE
  2
KICADI
  70
0
  40
0
  41
1
  42
1
  50
15
  71
0
  3
isocp.shx
  0
STYLE
  2
KICADBI
  70
0
  40
0
  41
1
  42
1
  50
15
  71
0
  3
isocp.shx
  0
ENDTAB
  0
TABLE
  2
LAYER
  70
1
  0
LAYER
  2
BLACK
  70
0
  62
7
  6
CONTINUOUS
  0
ENDTAB
  0
ENDSEC
  0
SECTION
  2
ENTITIES
0
LINE
8
BLACK
6
CONTINUOUS
10
49.0999999999999943
20
-82.7000000000000028
11
137.3249999999999886
21
-82.7000000000000028
0
LINE
8
BLACK
6
CONTINUOUS
10
137.3249999999999886
20
-82.7000000000000028
11
137.3249999999999886
21
-165.5749999999999886
0
LINE
8
BLACK
6
CONTINUOUS
10
137.3249999999999886
20
-165.5749999999999886
11
49.0999999999999943
21
-165.5749999999999886
0
LINE
8
BLACK
6
CONTINUOUS
10
49.0999999999999943
20
-165.5749999999999886
11
49.0999999999999943
21
-82.7000000000000028
0
LINE
8
BLACK
6
CONTINUOUS
10
57.9499999999999957
20
-104.0949999999999989
11
58.75
21
-104.894999999999996
0
LINE
8
BLACK
6
CONTINUOUS
10
58.75
20
-104.0949999999999989
11
57.9499999999999957
21
-104.894999999999996
0
LINE
8
BLACK
6
CONTINUOUS
10
57.9499999999999957
20
-114.2549999999999955
11
58.75
21
-115.0549999999999926
0
LINE
8
BLACK
6
CONTINUOUS
10
58.75
20
-114.2549999999999955
11
57.9499999999999957
21
-115.0549999999999926
0
LINE
8
BLACK
6
CONTINUOUS
10
109.6999999999999886
20
-96.4249999999999972
11
110.5
21
-97.2249999999999943
0
LINE
8
BLACK
6
CONTINUOUS
10
110.5
20
-96.4249999999999972
11
109.6999999999999886
21
-97.2249999999999943
0
LINE
8
BLACK
6
CONTINUOUS
10
109.75
20
-113.5899999999999892
11
110.5499999999999972
21
-114.3900000000000006
0
LINE
8
BLACK
6
CONTINUOUS
10
110.5499999999999972
20
-113.5899999999999892
11
109.75
21
-114.3900000000000006
0
LINE
8
BLACK
6
CONTINUOUS
10
111.2999999999999972
20
-90.4249999999999972
11
112.0999999999999943
21
-91.2249999999999943
0
LINE
8
BLACK
6
CONTINUOUS
10
112.0999999999999943
20
-90.4249999999999972
11
111.2999999999999972
21
-91.2249999999999943
0
LINE
8
BLACK
6
CONTINUOUS
10
113.7999999999999972
20
-90.4249999999999972
11
114.5999999999999943
21
-91.2249999999999943
0
LINE
8
BLACK
6
CONTINUOUS
10
114.5999999999999943
20
-90.4249999999999972
11
113.7999999999999972
21
-91.2249999999999943
0
LINE
8
BLACK
6
CONTINUOUS
10
114.6999999999999886
20
-96.4249999999999972
11
115.5
21
-97.2249999999999943
0
LINE
8
BLACK
6
CONTINUOUS
10
115.5
20
-96.4249999999999972
11
114.6999999999999886
21
-97.2249999999999943
0
LINE
8
BLACK
6
CONTINUOUS
10
114.75
20
-113.5899999999999892
11
115.5499999999999972
21
-114.3900000000000006
0
LINE
8
BLACK
6
CONTINUOUS
10
115.5499999999999972
20
-113.5899999999999892
11
114.75
21
-114.3900000000000006
0
LINE
8
BLACK
6
CONTINUOUS
10
121.7999999999999972
20
-103.2650000000000006
11
122.5999999999999943
21
-104.0649999999999977
0
LINE
8
BLACK
6
CONTINUOUS
10
122.5999999999999943
20
-103.2650000000000006
11
121.7999999999999972
21
-104.0649999999999977
0
LINE
8
BLACK
6
CONTINUOUS
10
121.7999999999999972
20
-113.4249999999999972
11
122.5999999999999943
21
-114.2249999999999943
0
LINE
8
BLACK
6
CONTINUOUS
10
122.5999999999999943
20
-113.4249999999999972
11
121.7999999999999972
21
-114.2249999999999943
0
LINE
8
BLACK
6
CONTINUOUS
10
127.7999999999999972
20
-103.3449999999999989
11
128.5999999999999943
21
-104.144999999999996
0
LINE
8
BLACK
6
CONTINUOUS
10
128.5999999999999943
20
-103.3449999999999989
11
127.7999999999999972
21
-104.144999999999996
0
LINE
8
BLACK
6
CONTINUOUS
10
127.7999999999999972
20
-113.5049999999999955
11
128.5999999999999943
21
-114.3049999999999926
0
LINE
8
BLACK
6
CONTINUOUS
10
128.5999999999999943
20
-113.5049999999999955
11
127.7999999999999972
21
-114.3049999999999926
0
CIRCLE
8
BLACK
10
54.5599999999999952
20
-130.7849999999999966
40
0.5
0
CIRCLE
8
BLACK
10
54.5599999999999952
20
-133.3249999999999886
40
0.5
0
CIRCLE
8
BLACK
10
54.5599999999999952
20
-135.8649999999999807
40
0.5
0
CIRCLE
8
BLACK
10
57.0999999999999943
20
-130.7849999999999966
40
0.5
0
CIRCLE
8
BLACK
10
57.0999999999999943
20
-133.3249999999999886
40
0.5
0
CIRCLE
8
BLACK
10
57.0999999999999943
20
-135.8649999999999807
40
0.5
0
CIRCLE
8
BLACK
10
64.2800000000000011
20
-139.1557540000000017
40
0.5
0
CIRCLE
8
BLACK
10
64.2800000000000011
20
-141.6957539999999938
40
0.5
0
CIRCLE
8
BLACK
10
64.2800000000000011
20
-144.2357539999999858
40
0.5
0
CIRCLE
8
BLACK
10
64.2800000000000011
20
-146.7757540000000063
40
0.5
0
CIRCLE
8
BLACK
10
64.2800000000000011
20
-149.3157539999999983
40
0.5
0
CIRCLE
8
BLACK
10
64.2800000000000011
20
-151.8557539999999904
40
0.5
0
CIRCLE
8
BLACK
10
64.2800000000000011
20
-154.3957539999999824
40
0.5
0
CIRCLE
8
BLACK
10
73.1749999999999972
20
-122.9407539999999983
40
0.5
0
CIRCLE
8
BLACK
10
75.7150000000000034
20
-122.9407539999999983
40
0.5
0
CIRCLE
8
BLACK
10
78.2549999999999955
20
-122.9407539999999983
40
0.5
0
CIRCLE
8
BLACK
10
79.125
20
-154.8207539999999938
40
0.5
0
CIRCLE
8
BLACK
10
80.7950000000000017
20
-122.9407539999999983
40
0.5
0
CIRCLE
8
BLACK
10
81.664999999999992
20
-154.8207539999999938
40
0.5
0
CIRCLE
8
BLACK
10
83.3349999999999937
20
-122.9407539999999983
40
0.5
0
CIRCLE
8
BLACK
10
84.2049999999999983
20
-154.8207539999999938
40
0.5
0
CIRCLE
8
BLACK
10
85.875
20
-122.9407539999999983
40
0.5
0
CIRCLE
8
BLACK
10
86.7449999999999903
20
-154.8207539999999938
40
0.5
0
CIRCLE
8
BLACK
10
88.414999999999992
20
-122.9407539999999983
40
0.5
0
CIRCLE
8
BLACK
10
89.2849999999999966
20
-154.8207539999999938
40
0.5
0
CIRCLE
8
BLACK
10
90.9549999999999983
20
-122.9407539999999983
40
0.5
0
CIRCLE
8
BLACK
10
91.8250000000000028
20
-154.8207539999999938
40
0.5
0
CIRCLE
8
BLACK
10
93.4949999999999903
20
-122.9407539999999983
40
0.5
0
CIRCLE
8
BLACK
10
94.3649999999999949
20
-154.8207539999999938
40
0.5
0
CIRCLE
8
BLACK
10
96.9050000000000011
20
-154.8207539999999938
40
0.5
0
CIRCLE
8
BLACK
10
100.519999999999996
20
-118.3249999999999886
40
0.5
0
CIRCLE
8
BLACK
10
101.6820000000000022
20
-139.7227539999999806
40
0.5
0
CIRCLE
8
BLACK
10
101.6820000000000022
20
-142.262754000000001
40
0.5
0
CIRCLE
8
BLACK
10
101.6820000000000022
20
-144.8027539999999931
40
0.5
0
CIRCLE
8
BLACK
10
101.6820000000000022
20
-147.3427539999999851
40
0.5
0
CIRCLE
8
BLACK
10
101.6820000000000022
20
-149.8827540000000056
40
0.5
0
CIRCLE
8
BLACK
10
101.6820000000000022
20
-152.4227539999999976
40
0.5
0
CIRCLE
8
BLACK
10
103.0600000000000023
20
-118.3249999999999886
40
0.5
0
CIRCLE
8
BLACK
10
105.5999999999999943
20
-118.3249999999999886
40
0.5
0
CIRCLE
8
BLACK
10
108.1400000000000006
20
-118.3249999999999886
40
0.5
0
CIRCLE
8
BLACK
10
123.3249999999999886
20
-89.1524999999999892
40
0.5
0
LINE
8
BLACK
6
CONTINUOUS
10
123.8249999999999886
20
-90.1524999999999892
11
123.8249999999999886
21
-88.1524999999999892
0
ARC
8
BLACK
10
123.3249999999999886
20
-88.1524999999999892
40
0.5
50
0.00000000
51
180.00000000
0
LINE
8
BLACK
6
CONTINUOUS
10
122.8249999999999886
20
-88.1524999999999892
11
122.8249999999999886
21
-90.1524999999999892
0
ARC
8
BLACK
10
123.3249999999999886
20
-90.1524999999999892
40
0.5
50
180.00000000
51
360.00000000
0
CIRCLE
8
BLACK
10
126.3249999999999886
20
-93.852499999999992
40
0.5
0
LINE
8
BLACK
6
CONTINUOUS
10
127.3249999999999886
20
-93.352499999999992
11
125.3249999999999886
21
-93.352499999999992
0
ARC
8
BLACK
10
125.3249999999999886
20
-93.852499999999992
40
0.5
50
90.00000000
51
270.00000000
0
LINE
8
BLACK
6
CONTINUOUS
10
125.3249999999999886
20
-94.352499999999992
11
127.3249999999999886
21
-94.352499999999992
0
ARC
8
BLACK
10
127.3249999999999886
20
-93.852499999999992
40
0.5
50
270.00000000
51
450.00000000
0
CIRCLE
8
BLACK
10
129.3249999999999886
20
-89.1524999999999892
40
0.5
0
LINE
8
BLACK
6
CONTINUOUS
10
129.8249999999999886
20
-90.1524999999999892
11
129.8249999999999886
21
-88.1524999999999892
0
ARC
8
BLACK
10
129.3249999999999886
20
-88.1524999999999892
40
0.5
50
0.00000000
51
180.00000000
0
LINE
8
BLACK
6
CONTINUOUS
10
128.8249999999999886
20
-88.1524999999999892
11
128.8249999999999886
21
-90.1524999999999892
0
ARC
8
BLACK
10
129.3249999999999886
20
-90.1524999999999892
40
0.5
50
180.00000000
51
360.00000000
0
LINE
8
BLACK
6
CONTINUOUS
10
80.5799999999999983
20
-89.8870000000000005
11
80.5799999999999983
21
-90.9029999999999916
0
LINE
8
BLACK
6
CONTINUOUS
10
80.0720000000000027
20
-90.394999999999996
11
81.0879999999999939
21
-90.394999999999996
0
LINE
8
BLACK
6
CONTINUOUS
10
80.5799999999999983
20
-112.7469999999999999
11
80.5799999999999983
21
-113.762999999999991
0
LINE
8
BLACK
6
CONTINUOUS
10
80.0720000000000027
20
-113.2549999999999955
11
81.0879999999999939
21
-113.2549999999999955
0
LINE
8
BLACK
6
CONTINUOUS
10
83.1199999999999903
20
-89.8870000000000005
11
83.1199999999999903
21
-90.9029999999999916
0
LINE
8
BLACK
6
CONTINUOUS
10
82.6119999999999948
20
-90.394999999999996
11
83.6280000000000001
21
-90.394999999999996
0
LINE
8
BLACK
6
CONTINUOUS
10
83.1199999999999903
20
-112.7469999999999999
11
83.1199999999999903
21
-113.762999999999991
0
LINE
8
BLACK
6
CONTINUOUS
10
82.6119999999999948
20
-113.2549999999999955
11
83.6280000000000001
21
-113.2549999999999955
0
LINE
8
BLACK
6
CONTINUOUS
10
85.6599999999999966
20
-89.8870000000000005
11
85.6599999999999966
21
-90.9029999999999916
0
LINE
8
BLACK
6
CONTINUOUS
10
85.152000000000001
20
-90.394999999999996
11
86.1679999999999922
21
-90.394999999999996
0
LINE
8
BLACK
6
CONTINUOUS
10
85.6599999999999966
20
-112.7469999999999999
11
85.6599999999999966
21
-113.762999999999991
0
LINE
8
BLACK
6
CONTINUOUS
10
85.152000000000001
20
-113.2549999999999955
11
86.1679999999999922
21
-113.2549999999999955
0
LINE
8
BLACK
6
CONTINUOUS
10
88.2000000000000028
20
-89.8870000000000005
11
88.2000000000000028
21
-90.9029999999999916
0
LINE
8
BLACK
6
CONTINUOUS
10
87.6919999999999931
20
-90.394999999999996
11
88.7079999999999984
21
-90.394999999999996
0
LINE
8
BLACK
6
CONTINUOUS
10
88.2000000000000028
20
-112.7469999999999999
11
88.2000000000000028
21
-113.762999999999991
0
LINE
8
BLACK
6
CONTINUOUS
10
87.6919999999999931
20
-113.2549999999999955
11
88.7079999999999984
21
-113.2549999999999955
0
LINE
8
BLACK
6
CONTINUOUS
10
90.7399999999999949
20
-89.8870000000000005
11
90.7399999999999949
21
-90.9029999999999916
0
LINE
8
BLACK
6
CONTINUOUS
10
90.2319999999999993
20
-90.394999999999996
11
91.2479999999999905
21
-90.394999999999996
0
LINE
8
BLACK
6
CONTINUOUS
10
90.7399999999999949
20
-112.7469999999999999
11
90.7399999999999949
21
-113.762999999999991
0
LINE
8
BLACK
6
CONTINUOUS
10
90.2319999999999993
20
-113.2549999999999955
11
91.2479999999999905
21
-113.2549999999999955
0
LINE
8
BLACK
6
CONTINUOUS
10
93.2800000000000011
20
-89.8870000000000005
11
93.2800000000000011
21
-90.9029999999999916
0
LINE
8
BLACK
6
CONTINUOUS
10
92.7719999999999914
20
-90.394999999999996
11
93.7879999999999967
21
-90.394999999999996
0
LINE
8
BLACK
6
CONTINUOUS
10
93.2800000000000011
20
-112.7469999999999999
11
93.2800000000000011
21
-113.762999999999991
0
LINE
8
BLACK
6
CONTINUOUS
10
92.7719999999999914
20
-113.2549999999999955
11
93.7879999999999967
21
-113.2549999999999955
0
LINE
8
BLACK
6
CONTINUOUS
10
95.8199999999999932
20
-89.8870000000000005
11
95.8199999999999932
21
-90.9029999999999916
0
LINE
8
BLACK
6
CONTINUOUS
10
95.3119999999999976
20
-90.394999999999996
11
96.3279999999999887
21
-90.394999999999996
0
LINE
8
BLACK
6
CONTINUOUS
10
95.8199999999999932
20
-112.7469999999999999
11
95.8199999999999932
21
-113.762999999999991
0
LINE
8
BLACK
6
CONTINUOUS
10
95.3119999999999976
20
-113.2549999999999955
11
96.3279999999999887
21
-113.2549999999999955
0
LINE
8
BLACK
6
CONTINUOUS
10
98.3599999999999994
20
-89.8870000000000005
11
98.3599999999999994
21
-90.9029999999999916
0
LINE
8
BLACK
6
CONTINUOUS
10
97.8519999999999897
20
-90.394999999999996
11
98.867999999999995
21
-90.394999999999996
0
LINE
8
BLACK
6
CONTINUOUS
10
98.3599999999999994
20
-112.7469999999999999
11
98.3599999999999994
21
-113.762999999999991
0
LINE
8
BLACK
6
CONTINUOUS
10
97.8519999999999897
20
-113.2549999999999955
11
98.867999999999995
21
-113.2549999999999955
0
LINE
8
BLACK
6
CONTINUOUS
10
52.9889119999999991
20
-95.4639119999999934
11
52.9889119999999991
21
-94.686087999999998
0
LINE
8
BLACK
6
CONTINUOUS
10
52.9889119999999991
20
-94.686087999999998
11
52.2110879999999966
21
-94.686087999999998
0
LINE
8
BLACK
6
CONTINUOUS
10
52.2110879999999966
20
-94.686087999999998
11
52.2110879999999966
21
-95.4639119999999934
0
LINE
8
BLACK
6
CONTINUOUS
10
52.2110879999999966
20
-95.4639119999999934
11
52.9889119999999991
21
-95.4639119999999934
0
LINE
8
BLACK
6
CONTINUOUS
10
52.9889119999999991
20
-99.9639119999999934
11
52.9889119999999991
21
-99.186087999999998
0
LINE
8
BLACK
6
CONTINUOUS
10
52.9889119999999991
20
-99.186087999999998
11
52.2110879999999966
21
-99.186087999999998
0
LINE
8
BLACK
6
CONTINUOUS
10
52.2110879999999966
20
-99.186087999999998
11
52.2110879999999966
21
-99.9639119999999934
0
LINE
8
BLACK
6
CONTINUOUS
10
52.2110879999999966
20
-99.9639119999999934
11
52.9889119999999991
21
-99.9639119999999934
0
LINE
8
BLACK
6
CONTINUOUS
10
59.4889119999999991
20
-95.4639119999999934
11
59.4889119999999991
21
-94.686087999999998
0
LINE
8
BLACK
6
CONTINUOUS
10
59.4889119999999991
20
-94.686087999999998
11
58.7110879999999966
21
-94.686087999999998
0
LINE
8
BLACK
6
CONTINUOUS
10
58.7110879999999966
20
-94.686087999999998
11
58.7110879999999966
21
-95.4639119999999934
0
LINE
8
BLACK
6
CONTINUOUS
10
58.7110879999999966
20
-95.4639119999999934
11
59.4889119999999991
21
-95.4639119999999934
0
LINE
8
BLACK
6
CONTINUOUS
10
59.4889119999999991
20
-99.9639119999999934
11
59.4889119999999991
21
-99.186087999999998
0
LINE
8
BLACK
6
CONTINUOUS
10
59.4889119999999991
20
-99.186087999999998
11
58.7110879999999966
21
-99.186087999999998
0
LINE
8
BLACK
6
CONTINUOUS
10
58.7110879999999966
20
-99.186087999999998
11
58.7110879999999966
21
-99.9639119999999934
0
LINE
8
BLACK
6
CONTINUOUS
10
58.7110879999999966
20
-99.9639119999999934
11
59.4889119999999991
21
-99.9639119999999934
0
LINE
8
BLACK
6
CONTINUOUS
10
119.5889119999999934
20
-138.2139119999999934
11
119.5889119999999934
21
-137.4360879999999838
0
LINE
8
BLACK
6
CONTINUOUS
10
119.5889119999999934
20
-137.4360879999999838
11
118.811087999999998
21
-137.4360879999999838
0
LINE
8
BLACK
6
CONTINUOUS
10
118.811087999999998
20
-137.4360879999999838
11
118.811087999999998
21
-138.2139119999999934
0
LINE
8
BLACK
6
CONTINUOUS
10
118.811087999999998
20
-138.2139119999999934
11
119.5889119999999934
21
-138.2139119999999934
0
LINE
8
BLACK
6
CONTINUOUS
10
119.5889119999999934
20
-142.7139119999999934
11
119.5889119999999934
21
-141.9360879999999838
0
LINE
8
BLACK
6
CONTINUOUS
10
119.5889119999999934
20
-141.9360879999999838
11
118.811087999999998
21
-141.9360879999999838
0
LINE
8
BLACK
6
CONTINUOUS
10
118.811087999999998
20
-141.9360879999999838
11
118.811087999999998
21
-142.7139119999999934
0
LINE
8
BLACK
6
CONTINUOUS
10
118.811087999999998
20
-142.7139119999999934
11
119.5889119999999934
21
-142.7139119999999934
0
LINE
8
BLACK
6
CONTINUOUS
10
119.5889119999999934
20
-149.2139119999999934
11
119.5889119999999934
21
-148.4360879999999838
0
LINE
8
BLACK
6
CONTINUOUS
10
119.5889119999999934
20
-148.4360879999999838
11
118.811087999999998
21
-148.4360879999999838
0
LINE
8
BLACK
6
CONTINUOUS
10
118.811087999999998
20
-148.4360879999999838
11
118.811087999999998
21
-149.2139119999999934
0
LINE
8
BLACK
6
CONTINUOUS
10
118.811087999999998
20
-149.2139119999999934
11
119.5889119999999934
21
-149.2139119999999934
0
LINE
8
BLACK
6
CONTINUOUS
10
119.5889119999999934
20
-153.7139119999999934
11
119.5889119999999934
21
-152.9360879999999838
0
LINE
8
BLACK
6
CONTINUOUS
10
119.5889119999999934
20
-152.9360879999999838
11
118.811087999999998
21
-152.9360879999999838
0
LINE
8
BLACK
6
CONTINUOUS
10
118.811087999999998
20
-152.9360879999999838
11
118.811087999999998
21
-153.7139119999999934
0
LINE
8
BLACK
6
CONTINUOUS
10
118.811087999999998
20
-153.7139119999999934
11
119.5889119999999934
21
-153.7139119999999934
0
LINE
8
BLACK
6
CONTINUOUS
10
126.0889119999999934
20
-138.2139119999999934
11
126.0889119999999934
21
-137.4360879999999838
0
LINE
8
BLACK
6
CONTINUOUS
10
126.0889119999999934
20
-137.4360879999999838
11
125.311087999999998
21
-137.4360879999999838
0
LINE
8
BLACK
6
CONTINUOUS
10
125.311087999999998
20
-137.4360879999999838
11
125.311087999999998
21
-138.2139119999999934
0
LINE
8
BLACK
6
CONTINUOUS
10
125.311087999999998
20
-138.2139119999999934
11
126.0889119999999934
21
-138.2139119999999934
0
LINE
8
BLACK
6
CONTINUOUS
10
126.0889119999999934
20
-142.7139119999999934
11
126.0889119999999934
21
-141.9360879999999838
0
LINE
8
BLACK
6
CONTINUOUS
10
126.0889119999999934
20
-141.9360879999999838
11
125.311087999999998
21
-141.9360879999999838
0
LINE
8
BLACK
6
CONTINUOUS
10
125.311087999999998
20
-141.9360879999999838
11
125.311087999999998
21
-142.7139119999999934
0
LINE
8
BLACK
6
CONTINUOUS
10
125.311087999999998
20
-142.7139119999999934
11
126.0889119999999934
21
-142.7139119999999934
0
LINE
8
BLACK
6
CONTINUOUS
10
126.0889119999999934
20
-149.2139119999999934
11
126.0889119999999934
21
-148.4360879999999838
0
LINE
8
BLACK
6
CONTINUOUS
10
126.0889119999999934
20
-148.4360879999999838
11
125.311087999999998
21
-148.4360879999999838
0
LINE
8
BLACK
6
CONTINUOUS
10
125.311087999999998
20
-148.4360879999999838
11
125.311087999999998
21
-149.2139119999999934
0
LINE
8
BLACK
6
CONTINUOUS
10
125.311087999999998
20
-149.2139119999999934
11
126.0889119999999934
21
-149.2139119999999934
0
LINE
8
BLACK
6
CONTINUOUS
10
126.0889119999999934
20
-153.7139119999999934
11
126.0889119999999934
21
-152.9360879999999838
0
LINE
8
BLACK
6
CONTINUOUS
10
126.0889119999999934
20
-152.9360879999999838
11
125.311087999999998
21
-152.9360879999999838
0
LINE
8
BLACK
6
CONTINUOUS
10
125.311087999999998
20
-152.9360879999999838
11
125.311087999999998
21
-153.7139119999999934
0
LINE
8
BLACK
6
CONTINUOUS
10
125.311087999999998
20
-153.7139119999999934
11
126.0889119999999934
21
-153.7139119999999934
0
LINE
8
BLACK
6
CONTINUOUS
10
51.6827679999999958
20
-168.7148379999999861
11
51.6827679999999958
21
-166.7148379999999861
0
LINE
8
BLACK
6
CONTINUOUS
10
51.6827679999999958
20
-166.7148379999999861
11
52.1589579999999984
21
-166.7148379999999861
0
LINE
8
BLACK
6
CONTINUOUS
10
52.1589579999999984
20
-166.7148379999999861
11
52.4446729999999945
21
-166.8100759999999809
0
LINE
8
BLACK
6
CONTINUOUS
10
52.4446729999999945
20
-166.8100759999999809
11
52.6351489999999984
21
-167.000551999999999
0
LINE
8
BLACK
6
CONTINUOUS
10
52.6351489999999984
20
-167.000551999999999
11
52.7303870000000003
21
-167.1910279999999887
0
LINE
8
BLACK
6
CONTINUOUS
10
52.7303870000000003
20
-167.1910279999999887
11
52.8256249999999952
21
-167.5719799999999964
0
LINE
8
BLACK
6
CONTINUOUS
10
52.8256249999999952
20
-167.5719799999999964
11
52.8256249999999952
21
-167.8576949999999783
0
LINE
8
BLACK
6
CONTINUOUS
10
52.8256249999999952
20
-167.8576949999999783
11
52.7303870000000003
21
-168.2386469999999861
0
LINE
8
BLACK
6
CONTINUOUS
10
52.7303870000000003
20
-168.2386469999999861
11
52.6351489999999984
21
-168.4291230000000041
0
LINE
8
BLACK
6
CONTINUOUS
10
52.6351489999999984
20
-168.4291230000000041
11
52.4446729999999945
21
-168.6195999999999913
0
LINE
8
BLACK
6
CONTINUOUS
10
52.4446729999999945
20
-168.6195999999999913
11
52.1589579999999984
21
-168.7148379999999861
0
LINE
8
BLACK
6
CONTINUOUS
10
52.1589579999999984
20
-168.7148379999999861
11
51.6827679999999958
21
-168.7148379999999861
0
LINE
8
BLACK
6
CONTINUOUS
10
53.6827679999999958
20
-168.7148379999999861
11
53.6827679999999958
21
-167.3815039999999783
0
LINE
8
BLACK
6
CONTINUOUS
10
53.6827679999999958
20
-167.7624569999999835
11
53.7780059999999978
21
-167.5719799999999964
0
LINE
8
BLACK
6
CONTINUOUS
10
53.7780059999999978
20
-167.5719799999999964
11
53.8732439999999997
21
-167.4767420000000016
0
LINE
8
BLACK
6
CONTINUOUS
10
53.8732439999999997
20
-167.4767420000000016
11
54.0637199999999964
21
-167.3815039999999783
0
LINE
8
BLACK
6
CONTINUOUS
10
54.0637199999999964
20
-167.3815039999999783
11
54.2541969999999978
21
-167.3815039999999783
0
LINE
8
BLACK
6
CONTINUOUS
10
54.9208629999999971
20
-168.7148379999999861
11
54.9208629999999971
21
-167.3815039999999783
0
LINE
8
BLACK
6
CONTINUOUS
10
54.9208629999999971
20
-166.7148379999999861
11
54.8256249999999952
21
-166.8100759999999809
0
LINE
8
BLACK
6
CONTINUOUS
10
54.8256249999999952
20
-166.8100759999999809
11
54.9208629999999971
21
-166.9053140000000042
0
LINE
8
BLACK
6
CONTINUOUS
10
54.9208629999999971
20
-166.9053140000000042
11
55.016100999999999
21
-166.8100759999999809
0
LINE
8
BLACK
6
CONTINUOUS
10
55.016100999999999
20
-166.8100759999999809
11
54.9208629999999971
21
-166.7148379999999861
0
LINE
8
BLACK
6
CONTINUOUS
10
54.9208629999999971
20
-166.7148379999999861
11
54.9208629999999971
21
-166.9053140000000042
0
LINE
8
BLACK
6
CONTINUOUS
10
56.1589579999999984
20
-168.7148379999999861
11
55.9684819999999945
21
-168.6195999999999913
0
LINE
8
BLACK
6
CONTINUOUS
10
55.9684819999999945
20
-168.6195999999999913
11
55.8732439999999997
21
-168.4291230000000041
0
LINE
8
BLACK
6
CONTINUOUS
10
55.8732439999999997
20
-168.4291230000000041
11
55.8732439999999997
21
-166.7148379999999861
0
LINE
8
BLACK
6
CONTINUOUS
10
57.2065769999999958
20
-168.7148379999999861
11
57.016100999999999
21
-168.6195999999999913
0
LINE
8
BLACK
6
CONTINUOUS
10
57.016100999999999
20
-168.6195999999999913
11
56.9208629999999971
21
-168.4291230000000041
0
LINE
8
BLACK
6
CONTINUOUS
10
56.9208629999999971
20
-168.4291230000000041
11
56.9208629999999971
21
-166.7148379999999861
0
LINE
8
BLACK
6
CONTINUOUS
10
59.4922919999999991
20
-168.7148379999999861
11
59.4922919999999991
21
-166.7148379999999861
0
LINE
8
BLACK
6
CONTINUOUS
10
59.4922919999999991
20
-166.7148379999999861
11
60.1589589999999959
21
-168.1434089999999912
0
LINE
8
BLACK
6
CONTINUOUS
10
60.1589589999999959
20
-168.1434089999999912
11
60.8256249999999952
21
-166.7148379999999861
0
LINE
8
BLACK
6
CONTINUOUS
10
60.8256249999999952
20
-166.7148379999999861
11
60.8256249999999952
21
-168.7148379999999861
0
LINE
8
BLACK
6
CONTINUOUS
10
62.6351489999999984
20
-168.7148379999999861
11
62.6351489999999984
21
-167.6672189999999887
0
LINE
8
BLACK
6
CONTINUOUS
10
62.6351489999999984
20
-167.6672189999999887
11
62.5399109999999965
21
-167.4767420000000016
0
LINE
8
BLACK
6
CONTINUOUS
10
62.5399109999999965
20
-167.4767420000000016
11
62.3494349999999997
21
-167.3815039999999783
0
LINE
8
BLACK
6
CONTINUOUS
10
62.3494349999999997
20
-167.3815039999999783
11
61.9684819999999945
21
-167.3815039999999783
0
LINE
8
BLACK
6
CONTINUOUS
10
61.9684819999999945
20
-167.3815039999999783
11
61.7780059999999978
21
-167.4767420000000016
0
LINE
8
BLACK
6
CONTINUOUS
10
62.6351489999999984
20
-168.6195999999999913
11
62.4446729999999945
21
-168.7148379999999861
0
LINE
8
BLACK
6
CONTINUOUS
10
62.4446729999999945
20
-168.7148379999999861
11
61.9684819999999945
21
-168.7148379999999861
0
LINE
8
BLACK
6
CONTINUOUS
10
61.9684819999999945
20
-168.7148379999999861
11
61.7780059999999978
21
-168.6195999999999913
0
LINE
8
BLACK
6
CONTINUOUS
10
61.7780059999999978
20
-168.6195999999999913
11
61.6827679999999958
21
-168.4291230000000041
0
LINE
8
BLACK
6
CONTINUOUS
10
61.6827679999999958
20
-168.4291230000000041
11
61.6827679999999958
21
-168.2386469999999861
0
LINE
8
BLACK
6
CONTINUOUS
10
61.6827679999999958
20
-168.2386469999999861
11
61.7780059999999978
21
-168.0481709999999964
0
LINE
8
BLACK
6
CONTINUOUS
10
61.7780059999999978
20
-168.0481709999999964
11
61.9684819999999945
21
-167.9529330000000016
0
LINE
8
BLACK
6
CONTINUOUS
10
61.9684819999999945
20
-167.9529330000000016
11
62.4446729999999945
21
-167.9529330000000016
0
LINE
8
BLACK
6
CONTINUOUS
10
62.4446729999999945
20
-167.9529330000000016
11
62.6351489999999984
21
-167.8576949999999783
0
LINE
8
BLACK
6
CONTINUOUS
10
63.5875299999999939
20
-167.3815039999999783
11
63.5875299999999939
21
-169.3815039999999783
0
LINE
8
BLACK
6
CONTINUOUS
10
63.5875299999999939
20
-167.4767420000000016
11
63.7780059999999978
21
-167.3815039999999783
0
LINE
8
BLACK
6
CONTINUOUS
10
63.7780059999999978
20
-167.3815039999999783
11
64.1589589999999959
21
-167.3815039999999783
0
LINE
8
BLACK
6
CONTINUOUS
10
64.1589589999999959
20
-167.3815039999999783
11
64.3494349999999997
21
-167.4767420000000016
0
LINE
8
BLACK
6
CONTINUOUS
10
64.3494349999999997
20
-167.4767420000000016
11
64.4446729999999945
21
-167.5719799999999964
0
LINE
8
BLACK
6
CONTINUOUS
10
64.4446729999999945
20
-167.5719799999999964
11
64.5399110000000036
21
-167.7624569999999835
0
LINE
8
BLACK
6
CONTINUOUS
10
64.5399110000000036
20
-167.7624569999999835
11
64.5399110000000036
21
-168.3338849999999809
0
LINE
8
BLACK
6
CONTINUOUS
10
64.5399110000000036
20
-168.3338849999999809
11
64.4446729999999945
21
-168.524360999999999
0
LINE
8
BLACK
6
CONTINUOUS
10
64.4446729999999945
20
-168.524360999999999
11
64.3494349999999997
21
-168.6195999999999913
0
LINE
8
BLACK
6
CONTINUOUS
10
64.3494349999999997
20
-168.6195999999999913
11
64.1589589999999959
21
-168.7148379999999861
0
LINE
8
BLACK
6
CONTINUOUS
10
64.1589589999999959
20
-168.7148379999999861
11
63.7780059999999978
21
-168.7148379999999861
0
LINE
8
BLACK
6
CONTINUOUS
10
63.7780059999999978
20
-168.7148379999999861
11
63.5875299999999939
21
-168.6195999999999913
0
LINE
8
BLACK
6
CONTINUOUS
10
65.3970539999999971
20
-168.524360999999999
11
65.492291999999992
21
-168.6195999999999913
0
LINE
8
BLACK
6
CONTINUOUS
10
65.492291999999992
20
-168.6195999999999913
11
65.3970539999999971
21
-168.7148379999999861
0
LINE
8
BLACK
6
CONTINUOUS
10
65.3970539999999971
20
-168.7148379999999861
11
65.3018160000000023
21
-168.6195999999999913
0
LINE
8
BLACK
6
CONTINUOUS
10
65.3018160000000023
20
-168.6195999999999913
11
65.3970539999999971
21
-168.524360999999999
0
LINE
8
BLACK
6
CONTINUOUS
10
65.3970539999999971
20
-168.524360999999999
11
65.3970539999999971
21
-168.7148379999999861
0
LINE
8
BLACK
6
CONTINUOUS
10
65.3970539999999971
20
-167.4767420000000016
11
65.492291999999992
21
-167.5719799999999964
0
LINE
8
BLACK
6
CONTINUOUS
10
65.492291999999992
20
-167.5719799999999964
11
65.3970539999999971
21
-167.6672189999999887
0
LINE
8
BLACK
6
CONTINUOUS
10
65.3970539999999971
20
-167.6672189999999887
11
65.3018160000000023
21
-167.5719799999999964
0
LINE
8
BLACK
6
CONTINUOUS
10
65.3018160000000023
20
-167.5719799999999964
11
65.3970539999999971
21
-167.4767420000000016
0
LINE
8
BLACK
6
CONTINUOUS
10
65.3970539999999971
20
-167.4767420000000016
11
65.3970539999999971
21
-167.6672189999999887
0
LINE
8
BLACK
6
CONTINUOUS
10
48.2749999999999986
20
-171.5999999999999943
11
49.0749999999999957
21
-172.4000000000000057
0
LINE
8
BLACK
6
CONTINUOUS
10
49.0749999999999957
20
-171.5999999999999943
11
48.2749999999999986
21
-172.4000000000000057
0
LINE
8
BLACK
6
CONTINUOUS
10
52.0637199999999964
20
-170.9148380000000031
11
52.2541969999999978
21
-170.9148380000000031
0
LINE
8
BLACK
6
CONTINUOUS
10
52.2541969999999978
20
-170.9148380000000031
11
52.4446729999999945
21
-171.010075999999998
0
LINE
8
BLACK
6
CONTINUOUS
10
52.4446729999999945
20
-171.010075999999998
11
52.5399109999999965
21
-171.1053139999999928
0
LINE
8
BLACK
6
CONTINUOUS
10
52.5399109999999965
20
-171.1053139999999928
11
52.6351489999999984
21
-171.2957899999999825
0
LINE
8
BLACK
6
CONTINUOUS
10
52.6351489999999984
20
-171.2957899999999825
11
52.7303870000000003
21
-171.6767419999999902
0
LINE
8
BLACK
6
CONTINUOUS
10
52.7303870000000003
20
-171.6767419999999902
11
52.7303870000000003
21
-172.1529329999999902
0
LINE
8
BLACK
6
CONTINUOUS
10
52.7303870000000003
20
-172.1529329999999902
11
52.6351489999999984
21
-172.5338849999999979
0
LINE
8
BLACK
6
CONTINUOUS
10
52.6351489999999984
20
-172.5338849999999979
11
52.5399109999999965
21
-172.7243609999999876
0
LINE
8
BLACK
6
CONTINUOUS
10
52.5399109999999965
20
-172.7243609999999876
11
52.4446729999999945
21
-172.8195999999999799
0
LINE
8
BLACK
6
CONTINUOUS
10
52.4446729999999945
20
-172.8195999999999799
11
52.2541969999999978
21
-172.9148380000000031
0
LINE
8
BLACK
6
CONTINUOUS
10
52.2541969999999978
20
-172.9148380000000031
11
52.0637199999999964
21
-172.9148380000000031
0
LINE
8
BLACK
6
CONTINUOUS
10
52.0637199999999964
20
-172.9148380000000031
11
51.8732439999999997
21
-172.8195999999999799
0
LINE
8
BLACK
6
CONTINUOUS
10
51.8732439999999997
20
-172.8195999999999799
11
51.7780059999999978
21
-172.7243609999999876
0
LINE
8
BLACK
6
CONTINUOUS
10
51.7780059999999978
20
-172.7243609999999876
11
51.6827679999999958
21
-172.5338849999999979
0
LINE
8
BLACK
6
CONTINUOUS
10
51.6827679999999958
20
-172.5338849999999979
11
51.587530000000001
21
-172.1529329999999902
0
LINE
8
BLACK
6
CONTINUOUS
10
51.587530000000001
20
-172.1529329999999902
11
51.587530000000001
21
-171.6767419999999902
0
LINE
8
BLACK
6
CONTINUOUS
10
51.587530000000001
20
-171.6767419999999902
11
51.6827679999999958
21
-171.2957899999999825
0
LINE
8
BLACK
6
CONTINUOUS
10
51.6827679999999958
20
-171.2957899999999825
11
51.7780059999999978
21
-171.1053139999999928
0
LINE
8
BLACK
6
CONTINUOUS
10
51.7780059999999978
20
-171.1053139999999928
11
51.8732439999999997
21
-171.010075999999998
0
LINE
8
BLACK
6
CONTINUOUS
10
51.8732439999999997
20
-171.010075999999998
11
52.0637199999999964
21
-170.9148380000000031
0
LINE
8
BLACK
6
CONTINUOUS
10
53.587530000000001
20
-172.7243609999999876
11
53.6827679999999958
21
-172.8195999999999799
0
LINE
8
BLACK
6
CONTINUOUS
10
53.6827679999999958
20
-172.8195999999999799
11
53.587530000000001
21
-172.9148380000000031
0
LINE
8
BLACK
6
CONTINUOUS
10
53.587530000000001
20
-172.9148380000000031
11
53.4922919999999991
21
-172.8195999999999799
0
LINE
8
BLACK
6
CONTINUOUS
10
53.4922919999999991
20
-172.8195999999999799
11
53.587530000000001
21
-172.7243609999999876
0
LINE
8
BLACK
6
CONTINUOUS
10
53.587530000000001
20
-172.7243609999999876
11
53.587530000000001
21
-172.9148380000000031
0
LINE
8
BLACK
6
CONTINUOUS
10
54.8256249999999952
20
-171.771979999999985
11
54.6351489999999984
21
-171.6767419999999902
0
LINE
8
BLACK
6
CONTINUOUS
10
54.6351489999999984
20
-171.6767419999999902
11
54.5399109999999965
21
-171.5815039999999954
0
LINE
8
BLACK
6
CONTINUOUS
10
54.5399109999999965
20
-171.5815039999999954
11
54.4446729999999945
21
-171.3910280000000057
0
LINE
8
BLACK
6
CONTINUOUS
10
54.4446729999999945
20
-171.3910280000000057
11
54.4446729999999945
21
-171.2957899999999825
0
LINE
8
BLACK
6
CONTINUOUS
10
54.4446729999999945
20
-171.2957899999999825
11
54.5399109999999965
21
-171.1053139999999928
0
LINE
8
BLACK
6
CONTINUOUS
10
54.5399109999999965
20
-171.1053139999999928
11
54.6351489999999984
21
-171.010075999999998
0
LINE
8
BLACK
6
CONTINUOUS
10
54.6351489999999984
20
-171.010075999999998
11
54.8256249999999952
21
-170.9148380000000031
0
LINE
8
BLACK
6
CONTINUOUS
10
54.8256249999999952
20
-170.9148380000000031
11
55.2065780000000004
21
-170.9148380000000031
0
LINE
8
BLACK
6
CONTINUOUS
10
55.2065780000000004
20
-170.9148380000000031
11
55.3970539999999971
21
-171.010075999999998
0
LINE
8
BLACK
6
CONTINUOUS
10
55.3970539999999971
20
-171.010075999999998
11
55.4922919999999991
21
-171.1053139999999928
0
LINE
8
BLACK
6
CONTINUOUS
10
55.4922919999999991
20
-171.1053139999999928
11
55.587530000000001
21
-171.2957899999999825
0
LINE
8
BLACK
6
CONTINUOUS
10
55.587530000000001
20
-171.2957899999999825
11
55.587530000000001
21
-171.3910280000000057
0
LINE
8
BLACK
6
CONTINUOUS
10
55.587530000000001
20
-171.3910280000000057
11
55.4922919999999991
21
-171.5815039999999954
0
LINE
8
BLACK
6
CONTINUOUS
10
55.4922919999999991
20
-171.5815039999999954
11
55.3970539999999971
21
-171.6767419999999902
0
LINE
8
BLACK
6
CONTINUOUS
10
55.3970539999999971
20
-171.6767419999999902
11
55.2065780000000004
21
-171.771979999999985
0
LINE
8
BLACK
6
CONTINUOUS
10
55.2065780000000004
20
-171.771979999999985
11
54.8256249999999952
21
-171.771979999999985
0
LINE
8
BLACK
6
CONTINUOUS
10
54.8256249999999952
20
-171.771979999999985
11
54.6351489999999984
21
-171.8672190000000057
0
LINE
8
BLACK
6
CONTINUOUS
10
54.6351489999999984
20
-171.8672190000000057
11
54.5399109999999965
21
-171.9624570000000006
0
LINE
8
BLACK
6
CONTINUOUS
10
54.5399109999999965
20
-171.9624570000000006
11
54.4446729999999945
21
-172.1529329999999902
0
LINE
8
BLACK
6
CONTINUOUS
10
54.4446729999999945
20
-172.1529329999999902
11
54.4446729999999945
21
-172.5338849999999979
0
LINE
8
BLACK
6
CONTINUOUS
10
54.4446729999999945
20
-172.5338849999999979
11
54.5399109999999965
21
-172.7243609999999876
0
LINE
8
BLACK
6
CONTINUOUS
10
54.5399109999999965
20
-172.7243609999999876
11
54.6351489999999984
21
-172.8195999999999799
0
LINE
8
BLACK
6
CONTINUOUS
10
54.6351489999999984
20
-172.8195999999999799
11
54.8256249999999952
21
-172.9148380000000031
0
LINE
8
BLACK
6
CONTINUOUS
10
54.8256249999999952
20
-172.9148380000000031
11
55.2065780000000004
21
-172.9148380000000031
0
LINE
8
BLACK
6
CONTINUOUS
10
55.2065780000000004
20
-172.9148380000000031
11
55.3970539999999971
21
-172.8195999999999799
0
LINE
8
BLACK
6
CONTINUOUS
10
55.3970539999999971
20
-172.8195999999999799
11
55.4922919999999991
21
-172.7243609999999876
0
LINE
8
BLACK
6
CONTINUOUS
10
55.4922919999999991
20
-172.7243609999999876
11
55.587530000000001
21
-172.5338849999999979
0
LINE
8
BLACK
6
CONTINUOUS
10
55.587530000000001
20
-172.5338849999999979
11
55.587530000000001
21
-172.1529329999999902
0
LINE
8
BLACK
6
CONTINUOUS
10
55.587530000000001
20
-172.1529329999999902
11
55.4922919999999991
21
-171.9624570000000006
0
LINE
8
BLACK
6
CONTINUOUS
10
55.4922919999999991
20
-171.9624570000000006
11
55.3970539999999971
21
-171.8672190000000057
0
LINE
8
BLACK
6
CONTINUOUS
10
55.3970539999999971
20
-171.8672190000000057
11
55.2065780000000004
21
-171.771979999999985
0
LINE
8
BLACK
6
CONTINUOUS
10
56.8256249999999952
20
-170.9148380000000031
11
57.0161019999999965
21
-170.9148380000000031
0
LINE
8
BLACK
6
CONTINUOUS
10
57.0161019999999965
20
-170.9148380000000031
11
57.2065780000000004
21
-171.010075999999998
0
LINE
8
BLACK
6
CONTINUOUS
10
57.2065780000000004
20
-171.010075999999998
11
57.3018159999999952
21
-171.1053139999999928
0
LINE
8
BLACK
6
CONTINUOUS
10
57.3018159999999952
20
-171.1053139999999928
11
57.3970539999999971
21
-171.2957899999999825
0
LINE
8
BLACK
6
CONTINUOUS
10
57.3970539999999971
20
-171.2957899999999825
11
57.4922919999999991
21
-171.6767419999999902
0
LINE
8
BLACK
6
CONTINUOUS
10
57.4922919999999991
20
-171.6767419999999902
11
57.4922919999999991
21
-172.1529329999999902
0
LINE
8
BLACK
6
CONTINUOUS
10
57.4922919999999991
20
-172.1529329999999902
11
57.3970539999999971
21
-172.5338849999999979
0
LINE
8
BLACK
6
CONTINUOUS
10
57.3970539999999971
20
-172.5338849999999979
11
57.3018159999999952
21
-172.7243609999999876
0
LINE
8
BLACK
6
CONTINUOUS
10
57.3018159999999952
20
-172.7243609999999876
11
57.2065780000000004
21
-172.8195999999999799
0
LINE
8
BLACK
6
CONTINUOUS
10
57.2065780000000004
20
-172.8195999999999799
11
57.0161019999999965
21
-172.9148380000000031
0
LINE
8
BLACK
6
CONTINUOUS
10
57.0161019999999965
20
-172.9148380000000031
11
56.8256249999999952
21
-172.9148380000000031
0
LINE
8
BLACK
6
CONTINUOUS
10
56.8256249999999952
20
-172.9148380000000031
11
56.6351489999999984
21
-172.8195999999999799
0
LINE
8
BLACK
6
CONTINUOUS
10
56.6351489999999984
20
-172.8195999999999799
11
56.5399109999999965
21
-172.7243609999999876
0
LINE
8
BLACK
6
CONTINUOUS
10
56.5399109999999965
20
-172.7243609999999876
11
56.4446729999999945
21
-172.5338849999999979
0
LINE
8
BLACK
6
CONTINUOUS
10
56.4446729999999945
20
-172.5338849999999979
11
56.3494349999999997
21
-172.1529329999999902
0
LINE
8
BLACK
6
CONTINUOUS
10
56.3494349999999997
20
-172.1529329999999902
11
56.3494349999999997
21
-171.6767419999999902
0
LINE
8
BLACK
6
CONTINUOUS
10
56.3494349999999997
20
-171.6767419999999902
11
56.4446729999999945
21
-171.2957899999999825
0
LINE
8
BLACK
6
CONTINUOUS
10
56.4446729999999945
20
-171.2957899999999825
11
56.5399109999999965
21
-171.1053139999999928
0
LINE
8
BLACK
6
CONTINUOUS
10
56.5399109999999965
20
-171.1053139999999928
11
56.6351489999999984
21
-171.010075999999998
0
LINE
8
BLACK
6
CONTINUOUS
10
56.6351489999999984
20
-171.010075999999998
11
56.8256249999999952
21
-170.9148380000000031
0
LINE
8
BLACK
6
CONTINUOUS
10
58.7303870000000003
20
-170.9148380000000031
11
58.9208639999999946
21
-170.9148380000000031
0
LINE
8
BLACK
6
CONTINUOUS
10
58.9208639999999946
20
-170.9148380000000031
11
59.1113399999999984
21
-171.010075999999998
0
LINE
8
BLACK
6
CONTINUOUS
10
59.1113399999999984
20
-171.010075999999998
11
59.2065780000000004
21
-171.1053139999999928
0
LINE
8
BLACK
6
CONTINUOUS
10
59.2065780000000004
20
-171.1053139999999928
11
59.3018159999999952
21
-171.2957899999999825
0
LINE
8
BLACK
6
CONTINUOUS
10
59.3018159999999952
20
-171.2957899999999825
11
59.3970539999999971
21
-171.6767419999999902
0
LINE
8
BLACK
6
CONTINUOUS
10
59.3970539999999971
20
-171.6767419999999902
11
59.3970539999999971
21
-172.1529329999999902
0
LINE
8
BLACK
6
CONTINUOUS
10
59.3970539999999971
20
-172.1529329999999902
11
59.3018159999999952
21
-172.5338849999999979
0
LINE
8
BLACK
6
CONTINUOUS
10
59.3018159999999952
20
-172.5338849999999979
11
59.2065780000000004
21
-172.7243609999999876
0
LINE
8
BLACK
6
CONTINUOUS
10
59.2065780000000004
20
-172.7243609999999876
11
59.1113399999999984
21
-172.8195999999999799
0
LINE
8
BLACK
6
CONTINUOUS
10
59.1113399999999984
20
-172.8195999999999799
11
58.9208639999999946
21
-172.9148380000000031
0
LINE
8
BLACK
6
CONTINUOUS
10
58.9208639999999946
20
-172.9148380000000031
11
58.7303870000000003
21
-172.9148380000000031
0
LINE
8
BLACK
6
CONTINUOUS
10
58.7303870000000003
20
-172.9148380000000031
11
58.5399109999999965
21
-172.8195999999999799
0
LINE
8
BLACK
6
CONTINUOUS
10
58.5399109999999965
20
-172.8195999999999799
11
58.4446729999999945
21
-172.7243609999999876
0
LINE
8
BLACK
6
CONTINUOUS
10
58.4446729999999945
20
-172.7243609999999876
11
58.3494349999999997
21
-172.5338849999999979
0
LINE
8
BLACK
6
CONTINUOUS
10
58.3494349999999997
20
-172.5338849999999979
11
58.2541969999999978
21
-172.1529329999999902
0
LINE
8
BLACK
6
CONTINUOUS
10
58.2541969999999978
20
-172.1529329999999902
11
58.2541969999999978
21
-171.6767419999999902
0
LINE
8
BLACK
6
CONTINUOUS
10
58.2541969999999978
20
-171.6767419999999902
11
58.3494349999999997
21
-171.2957899999999825
0
LINE
8
BLACK
6
CONTINUOUS
10
58.3494349999999997
20
-171.2957899999999825
11
58.4446729999999945
21
-171.1053139999999928
0
LINE
8
BLACK
6
CONTINUOUS
10
58.4446729999999945
20
-171.1053139999999928
11
58.5399109999999965
21
-171.010075999999998
0
LINE
8
BLACK
6
CONTINUOUS
10
58.5399109999999965
20
-171.010075999999998
11
58.7303870000000003
21
-170.9148380000000031
0
LINE
8
BLACK
6
CONTINUOUS
10
60.2541969999999978
20
-172.9148380000000031
11
60.2541969999999978
21
-171.5815039999999954
0
LINE
8
BLACK
6
CONTINUOUS
10
60.2541969999999978
20
-171.771979999999985
11
60.3494349999999997
21
-171.6767419999999902
0
LINE
8
BLACK
6
CONTINUOUS
10
60.3494349999999997
20
-171.6767419999999902
11
60.5399109999999965
21
-171.5815039999999954
0
LINE
8
BLACK
6
CONTINUOUS
10
60.5399109999999965
20
-171.5815039999999954
11
60.8256259999999997
21
-171.5815039999999954
0
LINE
8
BLACK
6
CONTINUOUS
10
60.8256259999999997
20
-171.5815039999999954
11
61.0161019999999965
21
-171.6767419999999902
0
LINE
8
BLACK
6
CONTINUOUS
10
61.0161019999999965
20
-171.6767419999999902
11
61.1113399999999984
21
-171.8672190000000057
0
LINE
8
BLACK
6
CONTINUOUS
10
61.1113399999999984
20
-171.8672190000000057
11
61.1113399999999984
21
-172.9148380000000031
0
LINE
8
BLACK
6
CONTINUOUS
10
61.1113399999999984
20
-171.8672190000000057
11
61.2065780000000004
21
-171.6767419999999902
0
LINE
8
BLACK
6
CONTINUOUS
10
61.2065780000000004
20
-171.6767419999999902
11
61.3970539999999971
21
-171.5815039999999954
0
LINE
8
BLACK
6
CONTINUOUS
10
61.3970539999999971
20
-171.5815039999999954
11
61.6827679999999958
21
-171.5815039999999954
0
LINE
8
BLACK
6
CONTINUOUS
10
61.6827679999999958
20
-171.5815039999999954
11
61.8732449999999972
21
-171.6767419999999902
0
LINE
8
BLACK
6
CONTINUOUS
10
61.8732449999999972
20
-171.6767419999999902
11
61.9684829999999991
21
-171.8672190000000057
0
LINE
8
BLACK
6
CONTINUOUS
10
61.9684829999999991
20
-171.8672190000000057
11
61.9684829999999991
21
-172.9148380000000031
0
LINE
8
BLACK
6
CONTINUOUS
10
62.9208639999999946
20
-172.9148380000000031
11
62.9208639999999946
21
-171.5815039999999954
0
LINE
8
BLACK
6
CONTINUOUS
10
62.9208639999999946
20
-171.771979999999985
11
63.0161019999999965
21
-171.6767419999999902
0
LINE
8
BLACK
6
CONTINUOUS
10
63.0161019999999965
20
-171.6767419999999902
11
63.2065780000000004
21
-171.5815039999999954
0
LINE
8
BLACK
6
CONTINUOUS
10
63.2065780000000004
20
-171.5815039999999954
11
63.4922929999999965
21
-171.5815039999999954
0
LINE
8
BLACK
6
CONTINUOUS
10
63.4922929999999965
20
-171.5815039999999954
11
63.6827690000000004
21
-171.6767419999999902
0
LINE
8
BLACK
6
CONTINUOUS
10
63.6827690000000004
20
-171.6767419999999902
11
63.7780069999999952
21
-171.8672190000000057
0
LINE
8
BLACK
6
CONTINUOUS
10
63.7780069999999952
20
-171.8672190000000057
11
63.7780069999999952
21
-172.9148380000000031
0
LINE
8
BLACK
6
CONTINUOUS
10
63.7780069999999952
20
-171.8672190000000057
11
63.8732449999999972
21
-171.6767419999999902
0
LINE
8
BLACK
6
CONTINUOUS
10
63.8732449999999972
20
-171.6767419999999902
11
64.063721000000001
21
-171.5815039999999954
0
LINE
8
BLACK
6
CONTINUOUS
10
64.063721000000001
20
-171.5815039999999954
11
64.3494349999999997
21
-171.5815039999999954
0
LINE
8
BLACK
6
CONTINUOUS
10
64.3494349999999997
20
-171.5815039999999954
11
64.5399120000000011
21
-171.6767419999999902
0
LINE
8
BLACK
6
CONTINUOUS
10
64.5399120000000011
20
-171.6767419999999902
11
64.6351499999999959
21
-171.8672190000000057
0
LINE
8
BLACK
6
CONTINUOUS
10
64.6351499999999959
20
-171.8672190000000057
11
64.6351499999999959
21
-172.9148380000000031
0
LINE
8
BLACK
6
CONTINUOUS
10
68.5399120000000011
20
-170.8195999999999799
11
66.8256269999999972
21
-173.3910280000000057
0
LINE
8
BLACK
6
CONTINUOUS
10
71.1113409999999959
20
-170.9148380000000031
11
71.3018179999999973
21
-170.9148380000000031
0
LINE
8
BLACK
6
CONTINUOUS
10
71.3018179999999973
20
-170.9148380000000031
11
71.4922940000000011
21
-171.010075999999998
0
LINE
8
BLACK
6
CONTINUOUS
10
71.4922940000000011
20
-171.010075999999998
11
71.5875319999999959
21
-171.1053139999999928
0
LINE
8
BLACK
6
CONTINUOUS
10
71.5875319999999959
20
-171.1053139999999928
11
71.6827699999999908
21
-171.2957899999999825
0
LINE
8
BLACK
6
CONTINUOUS
10
71.6827699999999908
20
-171.2957899999999825
11
71.7780079999999998
21
-171.6767419999999902
0
LINE
8
BLACK
6
CONTINUOUS
10
71.7780079999999998
20
-171.6767419999999902
11
71.7780079999999998
21
-172.1529329999999902
0
LINE
8
BLACK
6
CONTINUOUS
10
71.7780079999999998
20
-172.1529329999999902
11
71.6827699999999908
21
-172.5338849999999979
0
LINE
8
BLACK
6
CONTINUOUS
10
71.6827699999999908
20
-172.5338849999999979
11
71.5875319999999959
21
-172.7243609999999876
0
LINE
8
BLACK
6
CONTINUOUS
10
71.5875319999999959
20
-172.7243609999999876
11
71.4922940000000011
21
-172.8195999999999799
0
LINE
8
BLACK
6
CONTINUOUS
10
71.4922940000000011
20
-172.8195999999999799
11
71.3018179999999973
21
-172.9148380000000031
0
LINE
8
BLACK
6
CONTINUOUS
10
71.3018179999999973
20
-172.9148380000000031
11
71.1113409999999959
21
-172.9148380000000031
0
LINE
8
BLACK
6
CONTINUOUS
10
71.1113409999999959
20
-172.9148380000000031
11
70.9208649999999921
21
-172.8195999999999799
0
LINE
8
BLACK
6
CONTINUOUS
10
70.9208649999999921
20
-172.8195999999999799
11
70.8256269999999972
21
-172.7243609999999876
0
LINE
8
BLACK
6
CONTINUOUS
10
70.8256269999999972
20
-172.7243609999999876
11
70.7303890000000024
21
-172.5338849999999979
0
LINE
8
BLACK
6
CONTINUOUS
10
70.7303890000000024
20
-172.5338849999999979
11
70.6351509999999934
21
-172.1529329999999902
0
LINE
8
BLACK
6
CONTINUOUS
10
70.6351509999999934
20
-172.1529329999999902
11
70.6351509999999934
21
-171.6767419999999902
0
LINE
8
BLACK
6
CONTINUOUS
10
70.6351509999999934
20
-171.6767419999999902
11
70.7303890000000024
21
-171.2957899999999825
0
LINE
8
BLACK
6
CONTINUOUS
10
70.7303890000000024
20
-171.2957899999999825
11
70.8256269999999972
21
-171.1053139999999928
0
LINE
8
BLACK
6
CONTINUOUS
10
70.8256269999999972
20
-171.1053139999999928
11
70.9208649999999921
21
-171.010075999999998
0
LINE
8
BLACK
6
CONTINUOUS
10
70.9208649999999921
20
-171.010075999999998
11
71.1113409999999959
21
-170.9148380000000031
0
LINE
8
BLACK
6
CONTINUOUS
10
72.6351509999999934
20
-172.7243609999999876
11
72.7303890000000024
21
-172.8195999999999799
0
LINE
8
BLACK
6
CONTINUOUS
10
72.7303890000000024
20
-172.8195999999999799
11
72.6351509999999934
21
-172.9148380000000031
0
LINE
8
BLACK
6
CONTINUOUS
10
72.6351509999999934
20
-172.9148380000000031
11
72.5399129999999985
21
-172.8195999999999799
0
LINE
8
BLACK
6
CONTINUOUS
10
72.5399129999999985
20
-172.8195999999999799
11
72.6351509999999934
21
-172.7243609999999876
0
LINE
8
BLACK
6
CONTINUOUS
10
72.6351509999999934
20
-172.7243609999999876
11
72.6351509999999934
21
-172.9148380000000031
0
LINE
8
BLACK
6
CONTINUOUS
10
73.9684840000000037
20
-170.9148380000000031
11
74.1589609999999908
21
-170.9148380000000031
0
LINE
8
BLACK
6
CONTINUOUS
10
74.1589609999999908
20
-170.9148380000000031
11
74.3494369999999947
21
-171.010075999999998
0
LINE
8
BLACK
6
CONTINUOUS
10
74.3494369999999947
20
-171.010075999999998
11
74.4446750000000037
21
-171.1053139999999928
0
LINE
8
BLACK
6
CONTINUOUS
10
74.4446750000000037
20
-171.1053139999999928
11
74.5399129999999985
21
-171.2957899999999825
0
LINE
8
BLACK
6
CONTINUOUS
10
74.5399129999999985
20
-171.2957899999999825
11
74.6351509999999934
21
-171.6767419999999902
0
LINE
8
BLACK
6
CONTINUOUS
10
74.6351509999999934
20
-171.6767419999999902
11
74.6351509999999934
21
-172.1529329999999902
0
LINE
8
BLACK
6
CONTINUOUS
10
74.6351509999999934
20
-172.1529329999999902
11
74.5399129999999985
21
-172.5338849999999979
0
LINE
8
BLACK
6
CONTINUOUS
10
74.5399129999999985
20
-172.5338849999999979
11
74.4446750000000037
21
-172.7243609999999876
0
LINE
8
BLACK
6
CONTINUOUS
10
74.4446750000000037
20
-172.7243609999999876
11
74.3494369999999947
21
-172.8195999999999799
0
LINE
8
BLACK
6
CONTINUOUS
10
74.3494369999999947
20
-172.8195999999999799
11
74.1589609999999908
21
-172.9148380000000031
0
LINE
8
BLACK
6
CONTINUOUS
10
74.1589609999999908
20
-172.9148380000000031
11
73.9684840000000037
21
-172.9148380000000031
0
LINE
8
BLACK
6
CONTINUOUS
10
73.9684840000000037
20
-172.9148380000000031
11
73.7780079999999998
21
-172.8195999999999799
0
LINE
8
BLACK
6
CONTINUOUS
10
73.7780079999999998
20
-172.8195999999999799
11
73.6827699999999908
21
-172.7243609999999876
0
LINE
8
BLACK
6
CONTINUOUS
10
73.6827699999999908
20
-172.7243609999999876
11
73.5875319999999959
21
-172.5338849999999979
0
LINE
8
BLACK
6
CONTINUOUS
10
73.5875319999999959
20
-172.5338849999999979
11
73.4922940000000011
21
-172.1529329999999902
0
LINE
8
BLACK
6
CONTINUOUS
10
73.4922940000000011
20
-172.1529329999999902
11
73.4922940000000011
21
-171.6767419999999902
0
LINE
8
BLACK
6
CONTINUOUS
10
73.4922940000000011
20
-171.6767419999999902
11
73.5875319999999959
21
-171.2957899999999825
0
LINE
8
BLACK
6
CONTINUOUS
10
73.5875319999999959
20
-171.2957899999999825
11
73.6827699999999908
21
-171.1053139999999928
0
LINE
8
BLACK
6
CONTINUOUS
10
73.6827699999999908
20
-171.1053139999999928
11
73.7780079999999998
21
-171.010075999999998
0
LINE
8
BLACK
6
CONTINUOUS
10
73.7780079999999998
20
-171.010075999999998
11
73.9684840000000037
21
-170.9148380000000031
0
LINE
8
BLACK
6
CONTINUOUS
10
75.3018179999999973
20
-170.9148380000000031
11
76.5399129999999985
21
-170.9148380000000031
0
LINE
8
BLACK
6
CONTINUOUS
10
76.5399129999999985
20
-170.9148380000000031
11
75.8732459999999946
21
-171.6767419999999902
0
LINE
8
BLACK
6
CONTINUOUS
10
75.8732459999999946
20
-171.6767419999999902
11
76.1589609999999908
21
-171.6767419999999902
0
LINE
8
BLACK
6
CONTINUOUS
10
76.1589609999999908
20
-171.6767419999999902
11
76.3494369999999947
21
-171.771979999999985
0
LINE
8
BLACK
6
CONTINUOUS
10
76.3494369999999947
20
-171.771979999999985
11
76.4446749999999895
21
-171.8672190000000057
0
LINE
8
BLACK
6
CONTINUOUS
10
76.4446749999999895
20
-171.8672190000000057
11
76.5399129999999985
21
-172.0576949999999954
0
LINE
8
BLACK
6
CONTINUOUS
10
76.5399129999999985
20
-172.0576949999999954
11
76.5399129999999985
21
-172.5338849999999979
0
LINE
8
BLACK
6
CONTINUOUS
10
76.5399129999999985
20
-172.5338849999999979
11
76.4446749999999895
21
-172.7243609999999876
0
LINE
8
BLACK
6
CONTINUOUS
10
76.4446749999999895
20
-172.7243609999999876
11
76.3494369999999947
21
-172.8195999999999799
0
LINE
8
BLACK
6
CONTINUOUS
10
76.3494369999999947
20
-172.8195999999999799
11
76.1589609999999908
21
-172.9148380000000031
0
LINE
8
BLACK
6
CONTINUOUS
10
76.1589609999999908
20
-172.9148380000000031
11
75.5875319999999959
21
-172.9148380000000031
0
LINE
8
BLACK
6
CONTINUOUS
10
75.5875319999999959
20
-172.9148380000000031
11
75.3970559999999921
21
-172.8195999999999799
0
LINE
8
BLACK
6
CONTINUOUS
10
75.3970559999999921
20
-172.8195999999999799
11
75.3018179999999973
21
-172.7243609999999876
0
LINE
8
BLACK
6
CONTINUOUS
10
78.4446749999999895
20
-172.9148380000000031
11
77.3018179999999973
21
-172.9148380000000031
0
LINE
8
BLACK
6
CONTINUOUS
10
77.8732459999999946
20
-172.9148380000000031
11
77.8732459999999946
21
-170.9148380000000031
0
LINE
8
BLACK
6
CONTINUOUS
10
77.8732459999999946
20
-170.9148380000000031
11
77.6827699999999908
21
-171.2005519999999876
0
LINE
8
BLACK
6
CONTINUOUS
10
77.6827699999999908
20
-171.2005519999999876
11
77.4922940000000011
21
-171.3910280000000057
0
LINE
8
BLACK
6
CONTINUOUS
10
77.4922940000000011
20
-171.3910280000000057
11
77.3018179999999973
21
-171.4862660000000005
0
LINE
8
BLACK
6
CONTINUOUS
10
80.2541989999999998
20
-170.9148380000000031
11
79.3018179999999973
21
-170.9148380000000031
0
LINE
8
BLACK
6
CONTINUOUS
10
79.3018179999999973
20
-170.9148380000000031
11
79.2065800000000024
21
-171.8672190000000057
0
LINE
8
BLACK
6
CONTINUOUS
10
79.2065800000000024
20
-171.8672190000000057
11
79.3018179999999973
21
-171.771979999999985
0
LINE
8
BLACK
6
CONTINUOUS
10
79.3018179999999973
20
-171.771979999999985
11
79.4922940000000011
21
-171.6767419999999902
0
LINE
8
BLACK
6
CONTINUOUS
10
79.4922940000000011
20
-171.6767419999999902
11
79.9684850000000012
21
-171.6767419999999902
0
LINE
8
BLACK
6
CONTINUOUS
10
79.9684850000000012
20
-171.6767419999999902
11
80.1589609999999908
21
-171.771979999999985
0
LINE
8
BLACK
6
CONTINUOUS
10
80.1589609999999908
20
-171.771979999999985
11
80.2541989999999998
21
-171.8672190000000057
0
LINE
8
BLACK
6
CONTINUOUS
10
80.2541989999999998
20
-171.8672190000000057
11
80.3494369999999947
21
-172.0576949999999954
0
LINE
8
BLACK
6
CONTINUOUS
10
80.3494369999999947
20
-172.0576949999999954
11
80.3494369999999947
21
-172.5338849999999979
0
LINE
8
BLACK
6
CONTINUOUS
10
80.3494369999999947
20
-172.5338849999999979
11
80.2541989999999998
21
-172.7243609999999876
0
LINE
8
BLACK
6
CONTINUOUS
10
80.2541989999999998
20
-172.7243609999999876
11
80.1589609999999908
21
-172.8195999999999799
0
LINE
8
BLACK
6
CONTINUOUS
10
80.1589609999999908
20
-172.8195999999999799
11
79.9684850000000012
21
-172.9148380000000031
0
LINE
8
BLACK
6
CONTINUOUS
10
79.9684850000000012
20
-172.9148380000000031
11
79.4922940000000011
21
-172.9148380000000031
0
LINE
8
BLACK
6
CONTINUOUS
10
79.4922940000000011
20
-172.9148380000000031
11
79.3018179999999973
21
-172.8195999999999799
0
LINE
8
BLACK
6
CONTINUOUS
10
79.3018179999999973
20
-172.8195999999999799
11
79.2065800000000024
21
-172.7243609999999876
0
LINE
8
BLACK
6
CONTINUOUS
10
81.1113419999999934
20
-170.9148380000000031
11
81.1113419999999934
21
-171.2957899999999825
0
LINE
8
BLACK
6
CONTINUOUS
10
81.8732469999999921
20
-170.9148380000000031
11
81.8732469999999921
21
-171.2957899999999825
0
LINE
8
BLACK
6
CONTINUOUS
10
84.8256289999999922
20
-173.6767419999999902
11
84.7303899999999999
21
-173.5815039999999954
0
LINE
8
BLACK
6
CONTINUOUS
10
84.7303899999999999
20
-173.5815039999999954
11
84.539913999999996
21
-173.2957899999999825
0
LINE
8
BLACK
6
CONTINUOUS
10
84.539913999999996
20
-173.2957899999999825
11
84.4446760000000012
21
-173.1053139999999928
0
LINE
8
BLACK
6
CONTINUOUS
10
84.4446760000000012
20
-173.1053139999999928
11
84.3494379999999921
21
-172.8195999999999799
0
LINE
8
BLACK
6
CONTINUOUS
10
84.3494379999999921
20
-172.8195999999999799
11
84.2541999999999973
21
-172.3434089999999799
0
LINE
8
BLACK
6
CONTINUOUS
10
84.2541999999999973
20
-172.3434089999999799
11
84.2541999999999973
21
-171.9624570000000006
0
LINE
8
BLACK
6
CONTINUOUS
10
84.2541999999999973
20
-171.9624570000000006
11
84.3494379999999921
21
-171.4862660000000005
0
LINE
8
BLACK
6
CONTINUOUS
10
84.3494379999999921
20
-171.4862660000000005
11
84.4446760000000012
21
-171.2005519999999876
0
LINE
8
BLACK
6
CONTINUOUS
10
84.4446760000000012
20
-171.2005519999999876
11
84.539913999999996
21
-171.010075999999998
0
LINE
8
BLACK
6
CONTINUOUS
10
84.539913999999996
20
-171.010075999999998
11
84.7303899999999999
21
-170.7243609999999876
0
LINE
8
BLACK
6
CONTINUOUS
10
84.7303899999999999
20
-170.7243609999999876
11
84.8256289999999922
21
-170.6291229999999928
0
LINE
8
BLACK
6
CONTINUOUS
10
86.6351519999999908
20
-172.9148380000000031
11
85.4922949999999986
21
-172.9148380000000031
0
LINE
8
BLACK
6
CONTINUOUS
10
86.063722999999996
20
-172.9148380000000031
11
86.063722999999996
21
-170.9148380000000031
0
LINE
8
BLACK
6
CONTINUOUS
10
86.063722999999996
20
-170.9148380000000031
11
85.8732469999999921
21
-171.2005519999999876
0
LINE
8
BLACK
6
CONTINUOUS
10
85.8732469999999921
20
-171.2005519999999876
11
85.6827710000000025
21
-171.3910280000000057
0
LINE
8
BLACK
6
CONTINUOUS
10
85.6827710000000025
20
-171.3910280000000057
11
85.4922949999999986
21
-171.4862660000000005
0
LINE
8
BLACK
6
CONTINUOUS
10
87.3970569999999896
20
-171.1053139999999928
11
87.4922949999999986
21
-171.010075999999998
0
LINE
8
BLACK
6
CONTINUOUS
10
87.4922949999999986
20
-171.010075999999998
11
87.6827710000000025
21
-170.9148380000000031
0
LINE
8
BLACK
6
CONTINUOUS
10
87.6827710000000025
20
-170.9148380000000031
11
88.1589620000000025
21
-170.9148380000000031
0
LINE
8
BLACK
6
CONTINUOUS
10
88.1589620000000025
20
-170.9148380000000031
11
88.3494379999999921
21
-171.010075999999998
0
LINE
8
BLACK
6
CONTINUOUS
10
88.3494379999999921
20
-171.010075999999998
11
88.4446760000000012
21
-171.1053139999999928
0
LINE
8
BLACK
6
CONTINUOUS
10
88.4446760000000012
20
-171.1053139999999928
11
88.539913999999996
21
-171.2957899999999825
0
LINE
8
BLACK
6
CONTINUOUS
10
88.539913999999996
20
-171.2957899999999825
11
88.539913999999996
21
-171.4862660000000005
0
LINE
8
BLACK
6
CONTINUOUS
10
88.539913999999996
20
-171.4862660000000005
11
88.4446760000000012
21
-171.771979999999985
0
LINE
8
BLACK
6
CONTINUOUS
10
88.4446760000000012
20
-171.771979999999985
11
87.3018189999999947
21
-172.9148380000000031
0
LINE
8
BLACK
6
CONTINUOUS
10
87.3018189999999947
20
-172.9148380000000031
11
88.539913999999996
21
-172.9148380000000031
0
LINE
8
BLACK
6
CONTINUOUS
10
90.9208670000000012
20
-172.9148380000000031
11
90.9208670000000012
21
-170.9148380000000031
0
LINE
8
BLACK
6
CONTINUOUS
10
91.7780099999999948
20
-172.9148380000000031
11
91.7780099999999948
21
-171.8672190000000057
0
LINE
8
BLACK
6
CONTINUOUS
10
91.7780099999999948
20
-171.8672190000000057
11
91.6827719999999999
21
-171.6767419999999902
0
LINE
8
BLACK
6
CONTINUOUS
10
91.6827719999999999
20
-171.6767419999999902
11
91.4922959999999961
21
-171.5815039999999954
0
LINE
8
BLACK
6
CONTINUOUS
10
91.4922959999999961
20
-171.5815039999999954
11
91.2065809999999999
21
-171.5815039999999954
0
LINE
8
BLACK
6
CONTINUOUS
10
91.2065809999999999
20
-171.5815039999999954
11
91.016104999999996
21
-171.6767419999999902
0
LINE
8
BLACK
6
CONTINUOUS
10
91.016104999999996
20
-171.6767419999999902
11
90.9208670000000012
21
-171.771979999999985
0
LINE
8
BLACK
6
CONTINUOUS
10
93.016104999999996
20
-172.9148380000000031
11
92.8256289999999922
21
-172.8195999999999799
0
LINE
8
BLACK
6
CONTINUOUS
10
92.8256289999999922
20
-172.8195999999999799
11
92.7303909999999973
21
-172.7243609999999876
0
LINE
8
BLACK
6
CONTINUOUS
10
92.7303909999999973
20
-172.7243609999999876
11
92.6351530000000025
21
-172.5338849999999979
0
LINE
8
BLACK
6
CONTINUOUS
10
92.6351530000000025
20
-172.5338849999999979
11
92.6351530000000025
21
-171.9624570000000006
0
LINE
8
BLACK
6
CONTINUOUS
10
92.6351530000000025
20
-171.9624570000000006
11
92.7303909999999973
21
-171.771979999999985
0
LINE
8
BLACK
6
CONTINUOUS
10
92.7303909999999973
20
-171.771979999999985
11
92.8256289999999922
21
-171.6767419999999902
0
LINE
8
BLACK
6
CONTINUOUS
10
92.8256289999999922
20
-171.6767419999999902
11
93.016104999999996
21
-171.5815039999999954
0
LINE
8
BLACK
6
CONTINUOUS
10
93.016104999999996
20
-171.5815039999999954
11
93.3018199999999922
21
-171.5815039999999954
0
LINE
8
BLACK
6
CONTINUOUS
10
93.3018199999999922
20
-171.5815039999999954
11
93.4922959999999961
21
-171.6767419999999902
0
LINE
8
BLACK
6
CONTINUOUS
10
93.4922959999999961
20
-171.6767419999999902
11
93.5875339999999909
21
-171.771979999999985
0
LINE
8
BLACK
6
CONTINUOUS
10
93.5875339999999909
20
-171.771979999999985
11
93.6827719999999999
21
-171.9624570000000006
0
LINE
8
BLACK
6
CONTINUOUS
10
93.6827719999999999
20
-171.9624570000000006
11
93.6827719999999999
21
-172.5338849999999979
0
LINE
8
BLACK
6
CONTINUOUS
10
93.6827719999999999
20
-172.5338849999999979
11
93.5875339999999909
21
-172.7243609999999876
0
LINE
8
BLACK
6
CONTINUOUS
10
93.5875339999999909
20
-172.7243609999999876
11
93.4922959999999961
21
-172.8195999999999799
0
LINE
8
BLACK
6
CONTINUOUS
10
93.4922959999999961
20
-172.8195999999999799
11
93.3018199999999922
21
-172.9148380000000031
0
LINE
8
BLACK
6
CONTINUOUS
10
93.3018199999999922
20
-172.9148380000000031
11
93.016104999999996
21
-172.9148380000000031
0
LINE
8
BLACK
6
CONTINUOUS
10
94.8256289999999922
20
-172.9148380000000031
11
94.6351530000000025
21
-172.8195999999999799
0
LINE
8
BLACK
6
CONTINUOUS
10
94.6351530000000025
20
-172.8195999999999799
11
94.5399149999999935
21
-172.6291229999999928
0
LINE
8
BLACK
6
CONTINUOUS
10
94.5399149999999935
20
-172.6291229999999928
11
94.5399149999999935
21
-170.9148380000000031
0
LINE
8
BLACK
6
CONTINUOUS
10
96.3494389999999896
20
-172.8195999999999799
11
96.158963
21
-172.9148380000000031
0
LINE
8
BLACK
6
CONTINUOUS
10
96.158963
20
-172.9148380000000031
11
95.7780099999999948
21
-172.9148380000000031
0
LINE
8
BLACK
6
CONTINUOUS
10
95.7780099999999948
20
-172.9148380000000031
11
95.5875339999999909
21
-172.8195999999999799
0
LINE
8
BLACK
6
CONTINUOUS
10
95.5875339999999909
20
-172.8195999999999799
11
95.4922959999999961
21
-172.6291229999999928
0
LINE
8
BLACK
6
CONTINUOUS
10
95.4922959999999961
20
-172.6291229999999928
11
95.4922959999999961
21
-171.8672190000000057
0
LINE
8
BLACK
6
CONTINUOUS
10
95.4922959999999961
20
-171.8672190000000057
11
95.5875339999999909
21
-171.6767419999999902
0
LINE
8
BLACK
6
CONTINUOUS
10
95.5875339999999909
20
-171.6767419999999902
11
95.7780099999999948
21
-171.5815039999999954
0
LINE
8
BLACK
6
CONTINUOUS
10
95.7780099999999948
20
-171.5815039999999954
11
96.158963
21
-171.5815039999999954
0
LINE
8
BLACK
6
CONTINUOUS
10
96.158963
20
-171.5815039999999954
11
96.3494389999999896
21
-171.6767419999999902
0
LINE
8
BLACK
6
CONTINUOUS
10
96.3494389999999896
20
-171.6767419999999902
11
96.4446769999999987
21
-171.8672190000000057
0
LINE
8
BLACK
6
CONTINUOUS
10
96.4446769999999987
20
-171.8672190000000057
11
96.4446769999999987
21
-172.0576949999999954
0
LINE
8
BLACK
6
CONTINUOUS
10
96.4446769999999987
20
-172.0576949999999954
11
95.4922959999999961
21
-172.248170999999985
0
LINE
8
BLACK
6
CONTINUOUS
10
97.2065819999999974
20
-172.8195999999999799
11
97.3970580000000012
21
-172.9148380000000031
0
LINE
8
BLACK
6
CONTINUOUS
10
97.3970580000000012
20
-172.9148380000000031
11
97.7780099999999948
21
-172.9148380000000031
0
LINE
8
BLACK
6
CONTINUOUS
10
97.7780099999999948
20
-172.9148380000000031
11
97.9684869999999961
21
-172.8195999999999799
0
LINE
8
BLACK
6
CONTINUOUS
10
97.9684869999999961
20
-172.8195999999999799
11
98.0637249999999909
21
-172.6291229999999928
0
LINE
8
BLACK
6
CONTINUOUS
10
98.0637249999999909
20
-172.6291229999999928
11
98.0637249999999909
21
-172.5338849999999979
0
LINE
8
BLACK
6
CONTINUOUS
10
98.0637249999999909
20
-172.5338849999999979
11
97.9684869999999961
21
-172.3434089999999799
0
LINE
8
BLACK
6
CONTINUOUS
10
97.9684869999999961
20
-172.3434089999999799
11
97.7780099999999948
21
-172.248170999999985
0
LINE
8
BLACK
6
CONTINUOUS
10
97.7780099999999948
20
-172.248170999999985
11
97.4922959999999961
21
-172.248170999999985
0
LINE
8
BLACK
6
CONTINUOUS
10
97.4922959999999961
20
-172.248170999999985
11
97.3018199999999922
21
-172.1529329999999902
0
LINE
8
BLACK
6
CONTINUOUS
10
97.3018199999999922
20
-172.1529329999999902
11
97.2065819999999974
21
-171.9624570000000006
0
LINE
8
BLACK
6
CONTINUOUS
10
97.2065819999999974
20
-171.9624570000000006
11
97.2065819999999974
21
-171.8672190000000057
0
LINE
8
BLACK
6
CONTINUOUS
10
97.2065819999999974
20
-171.8672190000000057
11
97.3018199999999922
21
-171.6767419999999902
0
LINE
8
BLACK
6
CONTINUOUS
10
97.3018199999999922
20
-171.6767419999999902
11
97.4922959999999961
21
-171.5815039999999954
0
LINE
8
BLACK
6
CONTINUOUS
10
97.4922959999999961
20
-171.5815039999999954
11
97.7780099999999948
21
-171.5815039999999954
0
LINE
8
BLACK
6
CONTINUOUS
10
97.7780099999999948
20
-171.5815039999999954
11
97.9684869999999961
21
-171.6767419999999902
0
LINE
8
BLACK
6
CONTINUOUS
10
98.7303919999999948
20
-173.6767419999999902
11
98.8256299999999896
21
-173.5815039999999954
0
LINE
8
BLACK
6
CONTINUOUS
10
98.8256299999999896
20
-173.5815039999999954
11
99.0161059999999935
21
-173.2957899999999825
0
LINE
8
BLACK
6
CONTINUOUS
10
99.0161059999999935
20
-173.2957899999999825
11
99.1113440000000026
21
-173.1053139999999928
0
LINE
8
BLACK
6
CONTINUOUS
10
99.1113440000000026
20
-173.1053139999999928
11
99.2065819999999974
21
-172.8195999999999799
0
LINE
8
BLACK
6
CONTINUOUS
10
99.2065819999999974
20
-172.8195999999999799
11
99.3018199999999922
21
-172.3434089999999799
0
LINE
8
BLACK
6
CONTINUOUS
10
99.3018199999999922
20
-172.3434089999999799
11
99.3018199999999922
21
-171.9624570000000006
0
LINE
8
BLACK
6
CONTINUOUS
10
99.3018199999999922
20
-171.9624570000000006
11
99.2065819999999974
21
-171.4862660000000005
0
LINE
8
BLACK
6
CONTINUOUS
10
99.2065819999999974
20
-171.4862660000000005
11
99.1113440000000026
21
-171.2005519999999876
0
LINE
8
BLACK
6
CONTINUOUS
10
99.1113440000000026
20
-171.2005519999999876
11
99.0161059999999935
21
-171.010075999999998
0
LINE
8
BLACK
6
CONTINUOUS
10
99.0161059999999935
20
-171.010075999999998
11
98.8256299999999896
21
-170.7243609999999876
0
LINE
8
BLACK
6
CONTINUOUS
10
98.8256299999999896
20
-170.7243609999999876
11
98.7303919999999948
21
-170.6291229999999928
0
CIRCLE
8
BLACK
10
48.5749999999999957
20
-174.6399999999999864
40
0.5
0
LINE
8
BLACK
6
CONTINUOUS
10
52.7303870000000003
20
-175.5548379999999895
11
51.587530000000001
21
-175.5548379999999895
0
LINE
8
BLACK
6
CONTINUOUS
10
52.1589579999999984
20
-175.5548379999999895
11
52.1589579999999984
21
-173.5548379999999895
0
LINE
8
BLACK
6
CONTINUOUS
10
52.1589579999999984
20
-173.5548379999999895
11
51.9684819999999945
21
-173.8405520000000024
0
LINE
8
BLACK
6
CONTINUOUS
10
51.9684819999999945
20
-173.8405520000000024
11
51.7780059999999978
21
-174.0310279999999921
0
LINE
8
BLACK
6
CONTINUOUS
10
51.7780059999999978
20
-174.0310279999999921
11
51.587530000000001
21
-174.1262659999999869
0
LINE
8
BLACK
6
CONTINUOUS
10
53.587530000000001
20
-175.3643610000000024
11
53.6827679999999958
21
-175.4595999999999947
0
LINE
8
BLACK
6
CONTINUOUS
10
53.6827679999999958
20
-175.4595999999999947
11
53.587530000000001
21
-175.5548379999999895
0
LINE
8
BLACK
6
CONTINUOUS
10
53.587530000000001
20
-175.5548379999999895
11
53.4922919999999991
21
-175.4595999999999947
0
LINE
8
BLACK
6
CONTINUOUS
10
53.4922919999999991
20
-175.4595999999999947
11
53.587530000000001
21
-175.3643610000000024
0
LINE
8
BLACK
6
CONTINUOUS
10
53.587530000000001
20
-175.3643610000000024
11
53.587530000000001
21
-175.5548379999999895
0
LINE
8
BLACK
6
CONTINUOUS
10
54.9208629999999971
20
-173.5548379999999895
11
55.1113399999999984
21
-173.5548379999999895
0
LINE
8
BLACK
6
CONTINUOUS
10
55.1113399999999984
20
-173.5548379999999895
11
55.3018159999999952
21
-173.6500759999999843
0
LINE
8
BLACK
6
CONTINUOUS
10
55.3018159999999952
20
-173.6500759999999843
11
55.3970539999999971
21
-173.7453139999999792
0
LINE
8
BLACK
6
CONTINUOUS
10
55.3970539999999971
20
-173.7453139999999792
11
55.4922919999999991
21
-173.9357899999999972
0
LINE
8
BLACK
6
CONTINUOUS
10
55.4922919999999991
20
-173.9357899999999972
11
55.587530000000001
21
-174.316742000000005
0
LINE
8
BLACK
6
CONTINUOUS
10
55.587530000000001
20
-174.316742000000005
11
55.587530000000001
21
-174.792933000000005
0
LINE
8
BLACK
6
CONTINUOUS
10
55.587530000000001
20
-174.792933000000005
11
55.4922919999999991
21
-175.1738849999999843
0
LINE
8
BLACK
6
CONTINUOUS
10
55.4922919999999991
20
-175.1738849999999843
11
55.3970539999999971
21
-175.3643610000000024
0
LINE
8
BLACK
6
CONTINUOUS
10
55.3970539999999971
20
-175.3643610000000024
11
55.3018159999999952
21
-175.4595999999999947
0
LINE
8
BLACK
6
CONTINUOUS
10
55.3018159999999952
20
-175.4595999999999947
11
55.1113399999999984
21
-175.5548379999999895
0
LINE
8
BLACK
6
CONTINUOUS
10
55.1113399999999984
20
-175.5548379999999895
11
54.9208629999999971
21
-175.5548379999999895
0
LINE
8
BLACK
6
CONTINUOUS
10
54.9208629999999971
20
-175.5548379999999895
11
54.7303870000000003
21
-175.4595999999999947
0
LINE
8
BLACK
6
CONTINUOUS
10
54.7303870000000003
20
-175.4595999999999947
11
54.6351489999999984
21
-175.3643610000000024
0
LINE
8
BLACK
6
CONTINUOUS
10
54.6351489999999984
20
-175.3643610000000024
11
54.5399109999999965
21
-175.1738849999999843
0
LINE
8
BLACK
6
CONTINUOUS
10
54.5399109999999965
20
-175.1738849999999843
11
54.4446729999999945
21
-174.792933000000005
0
LINE
8
BLACK
6
CONTINUOUS
10
54.4446729999999945
20
-174.792933000000005
11
54.4446729999999945
21
-174.316742000000005
0
LINE
8
BLACK
6
CONTINUOUS
10
54.4446729999999945
20
-174.316742000000005
11
54.5399109999999965
21
-173.9357899999999972
0
LINE
8
BLACK
6
CONTINUOUS
10
54.5399109999999965
20
-173.9357899999999972
11
54.6351489999999984
21
-173.7453139999999792
0
LINE
8
BLACK
6
CONTINUOUS
10
54.6351489999999984
20
-173.7453139999999792
11
54.7303870000000003
21
-173.6500759999999843
0
LINE
8
BLACK
6
CONTINUOUS
10
54.7303870000000003
20
-173.6500759999999843
11
54.9208629999999971
21
-173.5548379999999895
0
LINE
8
BLACK
6
CONTINUOUS
10
56.8256249999999952
20
-173.5548379999999895
11
57.0161019999999965
21
-173.5548379999999895
0
LINE
8
BLACK
6
CONTINUOUS
10
57.0161019999999965
20
-173.5548379999999895
11
57.2065780000000004
21
-173.6500759999999843
0
LINE
8
BLACK
6
CONTINUOUS
10
57.2065780000000004
20
-173.6500759999999843
11
57.3018159999999952
21
-173.7453139999999792
0
LINE
8
BLACK
6
CONTINUOUS
10
57.3018159999999952
20
-173.7453139999999792
11
57.3970539999999971
21
-173.9357899999999972
0
LINE
8
BLACK
6
CONTINUOUS
10
57.3970539999999971
20
-173.9357899999999972
11
57.4922919999999991
21
-174.316742000000005
0
LINE
8
BLACK
6
CONTINUOUS
10
57.4922919999999991
20
-174.316742000000005
11
57.4922919999999991
21
-174.792933000000005
0
LINE
8
BLACK
6
CONTINUOUS
10
57.4922919999999991
20
-174.792933000000005
11
57.3970539999999971
21
-175.1738849999999843
0
LINE
8
BLACK
6
CONTINUOUS
10
57.3970539999999971
20
-175.1738849999999843
11
57.3018159999999952
21
-175.3643610000000024
0
LINE
8
BLACK
6
CONTINUOUS
10
57.3018159999999952
20
-175.3643610000000024
11
57.2065780000000004
21
-175.4595999999999947
0
LINE
8
BLACK
6
CONTINUOUS
10
57.2065780000000004
20
-175.4595999999999947
11
57.0161019999999965
21
-175.5548379999999895
0
LINE
8
BLACK
6
CONTINUOUS
10
57.0161019999999965
20
-175.5548379999999895
11
56.8256249999999952
21
-175.5548379999999895
0
LINE
8
BLACK
6
CONTINUOUS
10
56.8256249999999952
20
-175.5548379999999895
11
56.6351489999999984
21
-175.4595999999999947
0
LINE
8
BLACK
6
CONTINUOUS
10
56.6351489999999984
20
-175.4595999999999947
11
56.5399109999999965
21
-175.3643610000000024
0
LINE
8
BLACK
6
CONTINUOUS
10
56.5399109999999965
20
-175.3643610000000024
11
56.4446729999999945
21
-175.1738849999999843
0
LINE
8
BLACK
6
CONTINUOUS
10
56.4446729999999945
20
-175.1738849999999843
11
56.3494349999999997
21
-174.792933000000005
0
LINE
8
BLACK
6
CONTINUOUS
10
56.3494349999999997
20
-174.792933000000005
11
56.3494349999999997
21
-174.316742000000005
0
LINE
8
BLACK
6
CONTINUOUS
10
56.3494349999999997
20
-174.316742000000005
11
56.4446729999999945
21
-173.9357899999999972
0
LINE
8
BLACK
6
CONTINUOUS
10
56.4446729999999945
20
-173.9357899999999972
11
56.5399109999999965
21
-173.7453139999999792
0
LINE
8
BLACK
6
CONTINUOUS
10
56.5399109999999965
20
-173.7453139999999792
11
56.6351489999999984
21
-173.6500759999999843
0
LINE
8
BLACK
6
CONTINUOUS
10
56.6351489999999984
20
-173.6500759999999843
11
56.8256249999999952
21
-173.5548379999999895
0
LINE
8
BLACK
6
CONTINUOUS
10
58.7303870000000003
20
-173.5548379999999895
11
58.9208639999999946
21
-173.5548379999999895
0
LINE
8
BLACK
6
CONTINUOUS
10
58.9208639999999946
20
-173.5548379999999895
11
59.1113399999999984
21
-173.6500759999999843
0
LINE
8
BLACK
6
CONTINUOUS
10
59.1113399999999984
20
-173.6500759999999843
11
59.2065780000000004
21
-173.7453139999999792
0
LINE
8
BLACK
6
CONTINUOUS
10
59.2065780000000004
20
-173.7453139999999792
11
59.3018159999999952
21
-173.9357899999999972
0
LINE
8
BLACK
6
CONTINUOUS
10
59.3018159999999952
20
-173.9357899999999972
11
59.3970539999999971
21
-174.316742000000005
0
LINE
8
BLACK
6
CONTINUOUS
10
59.3970539999999971
20
-174.316742000000005
11
59.3970539999999971
21
-174.792933000000005
0
LINE
8
BLACK
6
CONTINUOUS
10
59.3970539999999971
20
-174.792933000000005
11
59.3018159999999952
21
-175.1738849999999843
0
LINE
8
BLACK
6
CONTINUOUS
10
59.3018159999999952
20
-175.1738849999999843
11
59.2065780000000004
21
-175.3643610000000024
0
LINE
8
BLACK
6
CONTINUOUS
10
59.2065780000000004
20
-175.3643610000000024
11
59.1113399999999984
21
-175.4595999999999947
0
LINE
8
BLACK
6
CONTINUOUS
10
59.1113399999999984
20
-175.4595999999999947
11
58.9208639999999946
21
-175.5548379999999895
0
LINE
8
BLACK
6
CONTINUOUS
10
58.9208639999999946
20
-175.5548379999999895
11
58.7303870000000003
21
-175.5548379999999895
0
LINE
8
BLACK
6
CONTINUOUS
10
58.7303870000000003
20
-175.5548379999999895
11
58.5399109999999965
21
-175.4595999999999947
0
LINE
8
BLACK
6
CONTINUOUS
10
58.5399109999999965
20
-175.4595999999999947
11
58.4446729999999945
21
-175.3643610000000024
0
LINE
8
BLACK
6
CONTINUOUS
10
58.4446729999999945
20
-175.3643610000000024
11
58.3494349999999997
21
-175.1738849999999843
0
LINE
8
BLACK
6
CONTINUOUS
10
58.3494349999999997
20
-175.1738849999999843
11
58.2541969999999978
21
-174.792933000000005
0
LINE
8
BLACK
6
CONTINUOUS
10
58.2541969999999978
20
-174.792933000000005
11
58.2541969999999978
21
-174.316742000000005
0
LINE
8
BLACK
6
CONTINUOUS
10
58.2541969999999978
20
-174.316742000000005
11
58.3494349999999997
21
-173.9357899999999972
0
LINE
8
BLACK
6
CONTINUOUS
10
58.3494349999999997
20
-173.9357899999999972
11
58.4446729999999945
21
-173.7453139999999792
0
LINE
8
BLACK
6
CONTINUOUS
10
58.4446729999999945
20
-173.7453139999999792
11
58.5399109999999965
21
-173.6500759999999843
0
LINE
8
BLACK
6
CONTINUOUS
10
58.5399109999999965
20
-173.6500759999999843
11
58.7303870000000003
21
-173.5548379999999895
0
LINE
8
BLACK
6
CONTINUOUS
10
60.2541969999999978
20
-175.5548379999999895
11
60.2541969999999978
21
-174.2215039999999817
0
LINE
8
BLACK
6
CONTINUOUS
10
60.2541969999999978
20
-174.4119799999999998
11
60.3494349999999997
21
-174.316742000000005
0
LINE
8
BLACK
6
CONTINUOUS
10
60.3494349999999997
20
-174.316742000000005
11
60.5399109999999965
21
-174.2215039999999817
0
LINE
8
BLACK
6
CONTINUOUS
10
60.5399109999999965
20
-174.2215039999999817
11
60.8256259999999997
21
-174.2215039999999817
0
LINE
8
BLACK
6
CONTINUOUS
10
60.8256259999999997
20
-174.2215039999999817
11
61.0161019999999965
21
-174.316742000000005
0
LINE
8
BLACK
6
CONTINUOUS
10
61.0161019999999965
20
-174.316742000000005
11
61.1113399999999984
21
-174.5072189999999921
0
LINE
8
BLACK
6
CONTINUOUS
10
61.1113399999999984
20
-174.5072189999999921
11
61.1113399999999984
21
-175.5548379999999895
0
LINE
8
BLACK
6
CONTINUOUS
10
61.1113399999999984
20
-174.5072189999999921
11
61.2065780000000004
21
-174.316742000000005
0
LINE
8
BLACK
6
CONTINUOUS
10
61.2065780000000004
20
-174.316742000000005
11
61.3970539999999971
21
-174.2215039999999817
0
LINE
8
BLACK
6
CONTINUOUS
10
61.3970539999999971
20
-174.2215039999999817
11
61.6827679999999958
21
-174.2215039999999817
0
LINE
8
BLACK
6
CONTINUOUS
10
61.6827679999999958
20
-174.2215039999999817
11
61.8732449999999972
21
-174.316742000000005
0
LINE
8
BLACK
6
CONTINUOUS
10
61.8732449999999972
20
-174.316742000000005
11
61.9684829999999991
21
-174.5072189999999921
0
LINE
8
BLACK
6
CONTINUOUS
10
61.9684829999999991
20
-174.5072189999999921
11
61.9684829999999991
21
-175.5548379999999895
0
LINE
8
BLACK
6
CONTINUOUS
10
62.9208639999999946
20
-175.5548379999999895
11
62.9208639999999946
21
-174.2215039999999817
0
LINE
8
BLACK
6
CONTINUOUS
10
62.9208639999999946
20
-174.4119799999999998
11
63.0161019999999965
21
-174.316742000000005
0
LINE
8
BLACK
6
CONTINUOUS
10
63.0161019999999965
20
-174.316742000000005
11
63.2065780000000004
21
-174.2215039999999817
0
LINE
8
BLACK
6
CONTINUOUS
10
63.2065780000000004
20
-174.2215039999999817
11
63.4922929999999965
21
-174.2215039999999817
0
LINE
8
BLACK
6
CONTINUOUS
10
63.4922929999999965
20
-174.2215039999999817
11
63.6827690000000004
21
-174.316742000000005
0
LINE
8
BLACK
6
CONTINUOUS
10
63.6827690000000004
20
-174.316742000000005
11
63.7780069999999952
21
-174.5072189999999921
0
LINE
8
BLACK
6
CONTINUOUS
10
63.7780069999999952
20
-174.5072189999999921
11
63.7780069999999952
21
-175.5548379999999895
0
LINE
8
BLACK
6
CONTINUOUS
10
63.7780069999999952
20
-174.5072189999999921
11
63.8732449999999972
21
-174.316742000000005
0
LINE
8
BLACK
6
CONTINUOUS
10
63.8732449999999972
20
-174.316742000000005
11
64.063721000000001
21
-174.2215039999999817
0
LINE
8
BLACK
6
CONTINUOUS
10
64.063721000000001
20
-174.2215039999999817
11
64.3494349999999997
21
-174.2215039999999817
0
LINE
8
BLACK
6
CONTINUOUS
10
64.3494349999999997
20
-174.2215039999999817
11
64.5399120000000011
21
-174.316742000000005
0
LINE
8
BLACK
6
CONTINUOUS
10
64.5399120000000011
20
-174.316742000000005
11
64.6351499999999959
21
-174.5072189999999921
0
LINE
8
BLACK
6
CONTINUOUS
10
64.6351499999999959
20
-174.5072189999999921
11
64.6351499999999959
21
-175.5548379999999895
0
LINE
8
BLACK
6
CONTINUOUS
10
68.5399120000000011
20
-173.4595999999999947
11
66.8256269999999972
21
-176.0310279999999921
0
LINE
8
BLACK
6
CONTINUOUS
10
71.1113409999999959
20
-173.5548379999999895
11
71.3018179999999973
21
-173.5548379999999895
0
LINE
8
BLACK
6
CONTINUOUS
10
71.3018179999999973
20
-173.5548379999999895
11
71.4922940000000011
21
-173.6500759999999843
0
LINE
8
BLACK
6
CONTINUOUS
10
71.4922940000000011
20
-173.6500759999999843
11
71.5875319999999959
21
-173.7453139999999792
0
LINE
8
BLACK
6
CONTINUOUS
10
71.5875319999999959
20
-173.7453139999999792
11
71.6827699999999908
21
-173.9357899999999972
0
LINE
8
BLACK
6
CONTINUOUS
10
71.6827699999999908
20
-173.9357899999999972
11
71.7780079999999998
21
-174.316742000000005
0
LINE
8
BLACK
6
CONTINUOUS
10
71.7780079999999998
20
-174.316742000000005
11
71.7780079999999998
21
-174.792933000000005
0
LINE
8
BLACK
6
CONTINUOUS
10
71.7780079999999998
20
-174.792933000000005
11
71.6827699999999908
21
-175.1738849999999843
0
LINE
8
BLACK
6
CONTINUOUS
10
71.6827699999999908
20
-175.1738849999999843
11
71.5875319999999959
21
-175.3643610000000024
0
LINE
8
BLACK
6
CONTINUOUS
10
71.5875319999999959
20
-175.3643610000000024
11
71.4922940000000011
21
-175.4595999999999947
0
LINE
8
BLACK
6
CONTINUOUS
10
71.4922940000000011
20
-175.4595999999999947
11
71.3018179999999973
21
-175.5548379999999895
0
LINE
8
BLACK
6
CONTINUOUS
10
71.3018179999999973
20
-175.5548379999999895
11
71.1113409999999959
21
-175.5548379999999895
0
LINE
8
BLACK
6
CONTINUOUS
10
71.1113409999999959
20
-175.5548379999999895
11
70.9208649999999921
21
-175.4595999999999947
0
LINE
8
BLACK
6
CONTINUOUS
10
70.9208649999999921
20
-175.4595999999999947
11
70.8256269999999972
21
-175.3643610000000024
0
LINE
8
BLACK
6
CONTINUOUS
10
70.8256269999999972
20
-175.3643610000000024
11
70.7303890000000024
21
-175.1738849999999843
0
LINE
8
BLACK
6
CONTINUOUS
10
70.7303890000000024
20
-175.1738849999999843
11
70.6351509999999934
21
-174.792933000000005
0
LINE
8
BLACK
6
CONTINUOUS
10
70.6351509999999934
20
-174.792933000000005
11
70.6351509999999934
21
-174.316742000000005
0
LINE
8
BLACK
6
CONTINUOUS
10
70.6351509999999934
20
-174.316742000000005
11
70.7303890000000024
21
-173.9357899999999972
0
LINE
8
BLACK
6
CONTINUOUS
10
70.7303890000000024
20
-173.9357899999999972
11
70.8256269999999972
21
-173.7453139999999792
0
LINE
8
BLACK
6
CONTINUOUS
10
70.8256269999999972
20
-173.7453139999999792
11
70.9208649999999921
21
-173.6500759999999843
0
LINE
8
BLACK
6
CONTINUOUS
10
70.9208649999999921
20
-173.6500759999999843
11
71.1113409999999959
21
-173.5548379999999895
0
LINE
8
BLACK
6
CONTINUOUS
10
72.6351509999999934
20
-175.3643610000000024
11
72.7303890000000024
21
-175.4595999999999947
0
LINE
8
BLACK
6
CONTINUOUS
10
72.7303890000000024
20
-175.4595999999999947
11
72.6351509999999934
21
-175.5548379999999895
0
LINE
8
BLACK
6
CONTINUOUS
10
72.6351509999999934
20
-175.5548379999999895
11
72.5399129999999985
21
-175.4595999999999947
0
LINE
8
BLACK
6
CONTINUOUS
10
72.5399129999999985
20
-175.4595999999999947
11
72.6351509999999934
21
-175.3643610000000024
0
LINE
8
BLACK
6
CONTINUOUS
10
72.6351509999999934
20
-175.3643610000000024
11
72.6351509999999934
21
-175.5548379999999895
0
LINE
8
BLACK
6
CONTINUOUS
10
73.9684840000000037
20
-173.5548379999999895
11
74.1589609999999908
21
-173.5548379999999895
0
LINE
8
BLACK
6
CONTINUOUS
10
74.1589609999999908
20
-173.5548379999999895
11
74.3494369999999947
21
-173.6500759999999843
0
LINE
8
BLACK
6
CONTINUOUS
10
74.3494369999999947
20
-173.6500759999999843
11
74.4446750000000037
21
-173.7453139999999792
0
LINE
8
BLACK
6
CONTINUOUS
10
74.4446750000000037
20
-173.7453139999999792
11
74.5399129999999985
21
-173.9357899999999972
0
LINE
8
BLACK
6
CONTINUOUS
10
74.5399129999999985
20
-173.9357899999999972
11
74.6351509999999934
21
-174.316742000000005
0
LINE
8
BLACK
6
CONTINUOUS
10
74.6351509999999934
20
-174.316742000000005
11
74.6351509999999934
21
-174.792933000000005
0
LINE
8
BLACK
6
CONTINUOUS
10
74.6351509999999934
20
-174.792933000000005
11
74.5399129999999985
21
-175.1738849999999843
0
LINE
8
BLACK
6
CONTINUOUS
10
74.5399129999999985
20
-175.1738849999999843
11
74.4446750000000037
21
-175.3643610000000024
0
LINE
8
BLACK
6
CONTINUOUS
10
74.4446750000000037
20
-175.3643610000000024
11
74.3494369999999947
21
-175.4595999999999947
0
LINE
8
BLACK
6
CONTINUOUS
10
74.3494369999999947
20
-175.4595999999999947
11
74.1589609999999908
21
-175.5548379999999895
0
LINE
8
BLACK
6
CONTINUOUS
10
74.1589609999999908
20
-175.5548379999999895
11
73.9684840000000037
21
-175.5548379999999895
0
LINE
8
BLACK
6
CONTINUOUS
10
73.9684840000000037
20
-175.5548379999999895
11
73.7780079999999998
21
-175.4595999999999947
0
LINE
8
BLACK
6
CONTINUOUS
10
73.7780079999999998
20
-175.4595999999999947
11
73.6827699999999908
21
-175.3643610000000024
0
LINE
8
BLACK
6
CONTINUOUS
10
73.6827699999999908
20
-175.3643610000000024
11
73.5875319999999959
21
-175.1738849999999843
0
LINE
8
BLACK
6
CONTINUOUS
10
73.5875319999999959
20
-175.1738849999999843
11
73.4922940000000011
21
-174.792933000000005
0
LINE
8
BLACK
6
CONTINUOUS
10
73.4922940000000011
20
-174.792933000000005
11
73.4922940000000011
21
-174.316742000000005
0
LINE
8
BLACK
6
CONTINUOUS
10
73.4922940000000011
20
-174.316742000000005
11
73.5875319999999959
21
-173.9357899999999972
0
LINE
8
BLACK
6
CONTINUOUS
10
73.5875319999999959
20
-173.9357899999999972
11
73.6827699999999908
21
-173.7453139999999792
0
LINE
8
BLACK
6
CONTINUOUS
10
73.6827699999999908
20
-173.7453139999999792
11
73.7780079999999998
21
-173.6500759999999843
0
LINE
8
BLACK
6
CONTINUOUS
10
73.7780079999999998
20
-173.6500759999999843
11
73.9684840000000037
21
-173.5548379999999895
0
LINE
8
BLACK
6
CONTINUOUS
10
75.3018179999999973
20
-173.5548379999999895
11
76.5399129999999985
21
-173.5548379999999895
0
LINE
8
BLACK
6
CONTINUOUS
10
76.5399129999999985
20
-173.5548379999999895
11
75.8732459999999946
21
-174.316742000000005
0
LINE
8
BLACK
6
CONTINUOUS
10
75.8732459999999946
20
-174.316742000000005
11
76.1589609999999908
21
-174.316742000000005
0
LINE
8
BLACK
6
CONTINUOUS
10
76.1589609999999908
20
-174.316742000000005
11
76.3494369999999947
21
-174.4119799999999998
0
LINE
8
BLACK
6
CONTINUOUS
10
76.3494369999999947
20
-174.4119799999999998
11
76.4446749999999895
21
-174.5072189999999921
0
LINE
8
BLACK
6
CONTINUOUS
10
76.4446749999999895
20
-174.5072189999999921
11
76.5399129999999985
21
-174.6976949999999817
0
LINE
8
BLACK
6
CONTINUOUS
10
76.5399129999999985
20
-174.6976949999999817
11
76.5399129999999985
21
-175.1738849999999843
0
LINE
8
BLACK
6
CONTINUOUS
10
76.5399129999999985
20
-175.1738849999999843
11
76.4446749999999895
21
-175.3643610000000024
0
LINE
8
BLACK
6
CONTINUOUS
10
76.4446749999999895
20
-175.3643610000000024
11
76.3494369999999947
21
-175.4595999999999947
0
LINE
8
BLACK
6
CONTINUOUS
10
76.3494369999999947
20
-175.4595999999999947
11
76.1589609999999908
21
-175.5548379999999895
0
LINE
8
BLACK
6
CONTINUOUS
10
76.1589609999999908
20
-175.5548379999999895
11
75.5875319999999959
21
-175.5548379999999895
0
LINE
8
BLACK
6
CONTINUOUS
10
75.5875319999999959
20
-175.5548379999999895
11
75.3970559999999921
21
-175.4595999999999947
0
LINE
8
BLACK
6
CONTINUOUS
10
75.3970559999999921
20
-175.4595999999999947
11
75.3018179999999973
21
-175.3643610000000024
0
LINE
8
BLACK
6
CONTINUOUS
10
77.4922940000000011
20
-175.5548379999999895
11
77.8732459999999946
21
-175.5548379999999895
0
LINE
8
BLACK
6
CONTINUOUS
10
77.8732459999999946
20
-175.5548379999999895
11
78.063722999999996
21
-175.4595999999999947
0
LINE
8
BLACK
6
CONTINUOUS
10
78.063722999999996
20
-175.4595999999999947
11
78.1589609999999908
21
-175.3643610000000024
0
LINE
8
BLACK
6
CONTINUOUS
10
78.1589609999999908
20
-175.3643610000000024
11
78.3494369999999947
21
-175.0786469999999895
0
LINE
8
BLACK
6
CONTINUOUS
10
78.3494369999999947
20
-175.0786469999999895
11
78.4446749999999895
21
-174.6976949999999817
0
LINE
8
BLACK
6
CONTINUOUS
10
78.4446749999999895
20
-174.6976949999999817
11
78.4446749999999895
21
-173.9357899999999972
0
LINE
8
BLACK
6
CONTINUOUS
10
78.4446749999999895
20
-173.9357899999999972
11
78.3494369999999947
21
-173.7453139999999792
0
LINE
8
BLACK
6
CONTINUOUS
10
78.3494369999999947
20
-173.7453139999999792
11
78.2541989999999998
21
-173.6500759999999843
0
LINE
8
BLACK
6
CONTINUOUS
10
78.2541989999999998
20
-173.6500759999999843
11
78.063722999999996
21
-173.5548379999999895
0
LINE
8
BLACK
6
CONTINUOUS
10
78.063722999999996
20
-173.5548379999999895
11
77.6827699999999908
21
-173.5548379999999895
0
LINE
8
BLACK
6
CONTINUOUS
10
77.6827699999999908
20
-173.5548379999999895
11
77.4922940000000011
21
-173.6500759999999843
0
LINE
8
BLACK
6
CONTINUOUS
10
77.4922940000000011
20
-173.6500759999999843
11
77.3970559999999921
21
-173.7453139999999792
0
LINE
8
BLACK
6
CONTINUOUS
10
77.3970559999999921
20
-173.7453139999999792
11
77.3018179999999973
21
-173.9357899999999972
0
LINE
8
BLACK
6
CONTINUOUS
10
77.3018179999999973
20
-173.9357899999999972
11
77.3018179999999973
21
-174.4119799999999998
0
LINE
8
BLACK
6
CONTINUOUS
10
77.3018179999999973
20
-174.4119799999999998
11
77.3970559999999921
21
-174.6024569999999869
0
LINE
8
BLACK
6
CONTINUOUS
10
77.3970559999999921
20
-174.6024569999999869
11
77.4922940000000011
21
-174.6976949999999817
0
LINE
8
BLACK
6
CONTINUOUS
10
77.4922940000000011
20
-174.6976949999999817
11
77.6827699999999908
21
-174.792933000000005
0
LINE
8
BLACK
6
CONTINUOUS
10
77.6827699999999908
20
-174.792933000000005
11
78.063722999999996
21
-174.792933000000005
0
LINE
8
BLACK
6
CONTINUOUS
10
78.063722999999996
20
-174.792933000000005
11
78.2541989999999998
21
-174.6976949999999817
0
LINE
8
BLACK
6
CONTINUOUS
10
78.2541989999999998
20
-174.6976949999999817
11
78.3494369999999947
21
-174.6024569999999869
0
LINE
8
BLACK
6
CONTINUOUS
10
78.3494369999999947
20
-174.6024569999999869
11
78.4446749999999895
21
-174.4119799999999998
0
LINE
8
BLACK
6
CONTINUOUS
10
80.1589609999999908
20
-174.2215039999999817
11
80.1589609999999908
21
-175.5548379999999895
0
LINE
8
BLACK
6
CONTINUOUS
10
79.6827699999999908
20
-173.4595999999999947
11
79.2065800000000024
21
-174.8881709999999998
0
LINE
8
BLACK
6
CONTINUOUS
10
79.2065800000000024
20
-174.8881709999999998
11
80.4446749999999895
21
-174.8881709999999998
0
LINE
8
BLACK
6
CONTINUOUS
10
81.1113419999999934
20
-173.5548379999999895
11
81.1113419999999934
21
-173.9357899999999972
0
LINE
8
BLACK
6
CONTINUOUS
10
81.8732469999999921
20
-173.5548379999999895
11
81.8732469999999921
21
-173.9357899999999972
0
LINE
8
BLACK
6
CONTINUOUS
10
84.8256289999999922
20
-176.316742000000005
11
84.7303899999999999
21
-176.2215039999999817
0
LINE
8
BLACK
6
CONTINUOUS
10
84.7303899999999999
20
-176.2215039999999817
11
84.539913999999996
21
-175.9357899999999972
0
LINE
8
BLACK
6
CONTINUOUS
10
84.539913999999996
20
-175.9357899999999972
11
84.4446760000000012
21
-175.7453139999999792
0
LINE
8
BLACK
6
CONTINUOUS
10
84.4446760000000012
20
-175.7453139999999792
11
84.3494379999999921
21
-175.4595999999999947
0
LINE
8
BLACK
6
CONTINUOUS
10
84.3494379999999921
20
-175.4595999999999947
11
84.2541999999999973
21
-174.9834089999999946
0
LINE
8
BLACK
6
CONTINUOUS
10
84.2541999999999973
20
-174.9834089999999946
11
84.2541999999999973
21
-174.6024569999999869
0
LINE
8
BLACK
6
CONTINUOUS
10
84.2541999999999973
20
-174.6024569999999869
11
84.3494379999999921
21
-174.1262659999999869
0
LINE
8
BLACK
6
CONTINUOUS
10
84.3494379999999921
20
-174.1262659999999869
11
84.4446760000000012
21
-173.8405520000000024
0
LINE
8
BLACK
6
CONTINUOUS
10
84.4446760000000012
20
-173.8405520000000024
11
84.539913999999996
21
-173.6500759999999843
0
LINE
8
BLACK
6
CONTINUOUS
10
84.539913999999996
20
-173.6500759999999843
11
84.7303899999999999
21
-173.3643610000000024
0
LINE
8
BLACK
6
CONTINUOUS
10
84.7303899999999999
20
-173.3643610000000024
11
84.8256289999999922
21
-173.2691229999999791
0
LINE
8
BLACK
6
CONTINUOUS
10
86.4446760000000012
20
-174.2215039999999817
11
86.4446760000000012
21
-175.5548379999999895
0
LINE
8
BLACK
6
CONTINUOUS
10
85.9684850000000012
20
-173.4595999999999947
11
85.4922949999999986
21
-174.8881709999999998
0
LINE
8
BLACK
6
CONTINUOUS
10
85.4922949999999986
20
-174.8881709999999998
11
86.7303899999999999
21
-174.8881709999999998
0
LINE
8
BLACK
6
CONTINUOUS
10
87.8732469999999921
20
-173.5548379999999895
11
88.0637239999999935
21
-173.5548379999999895
0
LINE
8
BLACK
6
CONTINUOUS
10
88.0637239999999935
20
-173.5548379999999895
11
88.2541999999999973
21
-173.6500759999999843
0
LINE
8
BLACK
6
CONTINUOUS
10
88.2541999999999973
20
-173.6500759999999843
11
88.3494379999999921
21
-173.7453139999999792
0
LINE
8
BLACK
6
CONTINUOUS
10
88.3494379999999921
20
-173.7453139999999792
11
88.4446760000000012
21
-173.9357899999999972
0
LINE
8
BLACK
6
CONTINUOUS
10
88.4446760000000012
20
-173.9357899999999972
11
88.539913999999996
21
-174.316742000000005
0
LINE
8
BLACK
6
CONTINUOUS
10
88.539913999999996
20
-174.316742000000005
11
88.539913999999996
21
-174.792933000000005
0
LINE
8
BLACK
6
CONTINUOUS
10
88.539913999999996
20
-174.792933000000005
11
88.4446760000000012
21
-175.1738849999999843
0
LINE
8
BLACK
6
CONTINUOUS
10
88.4446760000000012
20
-175.1738849999999843
11
88.3494379999999921
21
-175.3643610000000024
0
LINE
8
BLACK
6
CONTINUOUS
10
88.3494379999999921
20
-175.3643610000000024
11
88.2541999999999973
21
-175.4595999999999947
0
LINE
8
BLACK
6
CONTINUOUS
10
88.2541999999999973
20
-175.4595999999999947
11
88.0637239999999935
21
-175.5548379999999895
0
LINE
8
BLACK
6
CONTINUOUS
10
88.0637239999999935
20
-175.5548379999999895
11
87.8732469999999921
21
-175.5548379999999895
0
LINE
8
BLACK
6
CONTINUOUS
10
87.8732469999999921
20
-175.5548379999999895
11
87.6827710000000025
21
-175.4595999999999947
0
LINE
8
BLACK
6
CONTINUOUS
10
87.6827710000000025
20
-175.4595999999999947
11
87.5875329999999934
21
-175.3643610000000024
0
LINE
8
BLACK
6
CONTINUOUS
10
87.5875329999999934
20
-175.3643610000000024
11
87.4922949999999986
21
-175.1738849999999843
0
LINE
8
BLACK
6
CONTINUOUS
10
87.4922949999999986
20
-175.1738849999999843
11
87.3970569999999896
21
-174.792933000000005
0
LINE
8
BLACK
6
CONTINUOUS
10
87.3970569999999896
20
-174.792933000000005
11
87.3970569999999896
21
-174.316742000000005
0
LINE
8
BLACK
6
CONTINUOUS
10
87.3970569999999896
20
-174.316742000000005
11
87.4922949999999986
21
-173.9357899999999972
0
LINE
8
BLACK
6
CONTINUOUS
10
87.4922949999999986
20
-173.9357899999999972
11
87.5875329999999934
21
-173.7453139999999792
0
LINE
8
BLACK
6
CONTINUOUS
10
87.5875329999999934
20
-173.7453139999999792
11
87.6827710000000025
21
-173.6500759999999843
0
LINE
8
BLACK
6
CONTINUOUS
10
87.6827710000000025
20
-173.6500759999999843
11
87.8732469999999921
21
-173.5548379999999895
0
LINE
8
BLACK
6
CONTINUOUS
10
90.9208670000000012
20
-175.5548379999999895
11
90.9208670000000012
21
-173.5548379999999895
0
LINE
8
BLACK
6
CONTINUOUS
10
91.7780099999999948
20
-175.5548379999999895
11
91.7780099999999948
21
-174.5072189999999921
0
LINE
8
BLACK
6
CONTINUOUS
10
91.7780099999999948
20
-174.5072189999999921
11
91.6827719999999999
21
-174.316742000000005
0
LINE
8
BLACK
6
CONTINUOUS
10
91.6827719999999999
20
-174.316742000000005
11
91.4922959999999961
21
-174.2215039999999817
0
LINE
8
BLACK
6
CONTINUOUS
10
91.4922959999999961
20
-174.2215039999999817
11
91.2065809999999999
21
-174.2215039999999817
0
LINE
8
BLACK
6
CONTINUOUS
10
91.2065809999999999
20
-174.2215039999999817
11
91.016104999999996
21
-174.316742000000005
0
LINE
8
BLACK
6
CONTINUOUS
10
91.016104999999996
20
-174.316742000000005
11
90.9208670000000012
21
-174.4119799999999998
0
LINE
8
BLACK
6
CONTINUOUS
10
93.016104999999996
20
-175.5548379999999895
11
92.8256289999999922
21
-175.4595999999999947
0
LINE
8
BLACK
6
CONTINUOUS
10
92.8256289999999922
20
-175.4595999999999947
11
92.7303909999999973
21
-175.3643610000000024
0
LINE
8
BLACK
6
CONTINUOUS
10
92.7303909999999973
20
-175.3643610000000024
11
92.6351530000000025
21
-175.1738849999999843
0
LINE
8
BLACK
6
CONTINUOUS
10
92.6351530000000025
20
-175.1738849999999843
11
92.6351530000000025
21
-174.6024569999999869
0
LINE
8
BLACK
6
CONTINUOUS
10
92.6351530000000025
20
-174.6024569999999869
11
92.7303909999999973
21
-174.4119799999999998
0
LINE
8
BLACK
6
CONTINUOUS
10
92.7303909999999973
20
-174.4119799999999998
11
92.8256289999999922
21
-174.316742000000005
0
LINE
8
BLACK
6
CONTINUOUS
10
92.8256289999999922
20
-174.316742000000005
11
93.016104999999996
21
-174.2215039999999817
0
LINE
8
BLACK
6
CONTINUOUS
10
93.016104999999996
20
-174.2215039999999817
11
93.3018199999999922
21
-174.2215039999999817
0
LINE
8
BLACK
6
CONTINUOUS
10
93.3018199999999922
20
-174.2215039999999817
11
93.4922959999999961
21
-174.316742000000005
0
LINE
8
BLACK
6
CONTINUOUS
10
93.4922959999999961
20
-174.316742000000005
11
93.5875339999999909
21
-174.4119799999999998
0
LINE
8
BLACK
6
CONTINUOUS
10
93.5875339999999909
20
-174.4119799999999998
11
93.6827719999999999
21
-174.6024569999999869
0
LINE
8
BLACK
6
CONTINUOUS
10
93.6827719999999999
20
-174.6024569999999869
11
93.6827719999999999
21
-175.1738849999999843
0
LINE
8
BLACK
6
CONTINUOUS
10
93.6827719999999999
20
-175.1738849999999843
11
93.5875339999999909
21
-175.3643610000000024
0
LINE
8
BLACK
6
CONTINUOUS
10
93.5875339999999909
20
-175.3643610000000024
11
93.4922959999999961
21
-175.4595999999999947
0
LINE
8
BLACK
6
CONTINUOUS
10
93.4922959999999961
20
-175.4595999999999947
11
93.3018199999999922
21
-175.5548379999999895
0
LINE
8
BLACK
6
CONTINUOUS
10
93.3018199999999922
20
-175.5548379999999895
11
93.016104999999996
21
-175.5548379999999895
0
LINE
8
BLACK
6
CONTINUOUS
10
94.8256289999999922
20
-175.5548379999999895
11
94.6351530000000025
21
-175.4595999999999947
0
LINE
8
BLACK
6
CONTINUOUS
10
94.6351530000000025
20
-175.4595999999999947
11
94.5399149999999935
21
-175.2691229999999791
0
LINE
8
BLACK
6
CONTINUOUS
10
94.5399149999999935
20
-175.2691229999999791
11
94.5399149999999935
21
-173.5548379999999895
0
LINE
8
BLACK
6
CONTINUOUS
10
96.3494389999999896
20
-175.4595999999999947
11
96.158963
21
-175.5548379999999895
0
LINE
8
BLACK
6
CONTINUOUS
10
96.158963
20
-175.5548379999999895
11
95.7780099999999948
21
-175.5548379999999895
0
LINE
8
BLACK
6
CONTINUOUS
10
95.7780099999999948
20
-175.5548379999999895
11
95.5875339999999909
21
-175.4595999999999947
0
LINE
8
BLACK
6
CONTINUOUS
10
95.5875339999999909
20
-175.4595999999999947
11
95.4922959999999961
21
-175.2691229999999791
0
LINE
8
BLACK
6
CONTINUOUS
10
95.4922959999999961
20
-175.2691229999999791
11
95.4922959999999961
21
-174.5072189999999921
0
LINE
8
BLACK
6
CONTINUOUS
10
95.4922959999999961
20
-174.5072189999999921
11
95.5875339999999909
21
-174.316742000000005
0
LINE
8
BLACK
6
CONTINUOUS
10
95.5875339999999909
20
-174.316742000000005
11
95.7780099999999948
21
-174.2215039999999817
0
LINE
8
BLACK
6
CONTINUOUS
10
95.7780099999999948
20
-174.2215039999999817
11
96.158963
21
-174.2215039999999817
0
LINE
8
BLACK
6
CONTINUOUS
10
96.158963
20
-174.2215039999999817
11
96.3494389999999896
21
-174.316742000000005
0
LINE
8
BLACK
6
CONTINUOUS
10
96.3494389999999896
20
-174.316742000000005
11
96.4446769999999987
21
-174.5072189999999921
0
LINE
8
BLACK
6
CONTINUOUS
10
96.4446769999999987
20
-174.5072189999999921
11
96.4446769999999987
21
-174.6976949999999817
0
LINE
8
BLACK
6
CONTINUOUS
10
96.4446769999999987
20
-174.6976949999999817
11
95.4922959999999961
21
-174.8881709999999998
0
LINE
8
BLACK
6
CONTINUOUS
10
97.2065819999999974
20
-175.4595999999999947
11
97.3970580000000012
21
-175.5548379999999895
0
LINE
8
BLACK
6
CONTINUOUS
10
97.3970580000000012
20
-175.5548379999999895
11
97.7780099999999948
21
-175.5548379999999895
0
LINE
8
BLACK
6
CONTINUOUS
10
97.7780099999999948
20
-175.5548379999999895
11
97.9684869999999961
21
-175.4595999999999947
0
LINE
8
BLACK
6
CONTINUOUS
10
97.9684869999999961
20
-175.4595999999999947
11
98.0637249999999909
21
-175.2691229999999791
0
LINE
8
BLACK
6
CONTINUOUS
10
98.0637249999999909
20
-175.2691229999999791
11
98.0637249999999909
21
-175.1738849999999843
0
LINE
8
BLACK
6
CONTINUOUS
10
98.0637249999999909
20
-175.1738849999999843
11
97.9684869999999961
21
-174.9834089999999946
0
LINE
8
BLACK
6
CONTINUOUS
10
97.9684869999999961
20
-174.9834089999999946
11
97.7780099999999948
21
-174.8881709999999998
0
LINE
8
BLACK
6
CONTINUOUS
10
97.7780099999999948
20
-174.8881709999999998
11
97.4922959999999961
21
-174.8881709999999998
0
LINE
8
BLACK
6
CONTINUOUS
10
97.4922959999999961
20
-174.8881709999999998
11
97.3018199999999922
21
-174.792933000000005
0
LINE
8
BLACK
6
CONTINUOUS
10
97.3018199999999922
20
-174.792933000000005
11
97.2065819999999974
21
-174.6024569999999869
0
LINE
8
BLACK
6
CONTINUOUS
10
97.2065819999999974
20
-174.6024569999999869
11
97.2065819999999974
21
-174.5072189999999921
0
LINE
8
BLACK
6
CONTINUOUS
10
97.2065819999999974
20
-174.5072189999999921
11
97.3018199999999922
21
-174.316742000000005
0
LINE
8
BLACK
6
CONTINUOUS
10
97.3018199999999922
20
-174.316742000000005
11
97.4922959999999961
21
-174.2215039999999817
0
LINE
8
BLACK
6
CONTINUOUS
10
97.4922959999999961
20
-174.2215039999999817
11
97.7780099999999948
21
-174.2215039999999817
0
LINE
8
BLACK
6
CONTINUOUS
10
97.7780099999999948
20
-174.2215039999999817
11
97.9684869999999961
21
-174.316742000000005
0
LINE
8
BLACK
6
CONTINUOUS
10
100.4446779999999961
20
-174.792933000000005
11
101.9684879999999936
21
-174.792933000000005
0
LINE
8
BLACK
6
CONTINUOUS
10
101.2065829999999949
20
-175.5548379999999895
11
101.2065829999999949
21
-174.0310279999999921
0
LINE
8
BLACK
6
CONTINUOUS
10
104.2542019999999923
20
-173.5548379999999895
11
105.4922969999999935
21
-173.5548379999999895
0
LINE
8
BLACK
6
CONTINUOUS
10
105.4922969999999935
20
-173.5548379999999895
11
104.8256299999999896
21
-174.316742000000005
0
LINE
8
BLACK
6
CONTINUOUS
10
104.8256299999999896
20
-174.316742000000005
11
105.111345
21
-174.316742000000005
0
LINE
8
BLACK
6
CONTINUOUS
10
105.111345
20
-174.316742000000005
11
105.3018209999999897
21
-174.4119799999999998
0
LINE
8
BLACK
6
CONTINUOUS
10
105.3018209999999897
20
-174.4119799999999998
11
105.3970589999999987
21
-174.5072189999999921
0
LINE
8
BLACK
6
CONTINUOUS
10
105.3970589999999987
20
-174.5072189999999921
11
105.4922969999999935
21
-174.6976949999999817
0
LINE
8
BLACK
6
CONTINUOUS
10
105.4922969999999935
20
-174.6976949999999817
11
105.4922969999999935
21
-175.1738849999999843
0
LINE
8
BLACK
6
CONTINUOUS
10
105.4922969999999935
20
-175.1738849999999843
11
105.3970589999999987
21
-175.3643610000000024
0
LINE
8
BLACK
6
CONTINUOUS
10
105.3970589999999987
20
-175.3643610000000024
11
105.3018209999999897
21
-175.4595999999999947
0
LINE
8
BLACK
6
CONTINUOUS
10
105.3018209999999897
20
-175.4595999999999947
11
105.111345
21
-175.5548379999999895
0
LINE
8
BLACK
6
CONTINUOUS
10
105.111345
20
-175.5548379999999895
11
104.539915999999991
21
-175.5548379999999895
0
LINE
8
BLACK
6
CONTINUOUS
10
104.539915999999991
20
-175.5548379999999895
11
104.3494400000000013
21
-175.4595999999999947
0
LINE
8
BLACK
6
CONTINUOUS
10
104.3494400000000013
20
-175.4595999999999947
11
104.2542019999999923
21
-175.3643610000000024
0
LINE
8
BLACK
6
CONTINUOUS
10
107.7780119999999897
20
-175.4595999999999947
11
107.9684879999999936
21
-175.5548379999999895
0
LINE
8
BLACK
6
CONTINUOUS
10
107.9684879999999936
20
-175.5548379999999895
11
108.3494400000000013
21
-175.5548379999999895
0
LINE
8
BLACK
6
CONTINUOUS
10
108.3494400000000013
20
-175.5548379999999895
11
108.5399169999999884
21
-175.4595999999999947
0
LINE
8
BLACK
6
CONTINUOUS
10
108.5399169999999884
20
-175.4595999999999947
11
108.6351549999999975
21
-175.2691229999999791
0
LINE
8
BLACK
6
CONTINUOUS
10
108.6351549999999975
20
-175.2691229999999791
11
108.6351549999999975
21
-175.1738849999999843
0
LINE
8
BLACK
6
CONTINUOUS
10
108.6351549999999975
20
-175.1738849999999843
11
108.5399169999999884
21
-174.9834089999999946
0
LINE
8
BLACK
6
CONTINUOUS
10
108.5399169999999884
20
-174.9834089999999946
11
108.3494400000000013
21
-174.8881709999999998
0
LINE
8
BLACK
6
CONTINUOUS
10
108.3494400000000013
20
-174.8881709999999998
11
108.0637259999999884
21
-174.8881709999999998
0
LINE
8
BLACK
6
CONTINUOUS
10
108.0637259999999884
20
-174.8881709999999998
11
107.8732499999999987
21
-174.792933000000005
0
LINE
8
BLACK
6
CONTINUOUS
10
107.8732499999999987
20
-174.792933000000005
11
107.7780119999999897
21
-174.6024569999999869
0
LINE
8
BLACK
6
CONTINUOUS
10
107.7780119999999897
20
-174.6024569999999869
11
107.7780119999999897
21
-174.5072189999999921
0
LINE
8
BLACK
6
CONTINUOUS
10
107.7780119999999897
20
-174.5072189999999921
11
107.8732499999999987
21
-174.316742000000005
0
LINE
8
BLACK
6
CONTINUOUS
10
107.8732499999999987
20
-174.316742000000005
11
108.0637259999999884
21
-174.2215039999999817
0
LINE
8
BLACK
6
CONTINUOUS
10
108.0637259999999884
20
-174.2215039999999817
11
108.3494400000000013
21
-174.2215039999999817
0
LINE
8
BLACK
6
CONTINUOUS
10
108.3494400000000013
20
-174.2215039999999817
11
108.5399169999999884
21
-174.316742000000005
0
LINE
8
BLACK
6
CONTINUOUS
10
109.7780119999999897
20
-175.5548379999999895
11
109.5875360000000001
21
-175.4595999999999947
0
LINE
8
BLACK
6
CONTINUOUS
10
109.5875360000000001
20
-175.4595999999999947
11
109.492297999999991
21
-175.2691229999999791
0
LINE
8
BLACK
6
CONTINUOUS
10
109.492297999999991
20
-175.2691229999999791
11
109.492297999999991
21
-173.5548379999999895
0
LINE
8
BLACK
6
CONTINUOUS
10
110.8256310000000013
20
-175.5548379999999895
11
110.6351549999999975
21
-175.4595999999999947
0
LINE
8
BLACK
6
CONTINUOUS
10
110.6351549999999975
20
-175.4595999999999947
11
110.5399169999999884
21
-175.3643610000000024
0
LINE
8
BLACK
6
CONTINUOUS
10
110.5399169999999884
20
-175.3643610000000024
11
110.4446789999999936
21
-175.1738849999999843
0
LINE
8
BLACK
6
CONTINUOUS
10
110.4446789999999936
20
-175.1738849999999843
11
110.4446789999999936
21
-174.6024569999999869
0
LINE
8
BLACK
6
CONTINUOUS
10
110.4446789999999936
20
-174.6024569999999869
11
110.5399169999999884
21
-174.4119799999999998
0
LINE
8
BLACK
6
CONTINUOUS
10
110.5399169999999884
20
-174.4119799999999998
11
110.6351549999999975
21
-174.316742000000005
0
LINE
8
BLACK
6
CONTINUOUS
10
110.6351549999999975
20
-174.316742000000005
11
110.8256310000000013
21
-174.2215039999999817
0
LINE
8
BLACK
6
CONTINUOUS
10
110.8256310000000013
20
-174.2215039999999817
11
111.1113459999999975
21
-174.2215039999999817
0
LINE
8
BLACK
6
CONTINUOUS
10
111.1113459999999975
20
-174.2215039999999817
11
111.3018220000000014
21
-174.316742000000005
0
LINE
8
BLACK
6
CONTINUOUS
10
111.3018220000000014
20
-174.316742000000005
11
111.3970599999999962
21
-174.4119799999999998
0
LINE
8
BLACK
6
CONTINUOUS
10
111.3970599999999962
20
-174.4119799999999998
11
111.492297999999991
21
-174.6024569999999869
0
LINE
8
BLACK
6
CONTINUOUS
10
111.492297999999991
20
-174.6024569999999869
11
111.492297999999991
21
-175.1738849999999843
0
LINE
8
BLACK
6
CONTINUOUS
10
111.492297999999991
20
-175.1738849999999843
11
111.3970599999999962
21
-175.3643610000000024
0
LINE
8
BLACK
6
CONTINUOUS
10
111.3970599999999962
20
-175.3643610000000024
11
111.3018220000000014
21
-175.4595999999999947
0
LINE
8
BLACK
6
CONTINUOUS
10
111.3018220000000014
20
-175.4595999999999947
11
111.1113459999999975
21
-175.5548379999999895
0
LINE
8
BLACK
6
CONTINUOUS
10
111.1113459999999975
20
-175.5548379999999895
11
110.8256310000000013
21
-175.5548379999999895
0
LINE
8
BLACK
6
CONTINUOUS
10
112.0637270000000001
20
-174.2215039999999817
11
112.8256310000000013
21
-174.2215039999999817
0
LINE
8
BLACK
6
CONTINUOUS
10
112.3494409999999988
20
-173.5548379999999895
11
112.3494409999999988
21
-175.2691229999999791
0
LINE
8
BLACK
6
CONTINUOUS
10
112.3494409999999988
20
-175.2691229999999791
11
112.4446789999999936
21
-175.4595999999999947
0
LINE
8
BLACK
6
CONTINUOUS
10
112.4446789999999936
20
-175.4595999999999947
11
112.6351549999999975
21
-175.5548379999999895
0
LINE
8
BLACK
6
CONTINUOUS
10
112.6351549999999975
20
-175.5548379999999895
11
112.8256310000000013
21
-175.5548379999999895
0
LINE
8
BLACK
6
CONTINUOUS
10
113.3970599999999962
20
-175.4595999999999947
11
113.5875360000000001
21
-175.5548379999999895
0
LINE
8
BLACK
6
CONTINUOUS
10
113.5875360000000001
20
-175.5548379999999895
11
113.9684879999999936
21
-175.5548379999999895
0
LINE
8
BLACK
6
CONTINUOUS
10
113.9684879999999936
20
-175.5548379999999895
11
114.1589649999999949
21
-175.4595999999999947
0
LINE
8
BLACK
6
CONTINUOUS
10
114.1589649999999949
20
-175.4595999999999947
11
114.2542029999999897
21
-175.2691229999999791
0
LINE
8
BLACK
6
CONTINUOUS
10
114.2542029999999897
20
-175.2691229999999791
11
114.2542029999999897
21
-175.1738849999999843
0
LINE
8
BLACK
6
CONTINUOUS
10
114.2542029999999897
20
-175.1738849999999843
11
114.1589649999999949
21
-174.9834089999999946
0
LINE
8
BLACK
6
CONTINUOUS
10
114.1589649999999949
20
-174.9834089999999946
11
113.9684879999999936
21
-174.8881709999999998
0
LINE
8
BLACK
6
CONTINUOUS
10
113.9684879999999936
20
-174.8881709999999998
11
113.6827739999999949
21
-174.8881709999999998
0
LINE
8
BLACK
6
CONTINUOUS
10
113.6827739999999949
20
-174.8881709999999998
11
113.492297999999991
21
-174.792933000000005
0
LINE
8
BLACK
6
CONTINUOUS
10
113.492297999999991
20
-174.792933000000005
11
113.3970599999999962
21
-174.6024569999999869
0
LINE
8
BLACK
6
CONTINUOUS
10
113.3970599999999962
20
-174.6024569999999869
11
113.3970599999999962
21
-174.5072189999999921
0
LINE
8
BLACK
6
CONTINUOUS
10
113.3970599999999962
20
-174.5072189999999921
11
113.492297999999991
21
-174.316742000000005
0
LINE
8
BLACK
6
CONTINUOUS
10
113.492297999999991
20
-174.316742000000005
11
113.6827739999999949
21
-174.2215039999999817
0
LINE
8
BLACK
6
CONTINUOUS
10
113.6827739999999949
20
-174.2215039999999817
11
113.9684879999999936
21
-174.2215039999999817
0
LINE
8
BLACK
6
CONTINUOUS
10
113.9684879999999936
20
-174.2215039999999817
11
114.1589649999999949
21
-174.316742000000005
0
LINE
8
BLACK
6
CONTINUOUS
10
114.9208699999999936
20
-176.316742000000005
11
115.0161079999999885
21
-176.2215039999999817
0
LINE
8
BLACK
6
CONTINUOUS
10
115.0161079999999885
20
-176.2215039999999817
11
115.2065839999999923
21
-175.9357899999999972
0
LINE
8
BLACK
6
CONTINUOUS
10
115.2065839999999923
20
-175.9357899999999972
11
115.3018220000000014
21
-175.7453139999999792
0
LINE
8
BLACK
6
CONTINUOUS
10
115.3018220000000014
20
-175.7453139999999792
11
115.3970599999999962
21
-175.4595999999999947
0
LINE
8
BLACK
6
CONTINUOUS
10
115.3970599999999962
20
-175.4595999999999947
11
115.492297999999991
21
-174.9834089999999946
0
LINE
8
BLACK
6
CONTINUOUS
10
115.492297999999991
20
-174.9834089999999946
11
115.492297999999991
21
-174.6024569999999869
0
LINE
8
BLACK
6
CONTINUOUS
10
115.492297999999991
20
-174.6024569999999869
11
115.3970599999999962
21
-174.1262659999999869
0
LINE
8
BLACK
6
CONTINUOUS
10
115.3970599999999962
20
-174.1262659999999869
11
115.3018220000000014
21
-173.8405520000000024
0
LINE
8
BLACK
6
CONTINUOUS
10
115.3018220000000014
20
-173.8405520000000024
11
115.2065839999999923
21
-173.6500759999999843
0
LINE
8
BLACK
6
CONTINUOUS
10
115.2065839999999923
20
-173.6500759999999843
11
115.0161079999999885
21
-173.3643610000000024
0
LINE
8
BLACK
6
CONTINUOUS
10
115.0161079999999885
20
-173.3643610000000024
11
114.9208699999999936
21
-173.2691229999999791
0
LINE
8
BLACK
6
CONTINUOUS
10
48.5670000000000002
20
-176.7719999999999914
11
48.5670000000000002
21
-177.7879999999999825
0
LINE
8
BLACK
6
CONTINUOUS
10
48.0589999999999975
20
-177.2800000000000011
11
49.0749999999999957
21
-177.2800000000000011
0
LINE
8
BLACK
6
CONTINUOUS
10
52.7303870000000003
20
-178.1948380000000043
11
51.587530000000001
21
-178.1948380000000043
0
LINE
8
BLACK
6
CONTINUOUS
10
52.1589579999999984
20
-178.1948380000000043
11
52.1589579999999984
21
-176.1948380000000043
0
LINE
8
BLACK
6
CONTINUOUS
10
52.1589579999999984
20
-176.1948380000000043
11
51.9684819999999945
21
-176.4805519999999888
0
LINE
8
BLACK
6
CONTINUOUS
10
51.9684819999999945
20
-176.4805519999999888
11
51.7780059999999978
21
-176.6710279999999784
0
LINE
8
BLACK
6
CONTINUOUS
10
51.7780059999999978
20
-176.6710279999999784
11
51.587530000000001
21
-176.7662660000000017
0
LINE
8
BLACK
6
CONTINUOUS
10
53.587530000000001
20
-178.0043609999999887
11
53.6827679999999958
21
-178.099599999999981
0
LINE
8
BLACK
6
CONTINUOUS
10
53.6827679999999958
20
-178.099599999999981
11
53.587530000000001
21
-178.1948380000000043
0
LINE
8
BLACK
6
CONTINUOUS
10
53.587530000000001
20
-178.1948380000000043
11
53.4922919999999991
21
-178.099599999999981
0
LINE
8
BLACK
6
CONTINUOUS
10
53.4922919999999991
20
-178.099599999999981
11
53.587530000000001
21
-178.0043609999999887
0
LINE
8
BLACK
6
CONTINUOUS
10
53.587530000000001
20
-178.0043609999999887
11
53.587530000000001
21
-178.1948380000000043
0
LINE
8
BLACK
6
CONTINUOUS
10
54.9208629999999971
20
-176.1948380000000043
11
55.1113399999999984
21
-176.1948380000000043
0
LINE
8
BLACK
6
CONTINUOUS
10
55.1113399999999984
20
-176.1948380000000043
11
55.3018159999999952
21
-176.2900759999999991
0
LINE
8
BLACK
6
CONTINUOUS
10
55.3018159999999952
20
-176.2900759999999991
11
55.3970539999999971
21
-176.3853139999999939
0
LINE
8
BLACK
6
CONTINUOUS
10
55.3970539999999971
20
-176.3853139999999939
11
55.4922919999999991
21
-176.5757899999999836
0
LINE
8
BLACK
6
CONTINUOUS
10
55.4922919999999991
20
-176.5757899999999836
11
55.587530000000001
21
-176.9567419999999913
0
LINE
8
BLACK
6
CONTINUOUS
10
55.587530000000001
20
-176.9567419999999913
11
55.587530000000001
21
-177.4329329999999914
0
LINE
8
BLACK
6
CONTINUOUS
10
55.587530000000001
20
-177.4329329999999914
11
55.4922919999999991
21
-177.8138849999999991
0
LINE
8
BLACK
6
CONTINUOUS
10
55.4922919999999991
20
-177.8138849999999991
11
55.3970539999999971
21
-178.0043609999999887
0
LINE
8
BLACK
6
CONTINUOUS
10
55.3970539999999971
20
-178.0043609999999887
11
55.3018159999999952
21
-178.099599999999981
0
LINE
8
BLACK
6
CONTINUOUS
10
55.3018159999999952
20
-178.099599999999981
11
55.1113399999999984
21
-178.1948380000000043
0
LINE
8
BLACK
6
CONTINUOUS
10
55.1113399999999984
20
-178.1948380000000043
11
54.9208629999999971
21
-178.1948380000000043
0
LINE
8
BLACK
6
CONTINUOUS
10
54.9208629999999971
20
-178.1948380000000043
11
54.7303870000000003
21
-178.099599999999981
0
LINE
8
BLACK
6
CONTINUOUS
10
54.7303870000000003
20
-178.099599999999981
11
54.6351489999999984
21
-178.0043609999999887
0
LINE
8
BLACK
6
CONTINUOUS
10
54.6351489999999984
20
-178.0043609999999887
11
54.5399109999999965
21
-177.8138849999999991
0
LINE
8
BLACK
6
CONTINUOUS
10
54.5399109999999965
20
-177.8138849999999991
11
54.4446729999999945
21
-177.4329329999999914
0
LINE
8
BLACK
6
CONTINUOUS
10
54.4446729999999945
20
-177.4329329999999914
11
54.4446729999999945
21
-176.9567419999999913
0
LINE
8
BLACK
6
CONTINUOUS
10
54.4446729999999945
20
-176.9567419999999913
11
54.5399109999999965
21
-176.5757899999999836
0
LINE
8
BLACK
6
CONTINUOUS
10
54.5399109999999965
20
-176.5757899999999836
11
54.6351489999999984
21
-176.3853139999999939
0
LINE
8
BLACK
6
CONTINUOUS
10
54.6351489999999984
20
-176.3853139999999939
11
54.7303870000000003
21
-176.2900759999999991
0
LINE
8
BLACK
6
CONTINUOUS
10
54.7303870000000003
20
-176.2900759999999991
11
54.9208629999999971
21
-176.1948380000000043
0
LINE
8
BLACK
6
CONTINUOUS
10
57.4922919999999991
20
-178.1948380000000043
11
56.3494349999999997
21
-178.1948380000000043
0
LINE
8
BLACK
6
CONTINUOUS
10
56.9208629999999971
20
-178.1948380000000043
11
56.9208629999999971
21
-176.1948380000000043
0
LINE
8
BLACK
6
CONTINUOUS
10
56.9208629999999971
20
-176.1948380000000043
11
56.7303870000000003
21
-176.4805519999999888
0
LINE
8
BLACK
6
CONTINUOUS
10
56.7303870000000003
20
-176.4805519999999888
11
56.5399109999999965
21
-176.6710279999999784
0
LINE
8
BLACK
6
CONTINUOUS
10
56.5399109999999965
20
-176.6710279999999784
11
56.3494349999999997
21
-176.7662660000000017
0
LINE
8
BLACK
6
CONTINUOUS
10
59.2065780000000004
20
-176.1948380000000043
11
58.8256249999999952
21
-176.1948380000000043
0
LINE
8
BLACK
6
CONTINUOUS
10
58.8256249999999952
20
-176.1948380000000043
11
58.6351489999999984
21
-176.2900759999999991
0
LINE
8
BLACK
6
CONTINUOUS
10
58.6351489999999984
20
-176.2900759999999991
11
58.5399109999999965
21
-176.3853139999999939
0
LINE
8
BLACK
6
CONTINUOUS
10
58.5399109999999965
20
-176.3853139999999939
11
58.3494349999999997
21
-176.6710279999999784
0
LINE
8
BLACK
6
CONTINUOUS
10
58.3494349999999997
20
-176.6710279999999784
11
58.2541969999999978
21
-177.0519799999999861
0
LINE
8
BLACK
6
CONTINUOUS
10
58.2541969999999978
20
-177.0519799999999861
11
58.2541969999999978
21
-177.8138849999999991
0
LINE
8
BLACK
6
CONTINUOUS
10
58.2541969999999978
20
-177.8138849999999991
11
58.3494349999999997
21
-178.0043609999999887
0
LINE
8
BLACK
6
CONTINUOUS
10
58.3494349999999997
20
-178.0043609999999887
11
58.4446729999999945
21
-178.099599999999981
0
LINE
8
BLACK
6
CONTINUOUS
10
58.4446729999999945
20
-178.099599999999981
11
58.6351489999999984
21
-178.1948380000000043
0
LINE
8
BLACK
6
CONTINUOUS
10
58.6351489999999984
20
-178.1948380000000043
11
59.0161019999999965
21
-178.1948380000000043
0
LINE
8
BLACK
6
CONTINUOUS
10
59.0161019999999965
20
-178.1948380000000043
11
59.2065780000000004
21
-178.099599999999981
0
LINE
8
BLACK
6
CONTINUOUS
10
59.2065780000000004
20
-178.099599999999981
11
59.3018159999999952
21
-178.0043609999999887
0
LINE
8
BLACK
6
CONTINUOUS
10
59.3018159999999952
20
-178.0043609999999887
11
59.3970539999999971
21
-177.8138849999999991
0
LINE
8
BLACK
6
CONTINUOUS
10
59.3970539999999971
20
-177.8138849999999991
11
59.3970539999999971
21
-177.3376949999999965
0
LINE
8
BLACK
6
CONTINUOUS
10
59.3970539999999971
20
-177.3376949999999965
11
59.3018159999999952
21
-177.1472189999999785
0
LINE
8
BLACK
6
CONTINUOUS
10
59.3018159999999952
20
-177.1472189999999785
11
59.2065780000000004
21
-177.0519799999999861
0
LINE
8
BLACK
6
CONTINUOUS
10
59.2065780000000004
20
-177.0519799999999861
11
59.0161019999999965
21
-176.9567419999999913
0
LINE
8
BLACK
6
CONTINUOUS
10
59.0161019999999965
20
-176.9567419999999913
11
58.6351489999999984
21
-176.9567419999999913
0
LINE
8
BLACK
6
CONTINUOUS
10
58.6351489999999984
20
-176.9567419999999913
11
58.4446729999999945
21
-177.0519799999999861
0
LINE
8
BLACK
6
CONTINUOUS
10
58.4446729999999945
20
-177.0519799999999861
11
58.3494349999999997
21
-177.1472189999999785
0
LINE
8
BLACK
6
CONTINUOUS
10
58.3494349999999997
20
-177.1472189999999785
11
58.2541969999999978
21
-177.3376949999999965
0
LINE
8
BLACK
6
CONTINUOUS
10
60.2541969999999978
20
-178.1948380000000043
11
60.2541969999999978
21
-176.8615039999999965
0
LINE
8
BLACK
6
CONTINUOUS
10
60.2541969999999978
20
-177.0519799999999861
11
60.3494349999999997
21
-176.9567419999999913
0
LINE
8
BLACK
6
CONTINUOUS
10
60.3494349999999997
20
-176.9567419999999913
11
60.5399109999999965
21
-176.8615039999999965
0
LINE
8
BLACK
6
CONTINUOUS
10
60.5399109999999965
20
-176.8615039999999965
11
60.8256259999999997
21
-176.8615039999999965
0
LINE
8
BLACK
6
CONTINUOUS
10
60.8256259999999997
20
-176.8615039999999965
11
61.0161019999999965
21
-176.9567419999999913
0
LINE
8
BLACK
6
CONTINUOUS
10
61.0161019999999965
20
-176.9567419999999913
11
61.1113399999999984
21
-177.1472189999999785
0
LINE
8
BLACK
6
CONTINUOUS
10
61.1113399999999984
20
-177.1472189999999785
11
61.1113399999999984
21
-178.1948380000000043
0
LINE
8
BLACK
6
CONTINUOUS
10
61.1113399999999984
20
-177.1472189999999785
11
61.2065780000000004
21
-176.9567419999999913
0
LINE
8
BLACK
6
CONTINUOUS
10
61.2065780000000004
20
-176.9567419999999913
11
61.3970539999999971
21
-176.8615039999999965
0
LINE
8
BLACK
6
CONTINUOUS
10
61.3970539999999971
20
-176.8615039999999965
11
61.6827679999999958
21
-176.8615039999999965
0
LINE
8
BLACK
6
CONTINUOUS
10
61.6827679999999958
20
-176.8615039999999965
11
61.8732449999999972
21
-176.9567419999999913
0
LINE
8
BLACK
6
CONTINUOUS
10
61.8732449999999972
20
-176.9567419999999913
11
61.9684829999999991
21
-177.1472189999999785
0
LINE
8
BLACK
6
CONTINUOUS
10
61.9684829999999991
20
-177.1472189999999785
11
61.9684829999999991
21
-178.1948380000000043
0
LINE
8
BLACK
6
CONTINUOUS
10
62.9208639999999946
20
-178.1948380000000043
11
62.9208639999999946
21
-176.8615039999999965
0
LINE
8
BLACK
6
CONTINUOUS
10
62.9208639999999946
20
-177.0519799999999861
11
63.0161019999999965
21
-176.9567419999999913
0
LINE
8
BLACK
6
CONTINUOUS
10
63.0161019999999965
20
-176.9567419999999913
11
63.2065780000000004
21
-176.8615039999999965
0
LINE
8
BLACK
6
CONTINUOUS
10
63.2065780000000004
20
-176.8615039999999965
11
63.4922929999999965
21
-176.8615039999999965
0
LINE
8
BLACK
6
CONTINUOUS
10
63.4922929999999965
20
-176.8615039999999965
11
63.6827690000000004
21
-176.9567419999999913
0
LINE
8
BLACK
6
CONTINUOUS
10
63.6827690000000004
20
-176.9567419999999913
11
63.7780069999999952
21
-177.1472189999999785
0
LINE
8
BLACK
6
CONTINUOUS
10
63.7780069999999952
20
-177.1472189999999785
11
63.7780069999999952
21
-178.1948380000000043
0
LINE
8
BLACK
6
CONTINUOUS
10
63.7780069999999952
20
-177.1472189999999785
11
63.8732449999999972
21
-176.9567419999999913
0
LINE
8
BLACK
6
CONTINUOUS
10
63.8732449999999972
20
-176.9567419999999913
11
64.063721000000001
21
-176.8615039999999965
0
LINE
8
BLACK
6
CONTINUOUS
10
64.063721000000001
20
-176.8615039999999965
11
64.3494349999999997
21
-176.8615039999999965
0
LINE
8
BLACK
6
CONTINUOUS
10
64.3494349999999997
20
-176.8615039999999965
11
64.5399120000000011
21
-176.9567419999999913
0
LINE
8
BLACK
6
CONTINUOUS
10
64.5399120000000011
20
-176.9567419999999913
11
64.6351499999999959
21
-177.1472189999999785
0
LINE
8
BLACK
6
CONTINUOUS
10
64.6351499999999959
20
-177.1472189999999785
11
64.6351499999999959
21
-178.1948380000000043
0
LINE
8
BLACK
6
CONTINUOUS
10
68.5399120000000011
20
-176.099599999999981
11
66.8256269999999972
21
-178.6710279999999784
0
LINE
8
BLACK
6
CONTINUOUS
10
71.1113409999999959
20
-176.1948380000000043
11
71.3018179999999973
21
-176.1948380000000043
0
LINE
8
BLACK
6
CONTINUOUS
10
71.3018179999999973
20
-176.1948380000000043
11
71.4922940000000011
21
-176.2900759999999991
0
LINE
8
BLACK
6
CONTINUOUS
10
71.4922940000000011
20
-176.2900759999999991
11
71.5875319999999959
21
-176.3853139999999939
0
LINE
8
BLACK
6
CONTINUOUS
10
71.5875319999999959
20
-176.3853139999999939
11
71.6827699999999908
21
-176.5757899999999836
0
LINE
8
BLACK
6
CONTINUOUS
10
71.6827699999999908
20
-176.5757899999999836
11
71.7780079999999998
21
-176.9567419999999913
0
LINE
8
BLACK
6
CONTINUOUS
10
71.7780079999999998
20
-176.9567419999999913
11
71.7780079999999998
21
-177.4329329999999914
0
LINE
8
BLACK
6
CONTINUOUS
10
71.7780079999999998
20
-177.4329329999999914
11
71.6827699999999908
21
-177.8138849999999991
0
LINE
8
BLACK
6
CONTINUOUS
10
71.6827699999999908
20
-177.8138849999999991
11
71.5875319999999959
21
-178.0043609999999887
0
LINE
8
BLACK
6
CONTINUOUS
10
71.5875319999999959
20
-178.0043609999999887
11
71.4922940000000011
21
-178.099599999999981
0
LINE
8
BLACK
6
CONTINUOUS
10
71.4922940000000011
20
-178.099599999999981
11
71.3018179999999973
21
-178.1948380000000043
0
LINE
8
BLACK
6
CONTINUOUS
10
71.3018179999999973
20
-178.1948380000000043
11
71.1113409999999959
21
-178.1948380000000043
0
LINE
8
BLACK
6
CONTINUOUS
10
71.1113409999999959
20
-178.1948380000000043
11
70.9208649999999921
21
-178.099599999999981
0
LINE
8
BLACK
6
CONTINUOUS
10
70.9208649999999921
20
-178.099599999999981
11
70.8256269999999972
21
-178.0043609999999887
0
LINE
8
BLACK
6
CONTINUOUS
10
70.8256269999999972
20
-178.0043609999999887
11
70.7303890000000024
21
-177.8138849999999991
0
LINE
8
BLACK
6
CONTINUOUS
10
70.7303890000000024
20
-177.8138849999999991
11
70.6351509999999934
21
-177.4329329999999914
0
LINE
8
BLACK
6
CONTINUOUS
10
70.6351509999999934
20
-177.4329329999999914
11
70.6351509999999934
21
-176.9567419999999913
0
LINE
8
BLACK
6
CONTINUOUS
10
70.6351509999999934
20
-176.9567419999999913
11
70.7303890000000024
21
-176.5757899999999836
0
LINE
8
BLACK
6
CONTINUOUS
10
70.7303890000000024
20
-176.5757899999999836
11
70.8256269999999972
21
-176.3853139999999939
0
LINE
8
BLACK
6
CONTINUOUS
10
70.8256269999999972
20
-176.3853139999999939
11
70.9208649999999921
21
-176.2900759999999991
0
LINE
8
BLACK
6
CONTINUOUS
10
70.9208649999999921
20
-176.2900759999999991
11
71.1113409999999959
21
-176.1948380000000043
0
LINE
8
BLACK
6
CONTINUOUS
10
72.6351509999999934
20
-178.0043609999999887
11
72.7303890000000024
21
-178.099599999999981
0
LINE
8
BLACK
6
CONTINUOUS
10
72.7303890000000024
20
-178.099599999999981
11
72.6351509999999934
21
-178.1948380000000043
0
LINE
8
BLACK
6
CONTINUOUS
10
72.6351509999999934
20
-178.1948380000000043
11
72.5399129999999985
21
-178.099599999999981
0
LINE
8
BLACK
6
CONTINUOUS
10
72.5399129999999985
20
-178.099599999999981
11
72.6351509999999934
21
-178.0043609999999887
0
LINE
8
BLACK
6
CONTINUOUS
10
72.6351509999999934
20
-178.0043609999999887
11
72.6351509999999934
21
-178.1948380000000043
0
LINE
8
BLACK
6
CONTINUOUS
10
73.9684840000000037
20
-176.1948380000000043
11
74.1589609999999908
21
-176.1948380000000043
0
LINE
8
BLACK
6
CONTINUOUS
10
74.1589609999999908
20
-176.1948380000000043
11
74.3494369999999947
21
-176.2900759999999991
0
LINE
8
BLACK
6
CONTINUOUS
10
74.3494369999999947
20
-176.2900759999999991
11
74.4446750000000037
21
-176.3853139999999939
0
LINE
8
BLACK
6
CONTINUOUS
10
74.4446750000000037
20
-176.3853139999999939
11
74.5399129999999985
21
-176.5757899999999836
0
LINE
8
BLACK
6
CONTINUOUS
10
74.5399129999999985
20
-176.5757899999999836
11
74.6351509999999934
21
-176.9567419999999913
0
LINE
8
BLACK
6
CONTINUOUS
10
74.6351509999999934
20
-176.9567419999999913
11
74.6351509999999934
21
-177.4329329999999914
0
LINE
8
BLACK
6
CONTINUOUS
10
74.6351509999999934
20
-177.4329329999999914
11
74.5399129999999985
21
-177.8138849999999991
0
LINE
8
BLACK
6
CONTINUOUS
10
74.5399129999999985
20
-177.8138849999999991
11
74.4446750000000037
21
-178.0043609999999887
0
LINE
8
BLACK
6
CONTINUOUS
10
74.4446750000000037
20
-178.0043609999999887
11
74.3494369999999947
21
-178.099599999999981
0
LINE
8
BLACK
6
CONTINUOUS
10
74.3494369999999947
20
-178.099599999999981
11
74.1589609999999908
21
-178.1948380000000043
0
LINE
8
BLACK
6
CONTINUOUS
10
74.1589609999999908
20
-178.1948380000000043
11
73.9684840000000037
21
-178.1948380000000043
0
LINE
8
BLACK
6
CONTINUOUS
10
73.9684840000000037
20
-178.1948380000000043
11
73.7780079999999998
21
-178.099599999999981
0
LINE
8
BLACK
6
CONTINUOUS
10
73.7780079999999998
20
-178.099599999999981
11
73.6827699999999908
21
-178.0043609999999887
0
LINE
8
BLACK
6
CONTINUOUS
10
73.6827699999999908
20
-178.0043609999999887
11
73.5875319999999959
21
-177.8138849999999991
0
LINE
8
BLACK
6
CONTINUOUS
10
73.5875319999999959
20
-177.8138849999999991
11
73.4922940000000011
21
-177.4329329999999914
0
LINE
8
BLACK
6
CONTINUOUS
10
73.4922940000000011
20
-177.4329329999999914
11
73.4922940000000011
21
-176.9567419999999913
0
LINE
8
BLACK
6
CONTINUOUS
10
73.4922940000000011
20
-176.9567419999999913
11
73.5875319999999959
21
-176.5757899999999836
0
LINE
8
BLACK
6
CONTINUOUS
10
73.5875319999999959
20
-176.5757899999999836
11
73.6827699999999908
21
-176.3853139999999939
0
LINE
8
BLACK
6
CONTINUOUS
10
73.6827699999999908
20
-176.3853139999999939
11
73.7780079999999998
21
-176.2900759999999991
0
LINE
8
BLACK
6
CONTINUOUS
10
73.7780079999999998
20
-176.2900759999999991
11
73.9684840000000037
21
-176.1948380000000043
0
LINE
8
BLACK
6
CONTINUOUS
10
76.3494369999999947
20
-176.8615039999999965
11
76.3494369999999947
21
-178.1948380000000043
0
LINE
8
BLACK
6
CONTINUOUS
10
75.8732459999999946
20
-176.099599999999981
11
75.3970559999999921
21
-177.5281709999999862
0
LINE
8
BLACK
6
CONTINUOUS
10
75.3970559999999921
20
-177.5281709999999862
11
76.6351509999999934
21
-177.5281709999999862
0
LINE
8
BLACK
6
CONTINUOUS
10
77.7780079999999998
20
-176.1948380000000043
11
77.9684850000000012
21
-176.1948380000000043
0
LINE
8
BLACK
6
CONTINUOUS
10
77.9684850000000012
20
-176.1948380000000043
11
78.1589609999999908
21
-176.2900759999999991
0
LINE
8
BLACK
6
CONTINUOUS
10
78.1589609999999908
20
-176.2900759999999991
11
78.2541989999999998
21
-176.3853139999999939
0
LINE
8
BLACK
6
CONTINUOUS
10
78.2541989999999998
20
-176.3853139999999939
11
78.3494369999999947
21
-176.5757899999999836
0
LINE
8
BLACK
6
CONTINUOUS
10
78.3494369999999947
20
-176.5757899999999836
11
78.4446749999999895
21
-176.9567419999999913
0
LINE
8
BLACK
6
CONTINUOUS
10
78.4446749999999895
20
-176.9567419999999913
11
78.4446749999999895
21
-177.4329329999999914
0
LINE
8
BLACK
6
CONTINUOUS
10
78.4446749999999895
20
-177.4329329999999914
11
78.3494369999999947
21
-177.8138849999999991
0
LINE
8
BLACK
6
CONTINUOUS
10
78.3494369999999947
20
-177.8138849999999991
11
78.2541989999999998
21
-178.0043609999999887
0
LINE
8
BLACK
6
CONTINUOUS
10
78.2541989999999998
20
-178.0043609999999887
11
78.1589609999999908
21
-178.099599999999981
0
LINE
8
BLACK
6
CONTINUOUS
10
78.1589609999999908
20
-178.099599999999981
11
77.9684850000000012
21
-178.1948380000000043
0
LINE
8
BLACK
6
CONTINUOUS
10
77.9684850000000012
20
-178.1948380000000043
11
77.7780079999999998
21
-178.1948380000000043
0
LINE
8
BLACK
6
CONTINUOUS
10
77.7780079999999998
20
-178.1948380000000043
11
77.5875319999999959
21
-178.099599999999981
0
LINE
8
BLACK
6
CONTINUOUS
10
77.5875319999999959
20
-178.099599999999981
11
77.4922940000000011
21
-178.0043609999999887
0
LINE
8
BLACK
6
CONTINUOUS
10
77.4922940000000011
20
-178.0043609999999887
11
77.3970559999999921
21
-177.8138849999999991
0
LINE
8
BLACK
6
CONTINUOUS
10
77.3970559999999921
20
-177.8138849999999991
11
77.3018179999999973
21
-177.4329329999999914
0
LINE
8
BLACK
6
CONTINUOUS
10
77.3018179999999973
20
-177.4329329999999914
11
77.3018179999999973
21
-176.9567419999999913
0
LINE
8
BLACK
6
CONTINUOUS
10
77.3018179999999973
20
-176.9567419999999913
11
77.3970559999999921
21
-176.5757899999999836
0
LINE
8
BLACK
6
CONTINUOUS
10
77.3970559999999921
20
-176.5757899999999836
11
77.4922940000000011
21
-176.3853139999999939
0
LINE
8
BLACK
6
CONTINUOUS
10
77.4922940000000011
20
-176.3853139999999939
11
77.5875319999999959
21
-176.2900759999999991
0
LINE
8
BLACK
6
CONTINUOUS
10
77.5875319999999959
20
-176.2900759999999991
11
77.7780079999999998
21
-176.1948380000000043
0
LINE
8
BLACK
6
CONTINUOUS
10
79.6827699999999908
20
-176.1948380000000043
11
79.8732469999999921
21
-176.1948380000000043
0
LINE
8
BLACK
6
CONTINUOUS
10
79.8732469999999921
20
-176.1948380000000043
11
80.063722999999996
21
-176.2900759999999991
0
LINE
8
BLACK
6
CONTINUOUS
10
80.063722999999996
20
-176.2900759999999991
11
80.1589609999999908
21
-176.3853139999999939
0
LINE
8
BLACK
6
CONTINUOUS
10
80.1589609999999908
20
-176.3853139999999939
11
80.2541989999999998
21
-176.5757899999999836
0
LINE
8
BLACK
6
CONTINUOUS
10
80.2541989999999998
20
-176.5757899999999836
11
80.3494369999999947
21
-176.9567419999999913
0
LINE
8
BLACK
6
CONTINUOUS
10
80.3494369999999947
20
-176.9567419999999913
11
80.3494369999999947
21
-177.4329329999999914
0
LINE
8
BLACK
6
CONTINUOUS
10
80.3494369999999947
20
-177.4329329999999914
11
80.2541989999999998
21
-177.8138849999999991
0
LINE
8
BLACK
6
CONTINUOUS
10
80.2541989999999998
20
-177.8138849999999991
11
80.1589609999999908
21
-178.0043609999999887
0
LINE
8
BLACK
6
CONTINUOUS
10
80.1589609999999908
20
-178.0043609999999887
11
80.063722999999996
21
-178.099599999999981
0
LINE
8
BLACK
6
CONTINUOUS
10
80.063722999999996
20
-178.099599999999981
11
79.8732469999999921
21
-178.1948380000000043
0
LINE
8
BLACK
6
CONTINUOUS
10
79.8732469999999921
20
-178.1948380000000043
11
79.6827699999999908
21
-178.1948380000000043
0
LINE
8
BLACK
6
CONTINUOUS
10
79.6827699999999908
20
-178.1948380000000043
11
79.4922940000000011
21
-178.099599999999981
0
LINE
8
BLACK
6
CONTINUOUS
10
79.4922940000000011
20
-178.099599999999981
11
79.3970559999999921
21
-178.0043609999999887
0
LINE
8
BLACK
6
CONTINUOUS
10
79.3970559999999921
20
-178.0043609999999887
11
79.3018179999999973
21
-177.8138849999999991
0
LINE
8
BLACK
6
CONTINUOUS
10
79.3018179999999973
20
-177.8138849999999991
11
79.2065800000000024
21
-177.4329329999999914
0
LINE
8
BLACK
6
CONTINUOUS
10
79.2065800000000024
20
-177.4329329999999914
11
79.2065800000000024
21
-176.9567419999999913
0
LINE
8
BLACK
6
CONTINUOUS
10
79.2065800000000024
20
-176.9567419999999913
11
79.3018179999999973
21
-176.5757899999999836
0
LINE
8
BLACK
6
CONTINUOUS
10
79.3018179999999973
20
-176.5757899999999836
11
79.3970559999999921
21
-176.3853139999999939
0
LINE
8
BLACK
6
CONTINUOUS
10
79.3970559999999921
20
-176.3853139999999939
11
79.4922940000000011
21
-176.2900759999999991
0
LINE
8
BLACK
6
CONTINUOUS
10
79.4922940000000011
20
-176.2900759999999991
11
79.6827699999999908
21
-176.1948380000000043
0
LINE
8
BLACK
6
CONTINUOUS
10
81.1113419999999934
20
-176.1948380000000043
11
81.1113419999999934
21
-176.5757899999999836
0
LINE
8
BLACK
6
CONTINUOUS
10
81.8732469999999921
20
-176.1948380000000043
11
81.8732469999999921
21
-176.5757899999999836
0
LINE
8
BLACK
6
CONTINUOUS
10
84.8256289999999922
20
-178.9567419999999913
11
84.7303899999999999
21
-178.8615039999999965
0
LINE
8
BLACK
6
CONTINUOUS
10
84.7303899999999999
20
-178.8615039999999965
11
84.539913999999996
21
-178.5757899999999836
0
LINE
8
BLACK
6
CONTINUOUS
10
84.539913999999996
20
-178.5757899999999836
11
84.4446760000000012
21
-178.3853139999999939
0
LINE
8
BLACK
6
CONTINUOUS
10
84.4446760000000012
20
-178.3853139999999939
11
84.3494379999999921
21
-178.099599999999981
0
LINE
8
BLACK
6
CONTINUOUS
10
84.3494379999999921
20
-178.099599999999981
11
84.2541999999999973
21
-177.623408999999981
0
LINE
8
BLACK
6
CONTINUOUS
10
84.2541999999999973
20
-177.623408999999981
11
84.2541999999999973
21
-177.2424570000000017
0
LINE
8
BLACK
6
CONTINUOUS
10
84.2541999999999973
20
-177.2424570000000017
11
84.3494379999999921
21
-176.7662660000000017
0
LINE
8
BLACK
6
CONTINUOUS
10
84.3494379999999921
20
-176.7662660000000017
11
84.4446760000000012
21
-176.4805519999999888
0
LINE
8
BLACK
6
CONTINUOUS
10
84.4446760000000012
20
-176.4805519999999888
11
84.539913999999996
21
-176.2900759999999991
0
LINE
8
BLACK
6
CONTINUOUS
10
84.539913999999996
20
-176.2900759999999991
11
84.7303899999999999
21
-176.0043609999999887
0
LINE
8
BLACK
6
CONTINUOUS
10
84.7303899999999999
20
-176.0043609999999887
11
84.8256289999999922
21
-175.9091229999999939
0
LINE
8
BLACK
6
CONTINUOUS
10
86.6351519999999908
20
-178.1948380000000043
11
85.4922949999999986
21
-178.1948380000000043
0
LINE
8
BLACK
6
CONTINUOUS
10
86.063722999999996
20
-178.1948380000000043
11
86.063722999999996
21
-176.1948380000000043
0
LINE
8
BLACK
6
CONTINUOUS
10
86.063722999999996
20
-176.1948380000000043
11
85.8732469999999921
21
-176.4805519999999888
0
LINE
8
BLACK
6
CONTINUOUS
10
85.8732469999999921
20
-176.4805519999999888
11
85.6827710000000025
21
-176.6710279999999784
0
LINE
8
BLACK
6
CONTINUOUS
10
85.6827710000000025
20
-176.6710279999999784
11
85.4922949999999986
21
-176.7662660000000017
0
LINE
8
BLACK
6
CONTINUOUS
10
88.3494379999999921
20
-176.1948380000000043
11
87.9684850000000012
21
-176.1948380000000043
0
LINE
8
BLACK
6
CONTINUOUS
10
87.9684850000000012
20
-176.1948380000000043
11
87.7780089999999973
21
-176.2900759999999991
0
LINE
8
BLACK
6
CONTINUOUS
10
87.7780089999999973
20
-176.2900759999999991
11
87.6827710000000025
21
-176.3853139999999939
0
LINE
8
BLACK
6
CONTINUOUS
10
87.6827710000000025
20
-176.3853139999999939
11
87.4922949999999986
21
-176.6710279999999784
0
LINE
8
BLACK
6
CONTINUOUS
10
87.4922949999999986
20
-176.6710279999999784
11
87.3970569999999896
21
-177.0519799999999861
0
LINE
8
BLACK
6
CONTINUOUS
10
87.3970569999999896
20
-177.0519799999999861
11
87.3970569999999896
21
-177.8138849999999991
0
LINE
8
BLACK
6
CONTINUOUS
10
87.3970569999999896
20
-177.8138849999999991
11
87.4922949999999986
21
-178.0043609999999887
0
LINE
8
BLACK
6
CONTINUOUS
10
87.4922949999999986
20
-178.0043609999999887
11
87.5875329999999934
21
-178.099599999999981
0
LINE
8
BLACK
6
CONTINUOUS
10
87.5875329999999934
20
-178.099599999999981
11
87.7780089999999973
21
-178.1948380000000043
0
LINE
8
BLACK
6
CONTINUOUS
10
87.7780089999999973
20
-178.1948380000000043
11
88.1589620000000025
21
-178.1948380000000043
0
LINE
8
BLACK
6
CONTINUOUS
10
88.1589620000000025
20
-178.1948380000000043
11
88.3494379999999921
21
-178.099599999999981
0
LINE
8
BLACK
6
CONTINUOUS
10
88.3494379999999921
20
-178.099599999999981
11
88.4446760000000012
21
-178.0043609999999887
0
LINE
8
BLACK
6
CONTINUOUS
10
88.4446760000000012
20
-178.0043609999999887
11
88.539913999999996
21
-177.8138849999999991
0
LINE
8
BLACK
6
CONTINUOUS
10
88.539913999999996
20
-177.8138849999999991
11
88.539913999999996
21
-177.3376949999999965
0
LINE
8
BLACK
6
CONTINUOUS
10
88.539913999999996
20
-177.3376949999999965
11
88.4446760000000012
21
-177.1472189999999785
0
LINE
8
BLACK
6
CONTINUOUS
10
88.4446760000000012
20
-177.1472189999999785
11
88.3494379999999921
21
-177.0519799999999861
0
LINE
8
BLACK
6
CONTINUOUS
10
88.3494379999999921
20
-177.0519799999999861
11
88.1589620000000025
21
-176.9567419999999913
0
LINE
8
BLACK
6
CONTINUOUS
10
88.1589620000000025
20
-176.9567419999999913
11
87.7780089999999973
21
-176.9567419999999913
0
LINE
8
BLACK
6
CONTINUOUS
10
87.7780089999999973
20
-176.9567419999999913
11
87.5875329999999934
21
-177.0519799999999861
0
LINE
8
BLACK
6
CONTINUOUS
10
87.5875329999999934
20
-177.0519799999999861
11
87.4922949999999986
21
-177.1472189999999785
0
LINE
8
BLACK
6
CONTINUOUS
10
87.4922949999999986
20
-177.1472189999999785
11
87.3970569999999896
21
-177.3376949999999965
0
LINE
8
BLACK
6
CONTINUOUS
10
90.9208670000000012
20
-178.1948380000000043
11
90.9208670000000012
21
-176.1948380000000043
0
LINE
8
BLACK
6
CONTINUOUS
10
91.7780099999999948
20
-178.1948380000000043
11
91.7780099999999948
21
-177.1472189999999785
0
LINE
8
BLACK
6
CONTINUOUS
10
91.7780099999999948
20
-177.1472189999999785
11
91.6827719999999999
21
-176.9567419999999913
0
LINE
8
BLACK
6
CONTINUOUS
10
91.6827719999999999
20
-176.9567419999999913
11
91.4922959999999961
21
-176.8615039999999965
0
LINE
8
BLACK
6
CONTINUOUS
10
91.4922959999999961
20
-176.8615039999999965
11
91.2065809999999999
21
-176.8615039999999965
0
LINE
8
BLACK
6
CONTINUOUS
10
91.2065809999999999
20
-176.8615039999999965
11
91.016104999999996
21
-176.9567419999999913
0
LINE
8
BLACK
6
CONTINUOUS
10
91.016104999999996
20
-176.9567419999999913
11
90.9208670000000012
21
-177.0519799999999861
0
LINE
8
BLACK
6
CONTINUOUS
10
93.016104999999996
20
-178.1948380000000043
11
92.8256289999999922
21
-178.099599999999981
0
LINE
8
BLACK
6
CONTINUOUS
10
92.8256289999999922
20
-178.099599999999981
11
92.7303909999999973
21
-178.0043609999999887
0
LINE
8
BLACK
6
CONTINUOUS
10
92.7303909999999973
20
-178.0043609999999887
11
92.6351530000000025
21
-177.8138849999999991
0
LINE
8
BLACK
6
CONTINUOUS
10
92.6351530000000025
20
-177.8138849999999991
11
92.6351530000000025
21
-177.2424570000000017
0
LINE
8
BLACK
6
CONTINUOUS
10
92.6351530000000025
20
-177.2424570000000017
11
92.7303909999999973
21
-177.0519799999999861
0
LINE
8
BLACK
6
CONTINUOUS
10
92.7303909999999973
20
-177.0519799999999861
11
92.8256289999999922
21
-176.9567419999999913
0
LINE
8
BLACK
6
CONTINUOUS
10
92.8256289999999922
20
-176.9567419999999913
11
93.016104999999996
21
-176.8615039999999965
0
LINE
8
BLACK
6
CONTINUOUS
10
93.016104999999996
20
-176.8615039999999965
11
93.3018199999999922
21
-176.8615039999999965
0
LINE
8
BLACK
6
CONTINUOUS
10
93.3018199999999922
20
-176.8615039999999965
11
93.4922959999999961
21
-176.9567419999999913
0
LINE
8
BLACK
6
CONTINUOUS
10
93.4922959999999961
20
-176.9567419999999913
11
93.5875339999999909
21
-177.0519799999999861
0
LINE
8
BLACK
6
CONTINUOUS
10
93.5875339999999909
20
-177.0519799999999861
11
93.6827719999999999
21
-177.2424570000000017
0
LINE
8
BLACK
6
CONTINUOUS
10
93.6827719999999999
20
-177.2424570000000017
11
93.6827719999999999
21
-177.8138849999999991
0
LINE
8
BLACK
6
CONTINUOUS
10
93.6827719999999999
20
-177.8138849999999991
11
93.5875339999999909
21
-178.0043609999999887
0
LINE
8
BLACK
6
CONTINUOUS
10
93.5875339999999909
20
-178.0043609999999887
11
93.4922959999999961
21
-178.099599999999981
0
LINE
8
BLACK
6
CONTINUOUS
10
93.4922959999999961
20
-178.099599999999981
11
93.3018199999999922
21
-178.1948380000000043
0
LINE
8
BLACK
6
CONTINUOUS
10
93.3018199999999922
20
-178.1948380000000043
11
93.016104999999996
21
-178.1948380000000043
0
LINE
8
BLACK
6
CONTINUOUS
10
94.8256289999999922
20
-178.1948380000000043
11
94.6351530000000025
21
-178.099599999999981
0
LINE
8
BLACK
6
CONTINUOUS
10
94.6351530000000025
20
-178.099599999999981
11
94.5399149999999935
21
-177.9091229999999939
0
LINE
8
BLACK
6
CONTINUOUS
10
94.5399149999999935
20
-177.9091229999999939
11
94.5399149999999935
21
-176.1948380000000043
0
LINE
8
BLACK
6
CONTINUOUS
10
96.3494389999999896
20
-178.099599999999981
11
96.158963
21
-178.1948380000000043
0
LINE
8
BLACK
6
CONTINUOUS
10
96.158963
20
-178.1948380000000043
11
95.7780099999999948
21
-178.1948380000000043
0
LINE
8
BLACK
6
CONTINUOUS
10
95.7780099999999948
20
-178.1948380000000043
11
95.5875339999999909
21
-178.099599999999981
0
LINE
8
BLACK
6
CONTINUOUS
10
95.5875339999999909
20
-178.099599999999981
11
95.4922959999999961
21
-177.9091229999999939
0
LINE
8
BLACK
6
CONTINUOUS
10
95.4922959999999961
20
-177.9091229999999939
11
95.4922959999999961
21
-177.1472189999999785
0
LINE
8
BLACK
6
CONTINUOUS
10
95.4922959999999961
20
-177.1472189999999785
11
95.5875339999999909
21
-176.9567419999999913
0
LINE
8
BLACK
6
CONTINUOUS
10
95.5875339999999909
20
-176.9567419999999913
11
95.7780099999999948
21
-176.8615039999999965
0
LINE
8
BLACK
6
CONTINUOUS
10
95.7780099999999948
20
-176.8615039999999965
11
96.158963
21
-176.8615039999999965
0
LINE
8
BLACK
6
CONTINUOUS
10
96.158963
20
-176.8615039999999965
11
96.3494389999999896
21
-176.9567419999999913
0
LINE
8
BLACK
6
CONTINUOUS
10
96.3494389999999896
20
-176.9567419999999913
11
96.4446769999999987
21
-177.1472189999999785
0
LINE
8
BLACK
6
CONTINUOUS
10
96.4446769999999987
20
-177.1472189999999785
11
96.4446769999999987
21
-177.3376949999999965
0
LINE
8
BLACK
6
CONTINUOUS
10
96.4446769999999987
20
-177.3376949999999965
11
95.4922959999999961
21
-177.5281709999999862
0
LINE
8
BLACK
6
CONTINUOUS
10
97.2065819999999974
20
-178.099599999999981
11
97.3970580000000012
21
-178.1948380000000043
0
LINE
8
BLACK
6
CONTINUOUS
10
97.3970580000000012
20
-178.1948380000000043
11
97.7780099999999948
21
-178.1948380000000043
0
LINE
8
BLACK
6
CONTINUOUS
10
97.7780099999999948
20
-178.1948380000000043
11
97.9684869999999961
21
-178.099599999999981
0
LINE
8
BLACK
6
CONTINUOUS
10
97.9684869999999961
20
-178.099599999999981
11
98.0637249999999909
21
-177.9091229999999939
0
LINE
8
BLACK
6
CONTINUOUS
10
98.0637249999999909
20
-177.9091229999999939
11
98.0637249999999909
21
-177.8138849999999991
0
LINE
8
BLACK
6
CONTINUOUS
10
98.0637249999999909
20
-177.8138849999999991
11
97.9684869999999961
21
-177.623408999999981
0
LINE
8
BLACK
6
CONTINUOUS
10
97.9684869999999961
20
-177.623408999999981
11
97.7780099999999948
21
-177.5281709999999862
0
LINE
8
BLACK
6
CONTINUOUS
10
97.7780099999999948
20
-177.5281709999999862
11
97.4922959999999961
21
-177.5281709999999862
0
LINE
8
BLACK
6
CONTINUOUS
10
97.4922959999999961
20
-177.5281709999999862
11
97.3018199999999922
21
-177.4329329999999914
0
LINE
8
BLACK
6
CONTINUOUS
10
97.3018199999999922
20
-177.4329329999999914
11
97.2065819999999974
21
-177.2424570000000017
0
LINE
8
BLACK
6
CONTINUOUS
10
97.2065819999999974
20
-177.2424570000000017
11
97.2065819999999974
21
-177.1472189999999785
0
LINE
8
BLACK
6
CONTINUOUS
10
97.2065819999999974
20
-177.1472189999999785
11
97.3018199999999922
21
-176.9567419999999913
0
LINE
8
BLACK
6
CONTINUOUS
10
97.3018199999999922
20
-176.9567419999999913
11
97.4922959999999961
21
-176.8615039999999965
0
LINE
8
BLACK
6
CONTINUOUS
10
97.4922959999999961
20
-176.8615039999999965
11
97.7780099999999948
21
-176.8615039999999965
0
LINE
8
BLACK
6
CONTINUOUS
10
97.7780099999999948
20
-176.8615039999999965
11
97.9684869999999961
21
-176.9567419999999913
0
LINE
8
BLACK
6
CONTINUOUS
10
98.7303919999999948
20
-178.9567419999999913
11
98.8256299999999896
21
-178.8615039999999965
0
LINE
8
BLACK
6
CONTINUOUS
10
98.8256299999999896
20
-178.8615039999999965
11
99.0161059999999935
21
-178.5757899999999836
0
LINE
8
BLACK
6
CONTINUOUS
10
99.0161059999999935
20
-178.5757899999999836
11
99.1113440000000026
21
-178.3853139999999939
0
LINE
8
BLACK
6
CONTINUOUS
10
99.1113440000000026
20
-178.3853139999999939
11
99.2065819999999974
21
-178.099599999999981
0
LINE
8
BLACK
6
CONTINUOUS
10
99.2065819999999974
20
-178.099599999999981
11
99.3018199999999922
21
-177.623408999999981
0
LINE
8
BLACK
6
CONTINUOUS
10
99.3018199999999922
20
-177.623408999999981
11
99.3018199999999922
21
-177.2424570000000017
0
LINE
8
BLACK
6
CONTINUOUS
10
99.3018199999999922
20
-177.2424570000000017
11
99.2065819999999974
21
-176.7662660000000017
0
LINE
8
BLACK
6
CONTINUOUS
10
99.2065819999999974
20
-176.7662660000000017
11
99.1113440000000026
21
-176.4805519999999888
0
LINE
8
BLACK
6
CONTINUOUS
10
99.1113440000000026
20
-176.4805519999999888
11
99.0161059999999935
21
-176.2900759999999991
0
LINE
8
BLACK
6
CONTINUOUS
10
99.0161059999999935
20
-176.2900759999999991
11
98.8256299999999896
21
-176.0043609999999887
0
LINE
8
BLACK
6
CONTINUOUS
10
98.8256299999999896
20
-176.0043609999999887
11
98.7303919999999948
21
-175.9091229999999939
0
LINE
8
BLACK
6
CONTINUOUS
10
48.9139119999999963
20
-180.3089119999999923
11
48.9139119999999963
21
-179.5310879999999827
0
LINE
8
BLACK
6
CONTINUOUS
10
48.9139119999999963
20
-179.5310879999999827
11
48.1360880000000009
21
-179.5310879999999827
0
LINE
8
BLACK
6
CONTINUOUS
10
48.1360880000000009
20
-179.5310879999999827
11
48.1360880000000009
21
-180.3089119999999923
0
LINE
8
BLACK
6
CONTINUOUS
10
48.1360880000000009
20
-180.3089119999999923
11
48.9139119999999963
21
-180.3089119999999923
0
LINE
8
BLACK
6
CONTINUOUS
10
52.7303870000000003
20
-180.8348379999999906
11
51.587530000000001
21
-180.8348379999999906
0
LINE
8
BLACK
6
CONTINUOUS
10
52.1589579999999984
20
-180.8348379999999906
11
52.1589579999999984
21
-178.8348379999999906
0
LINE
8
BLACK
6
CONTINUOUS
10
52.1589579999999984
20
-178.8348379999999906
11
51.9684819999999945
21
-179.1205520000000035
0
LINE
8
BLACK
6
CONTINUOUS
10
51.9684819999999945
20
-179.1205520000000035
11
51.7780059999999978
21
-179.3110279999999932
0
LINE
8
BLACK
6
CONTINUOUS
10
51.7780059999999978
20
-179.3110279999999932
11
51.587530000000001
21
-179.406265999999988
0
LINE
8
BLACK
6
CONTINUOUS
10
53.587530000000001
20
-180.6443610000000035
11
53.6827679999999958
21
-180.7395999999999958
0
LINE
8
BLACK
6
CONTINUOUS
10
53.6827679999999958
20
-180.7395999999999958
11
53.587530000000001
21
-180.8348379999999906
0
LINE
8
BLACK
6
CONTINUOUS
10
53.587530000000001
20
-180.8348379999999906
11
53.4922919999999991
21
-180.7395999999999958
0
LINE
8
BLACK
6
CONTINUOUS
10
53.4922919999999991
20
-180.7395999999999958
11
53.587530000000001
21
-180.6443610000000035
0
LINE
8
BLACK
6
CONTINUOUS
10
53.587530000000001
20
-180.6443610000000035
11
53.587530000000001
21
-180.8348379999999906
0
LINE
8
BLACK
6
CONTINUOUS
10
55.587530000000001
20
-180.8348379999999906
11
54.4446729999999945
21
-180.8348379999999906
0
LINE
8
BLACK
6
CONTINUOUS
10
55.016100999999999
20
-180.8348379999999906
11
55.016100999999999
21
-178.8348379999999906
0
LINE
8
BLACK
6
CONTINUOUS
10
55.016100999999999
20
-178.8348379999999906
11
54.8256249999999952
21
-179.1205520000000035
0
LINE
8
BLACK
6
CONTINUOUS
10
54.8256249999999952
20
-179.1205520000000035
11
54.6351489999999984
21
-179.3110279999999932
0
LINE
8
BLACK
6
CONTINUOUS
10
54.6351489999999984
20
-179.3110279999999932
11
54.4446729999999945
21
-179.406265999999988
0
LINE
8
BLACK
6
CONTINUOUS
10
56.8256249999999952
20
-178.8348379999999906
11
57.0161019999999965
21
-178.8348379999999906
0
LINE
8
BLACK
6
CONTINUOUS
10
57.0161019999999965
20
-178.8348379999999906
11
57.2065780000000004
21
-178.9300759999999855
0
LINE
8
BLACK
6
CONTINUOUS
10
57.2065780000000004
20
-178.9300759999999855
11
57.3018159999999952
21
-179.0253139999999803
0
LINE
8
BLACK
6
CONTINUOUS
10
57.3018159999999952
20
-179.0253139999999803
11
57.3970539999999971
21
-179.2157899999999984
0
LINE
8
BLACK
6
CONTINUOUS
10
57.3970539999999971
20
-179.2157899999999984
11
57.4922919999999991
21
-179.5967419999999777
0
LINE
8
BLACK
6
CONTINUOUS
10
57.4922919999999991
20
-179.5967419999999777
11
57.4922919999999991
21
-180.0729329999999777
0
LINE
8
BLACK
6
CONTINUOUS
10
57.4922919999999991
20
-180.0729329999999777
11
57.3970539999999971
21
-180.4538849999999854
0
LINE
8
BLACK
6
CONTINUOUS
10
57.3970539999999971
20
-180.4538849999999854
11
57.3018159999999952
21
-180.6443610000000035
0
LINE
8
BLACK
6
CONTINUOUS
10
57.3018159999999952
20
-180.6443610000000035
11
57.2065780000000004
21
-180.7395999999999958
0
LINE
8
BLACK
6
CONTINUOUS
10
57.2065780000000004
20
-180.7395999999999958
11
57.0161019999999965
21
-180.8348379999999906
0
LINE
8
BLACK
6
CONTINUOUS
10
57.0161019999999965
20
-180.8348379999999906
11
56.8256249999999952
21
-180.8348379999999906
0
LINE
8
BLACK
6
CONTINUOUS
10
56.8256249999999952
20
-180.8348379999999906
11
56.6351489999999984
21
-180.7395999999999958
0
LINE
8
BLACK
6
CONTINUOUS
10
56.6351489999999984
20
-180.7395999999999958
11
56.5399109999999965
21
-180.6443610000000035
0
LINE
8
BLACK
6
CONTINUOUS
10
56.5399109999999965
20
-180.6443610000000035
11
56.4446729999999945
21
-180.4538849999999854
0
LINE
8
BLACK
6
CONTINUOUS
10
56.4446729999999945
20
-180.4538849999999854
11
56.3494349999999997
21
-180.0729329999999777
0
LINE
8
BLACK
6
CONTINUOUS
10
56.3494349999999997
20
-180.0729329999999777
11
56.3494349999999997
21
-179.5967419999999777
0
LINE
8
BLACK
6
CONTINUOUS
10
56.3494349999999997
20
-179.5967419999999777
11
56.4446729999999945
21
-179.2157899999999984
0
LINE
8
BLACK
6
CONTINUOUS
10
56.4446729999999945
20
-179.2157899999999984
11
56.5399109999999965
21
-179.0253139999999803
0
LINE
8
BLACK
6
CONTINUOUS
10
56.5399109999999965
20
-179.0253139999999803
11
56.6351489999999984
21
-178.9300759999999855
0
LINE
8
BLACK
6
CONTINUOUS
10
56.6351489999999984
20
-178.9300759999999855
11
56.8256249999999952
21
-178.8348379999999906
0
LINE
8
BLACK
6
CONTINUOUS
10
58.7303870000000003
20
-178.8348379999999906
11
58.9208639999999946
21
-178.8348379999999906
0
LINE
8
BLACK
6
CONTINUOUS
10
58.9208639999999946
20
-178.8348379999999906
11
59.1113399999999984
21
-178.9300759999999855
0
LINE
8
BLACK
6
CONTINUOUS
10
59.1113399999999984
20
-178.9300759999999855
11
59.2065780000000004
21
-179.0253139999999803
0
LINE
8
BLACK
6
CONTINUOUS
10
59.2065780000000004
20
-179.0253139999999803
11
59.3018159999999952
21
-179.2157899999999984
0
LINE
8
BLACK
6
CONTINUOUS
10
59.3018159999999952
20
-179.2157899999999984
11
59.3970539999999971
21
-179.5967419999999777
0
LINE
8
BLACK
6
CONTINUOUS
10
59.3970539999999971
20
-179.5967419999999777
11
59.3970539999999971
21
-180.0729329999999777
0
LINE
8
BLACK
6
CONTINUOUS
10
59.3970539999999971
20
-180.0729329999999777
11
59.3018159999999952
21
-180.4538849999999854
0
LINE
8
BLACK
6
CONTINUOUS
10
59.3018159999999952
20
-180.4538849999999854
11
59.2065780000000004
21
-180.6443610000000035
0
LINE
8
BLACK
6
CONTINUOUS
10
59.2065780000000004
20
-180.6443610000000035
11
59.1113399999999984
21
-180.7395999999999958
0
LINE
8
BLACK
6
CONTINUOUS
10
59.1113399999999984
20
-180.7395999999999958
11
58.9208639999999946
21
-180.8348379999999906
0
LINE
8
BLACK
6
CONTINUOUS
10
58.9208639999999946
20
-180.8348379999999906
11
58.7303870000000003
21
-180.8348379999999906
0
LINE
8
BLACK
6
CONTINUOUS
10
58.7303870000000003
20
-180.8348379999999906
11
58.5399109999999965
21
-180.7395999999999958
0
LINE
8
BLACK
6
CONTINUOUS
10
58.5399109999999965
20
-180.7395999999999958
11
58.4446729999999945
21
-180.6443610000000035
0
LINE
8
BLACK
6
CONTINUOUS
10
58.4446729999999945
20
-180.6443610000000035
11
58.3494349999999997
21
-180.4538849999999854
0
LINE
8
BLACK
6
CONTINUOUS
10
58.3494349999999997
20
-180.4538849999999854
11
58.2541969999999978
21
-180.0729329999999777
0
LINE
8
BLACK
6
CONTINUOUS
10
58.2541969999999978
20
-180.0729329999999777
11
58.2541969999999978
21
-179.5967419999999777
0
LINE
8
BLACK
6
CONTINUOUS
10
58.2541969999999978
20
-179.5967419999999777
11
58.3494349999999997
21
-179.2157899999999984
0
LINE
8
BLACK
6
CONTINUOUS
10
58.3494349999999997
20
-179.2157899999999984
11
58.4446729999999945
21
-179.0253139999999803
0
LINE
8
BLACK
6
CONTINUOUS
10
58.4446729999999945
20
-179.0253139999999803
11
58.5399109999999965
21
-178.9300759999999855
0
LINE
8
BLACK
6
CONTINUOUS
10
58.5399109999999965
20
-178.9300759999999855
11
58.7303870000000003
21
-178.8348379999999906
0
LINE
8
BLACK
6
CONTINUOUS
10
60.2541969999999978
20
-180.8348379999999906
11
60.2541969999999978
21
-179.5015039999999829
0
LINE
8
BLACK
6
CONTINUOUS
10
60.2541969999999978
20
-179.6919800000000009
11
60.3494349999999997
21
-179.5967419999999777
0
LINE
8
BLACK
6
CONTINUOUS
10
60.3494349999999997
20
-179.5967419999999777
11
60.5399109999999965
21
-179.5015039999999829
0
LINE
8
BLACK
6
CONTINUOUS
10
60.5399109999999965
20
-179.5015039999999829
11
60.8256259999999997
21
-179.5015039999999829
0
LINE
8
BLACK
6
CONTINUOUS
10
60.8256259999999997
20
-179.5015039999999829
11
61.0161019999999965
21
-179.5967419999999777
0
LINE
8
BLACK
6
CONTINUOUS
10
61.0161019999999965
20
-179.5967419999999777
11
61.1113399999999984
21
-179.7872189999999932
0
LINE
8
BLACK
6
CONTINUOUS
10
61.1113399999999984
20
-179.7872189999999932
11
61.1113399999999984
21
-180.8348379999999906
0
LINE
8
BLACK
6
CONTINUOUS
10
61.1113399999999984
20
-179.7872189999999932
11
61.2065780000000004
21
-179.5967419999999777
0
LINE
8
BLACK
6
CONTINUOUS
10
61.2065780000000004
20
-179.5967419999999777
11
61.3970539999999971
21
-179.5015039999999829
0
LINE
8
BLACK
6
CONTINUOUS
10
61.3970539999999971
20
-179.5015039999999829
11
61.6827679999999958
21
-179.5015039999999829
0
LINE
8
BLACK
6
CONTINUOUS
10
61.6827679999999958
20
-179.5015039999999829
11
61.8732449999999972
21
-179.5967419999999777
0
LINE
8
BLACK
6
CONTINUOUS
10
61.8732449999999972
20
-179.5967419999999777
11
61.9684829999999991
21
-179.7872189999999932
0
LINE
8
BLACK
6
CONTINUOUS
10
61.9684829999999991
20
-179.7872189999999932
11
61.9684829999999991
21
-180.8348379999999906
0
LINE
8
BLACK
6
CONTINUOUS
10
62.9208639999999946
20
-180.8348379999999906
11
62.9208639999999946
21
-179.5015039999999829
0
LINE
8
BLACK
6
CONTINUOUS
10
62.9208639999999946
20
-179.6919800000000009
11
63.0161019999999965
21
-179.5967419999999777
0
LINE
8
BLACK
6
CONTINUOUS
10
63.0161019999999965
20
-179.5967419999999777
11
63.2065780000000004
21
-179.5015039999999829
0
LINE
8
BLACK
6
CONTINUOUS
10
63.2065780000000004
20
-179.5015039999999829
11
63.4922929999999965
21
-179.5015039999999829
0
LINE
8
BLACK
6
CONTINUOUS
10
63.4922929999999965
20
-179.5015039999999829
11
63.6827690000000004
21
-179.5967419999999777
0
LINE
8
BLACK
6
CONTINUOUS
10
63.6827690000000004
20
-179.5967419999999777
11
63.7780069999999952
21
-179.7872189999999932
0
LINE
8
BLACK
6
CONTINUOUS
10
63.7780069999999952
20
-179.7872189999999932
11
63.7780069999999952
21
-180.8348379999999906
0
LINE
8
BLACK
6
CONTINUOUS
10
63.7780069999999952
20
-179.7872189999999932
11
63.8732449999999972
21
-179.5967419999999777
0
LINE
8
BLACK
6
CONTINUOUS
10
63.8732449999999972
20
-179.5967419999999777
11
64.063721000000001
21
-179.5015039999999829
0
LINE
8
BLACK
6
CONTINUOUS
10
64.063721000000001
20
-179.5015039999999829
11
64.3494349999999997
21
-179.5015039999999829
0
LINE
8
BLACK
6
CONTINUOUS
10
64.3494349999999997
20
-179.5015039999999829
11
64.5399120000000011
21
-179.5967419999999777
0
LINE
8
BLACK
6
CONTINUOUS
10
64.5399120000000011
20
-179.5967419999999777
11
64.6351499999999959
21
-179.7872189999999932
0
LINE
8
BLACK
6
CONTINUOUS
10
64.6351499999999959
20
-179.7872189999999932
11
64.6351499999999959
21
-180.8348379999999906
0
LINE
8
BLACK
6
CONTINUOUS
10
68.5399120000000011
20
-178.7395999999999958
11
66.8256269999999972
21
-181.3110279999999932
0
LINE
8
BLACK
6
CONTINUOUS
10
71.1113409999999959
20
-178.8348379999999906
11
71.3018179999999973
21
-178.8348379999999906
0
LINE
8
BLACK
6
CONTINUOUS
10
71.3018179999999973
20
-178.8348379999999906
11
71.4922940000000011
21
-178.9300759999999855
0
LINE
8
BLACK
6
CONTINUOUS
10
71.4922940000000011
20
-178.9300759999999855
11
71.5875319999999959
21
-179.0253139999999803
0
LINE
8
BLACK
6
CONTINUOUS
10
71.5875319999999959
20
-179.0253139999999803
11
71.6827699999999908
21
-179.2157899999999984
0
LINE
8
BLACK
6
CONTINUOUS
10
71.6827699999999908
20
-179.2157899999999984
11
71.7780079999999998
21
-179.5967419999999777
0
LINE
8
BLACK
6
CONTINUOUS
10
71.7780079999999998
20
-179.5967419999999777
11
71.7780079999999998
21
-180.0729329999999777
0
LINE
8
BLACK
6
CONTINUOUS
10
71.7780079999999998
20
-180.0729329999999777
11
71.6827699999999908
21
-180.4538849999999854
0
LINE
8
BLACK
6
CONTINUOUS
10
71.6827699999999908
20
-180.4538849999999854
11
71.5875319999999959
21
-180.6443610000000035
0
LINE
8
BLACK
6
CONTINUOUS
10
71.5875319999999959
20
-180.6443610000000035
11
71.4922940000000011
21
-180.7395999999999958
0
LINE
8
BLACK
6
CONTINUOUS
10
71.4922940000000011
20
-180.7395999999999958
11
71.3018179999999973
21
-180.8348379999999906
0
LINE
8
BLACK
6
CONTINUOUS
10
71.3018179999999973
20
-180.8348379999999906
11
71.1113409999999959
21
-180.8348379999999906
0
LINE
8
BLACK
6
CONTINUOUS
10
71.1113409999999959
20
-180.8348379999999906
11
70.9208649999999921
21
-180.7395999999999958
0
LINE
8
BLACK
6
CONTINUOUS
10
70.9208649999999921
20
-180.7395999999999958
11
70.8256269999999972
21
-180.6443610000000035
0
LINE
8
BLACK
6
CONTINUOUS
10
70.8256269999999972
20
-180.6443610000000035
11
70.7303890000000024
21
-180.4538849999999854
0
LINE
8
BLACK
6
CONTINUOUS
10
70.7303890000000024
20
-180.4538849999999854
11
70.6351509999999934
21
-180.0729329999999777
0
LINE
8
BLACK
6
CONTINUOUS
10
70.6351509999999934
20
-180.0729329999999777
11
70.6351509999999934
21
-179.5967419999999777
0
LINE
8
BLACK
6
CONTINUOUS
10
70.6351509999999934
20
-179.5967419999999777
11
70.7303890000000024
21
-179.2157899999999984
0
LINE
8
BLACK
6
CONTINUOUS
10
70.7303890000000024
20
-179.2157899999999984
11
70.8256269999999972
21
-179.0253139999999803
0
LINE
8
BLACK
6
CONTINUOUS
10
70.8256269999999972
20
-179.0253139999999803
11
70.9208649999999921
21
-178.9300759999999855
0
LINE
8
BLACK
6
CONTINUOUS
10
70.9208649999999921
20
-178.9300759999999855
11
71.1113409999999959
21
-178.8348379999999906
0
LINE
8
BLACK
6
CONTINUOUS
10
72.6351509999999934
20
-180.6443610000000035
11
72.7303890000000024
21
-180.7395999999999958
0
LINE
8
BLACK
6
CONTINUOUS
10
72.7303890000000024
20
-180.7395999999999958
11
72.6351509999999934
21
-180.8348379999999906
0
LINE
8
BLACK
6
CONTINUOUS
10
72.6351509999999934
20
-180.8348379999999906
11
72.5399129999999985
21
-180.7395999999999958
0
LINE
8
BLACK
6
CONTINUOUS
10
72.5399129999999985
20
-180.7395999999999958
11
72.6351509999999934
21
-180.6443610000000035
0
LINE
8
BLACK
6
CONTINUOUS
10
72.6351509999999934
20
-180.6443610000000035
11
72.6351509999999934
21
-180.8348379999999906
0
LINE
8
BLACK
6
CONTINUOUS
10
73.9684840000000037
20
-178.8348379999999906
11
74.1589609999999908
21
-178.8348379999999906
0
LINE
8
BLACK
6
CONTINUOUS
10
74.1589609999999908
20
-178.8348379999999906
11
74.3494369999999947
21
-178.9300759999999855
0
LINE
8
BLACK
6
CONTINUOUS
10
74.3494369999999947
20
-178.9300759999999855
11
74.4446750000000037
21
-179.0253139999999803
0
LINE
8
BLACK
6
CONTINUOUS
10
74.4446750000000037
20
-179.0253139999999803
11
74.5399129999999985
21
-179.2157899999999984
0
LINE
8
BLACK
6
CONTINUOUS
10
74.5399129999999985
20
-179.2157899999999984
11
74.6351509999999934
21
-179.5967419999999777
0
LINE
8
BLACK
6
CONTINUOUS
10
74.6351509999999934
20
-179.5967419999999777
11
74.6351509999999934
21
-180.0729329999999777
0
LINE
8
BLACK
6
CONTINUOUS
10
74.6351509999999934
20
-180.0729329999999777
11
74.5399129999999985
21
-180.4538849999999854
0
LINE
8
BLACK
6
CONTINUOUS
10
74.5399129999999985
20
-180.4538849999999854
11
74.4446750000000037
21
-180.6443610000000035
0
LINE
8
BLACK
6
CONTINUOUS
10
74.4446750000000037
20
-180.6443610000000035
11
74.3494369999999947
21
-180.7395999999999958
0
LINE
8
BLACK
6
CONTINUOUS
10
74.3494369999999947
20
-180.7395999999999958
11
74.1589609999999908
21
-180.8348379999999906
0
LINE
8
BLACK
6
CONTINUOUS
10
74.1589609999999908
20
-180.8348379999999906
11
73.9684840000000037
21
-180.8348379999999906
0
LINE
8
BLACK
6
CONTINUOUS
10
73.9684840000000037
20
-180.8348379999999906
11
73.7780079999999998
21
-180.7395999999999958
0
LINE
8
BLACK
6
CONTINUOUS
10
73.7780079999999998
20
-180.7395999999999958
11
73.6827699999999908
21
-180.6443610000000035
0
LINE
8
BLACK
6
CONTINUOUS
10
73.6827699999999908
20
-180.6443610000000035
11
73.5875319999999959
21
-180.4538849999999854
0
LINE
8
BLACK
6
CONTINUOUS
10
73.5875319999999959
20
-180.4538849999999854
11
73.4922940000000011
21
-180.0729329999999777
0
LINE
8
BLACK
6
CONTINUOUS
10
73.4922940000000011
20
-180.0729329999999777
11
73.4922940000000011
21
-179.5967419999999777
0
LINE
8
BLACK
6
CONTINUOUS
10
73.4922940000000011
20
-179.5967419999999777
11
73.5875319999999959
21
-179.2157899999999984
0
LINE
8
BLACK
6
CONTINUOUS
10
73.5875319999999959
20
-179.2157899999999984
11
73.6827699999999908
21
-179.0253139999999803
0
LINE
8
BLACK
6
CONTINUOUS
10
73.6827699999999908
20
-179.0253139999999803
11
73.7780079999999998
21
-178.9300759999999855
0
LINE
8
BLACK
6
CONTINUOUS
10
73.7780079999999998
20
-178.9300759999999855
11
73.9684840000000037
21
-178.8348379999999906
0
LINE
8
BLACK
6
CONTINUOUS
10
76.3494369999999947
20
-179.5015039999999829
11
76.3494369999999947
21
-180.8348379999999906
0
LINE
8
BLACK
6
CONTINUOUS
10
75.8732459999999946
20
-178.7395999999999958
11
75.3970559999999921
21
-180.168171000000001
0
LINE
8
BLACK
6
CONTINUOUS
10
75.3970559999999921
20
-180.168171000000001
11
76.6351509999999934
21
-180.168171000000001
0
LINE
8
BLACK
6
CONTINUOUS
10
77.2065800000000024
20
-178.8348379999999906
11
78.4446749999999895
21
-178.8348379999999906
0
LINE
8
BLACK
6
CONTINUOUS
10
78.4446749999999895
20
-178.8348379999999906
11
77.7780079999999998
21
-179.5967419999999777
0
LINE
8
BLACK
6
CONTINUOUS
10
77.7780079999999998
20
-179.5967419999999777
11
78.063722999999996
21
-179.5967419999999777
0
LINE
8
BLACK
6
CONTINUOUS
10
78.063722999999996
20
-179.5967419999999777
11
78.2541989999999998
21
-179.6919800000000009
0
LINE
8
BLACK
6
CONTINUOUS
10
78.2541989999999998
20
-179.6919800000000009
11
78.3494369999999947
21
-179.7872189999999932
0
LINE
8
BLACK
6
CONTINUOUS
10
78.3494369999999947
20
-179.7872189999999932
11
78.4446749999999895
21
-179.9776949999999829
0
LINE
8
BLACK
6
CONTINUOUS
10
78.4446749999999895
20
-179.9776949999999829
11
78.4446749999999895
21
-180.4538849999999854
0
LINE
8
BLACK
6
CONTINUOUS
10
78.4446749999999895
20
-180.4538849999999854
11
78.3494369999999947
21
-180.6443610000000035
0
LINE
8
BLACK
6
CONTINUOUS
10
78.3494369999999947
20
-180.6443610000000035
11
78.2541989999999998
21
-180.7395999999999958
0
LINE
8
BLACK
6
CONTINUOUS
10
78.2541989999999998
20
-180.7395999999999958
11
78.063722999999996
21
-180.8348379999999906
0
LINE
8
BLACK
6
CONTINUOUS
10
78.063722999999996
20
-180.8348379999999906
11
77.4922940000000011
21
-180.8348379999999906
0
LINE
8
BLACK
6
CONTINUOUS
10
77.4922940000000011
20
-180.8348379999999906
11
77.3018179999999973
21
-180.7395999999999958
0
LINE
8
BLACK
6
CONTINUOUS
10
77.3018179999999973
20
-180.7395999999999958
11
77.2065800000000024
21
-180.6443610000000035
0
LINE
8
BLACK
6
CONTINUOUS
10
79.1113419999999934
20
-178.8348379999999906
11
80.3494369999999947
21
-178.8348379999999906
0
LINE
8
BLACK
6
CONTINUOUS
10
80.3494369999999947
20
-178.8348379999999906
11
79.6827699999999908
21
-179.5967419999999777
0
LINE
8
BLACK
6
CONTINUOUS
10
79.6827699999999908
20
-179.5967419999999777
11
79.9684850000000012
21
-179.5967419999999777
0
LINE
8
BLACK
6
CONTINUOUS
10
79.9684850000000012
20
-179.5967419999999777
11
80.1589609999999908
21
-179.6919800000000009
0
LINE
8
BLACK
6
CONTINUOUS
10
80.1589609999999908
20
-179.6919800000000009
11
80.2541989999999998
21
-179.7872189999999932
0
LINE
8
BLACK
6
CONTINUOUS
10
80.2541989999999998
20
-179.7872189999999932
11
80.3494369999999947
21
-179.9776949999999829
0
LINE
8
BLACK
6
CONTINUOUS
10
80.3494369999999947
20
-179.9776949999999829
11
80.3494369999999947
21
-180.4538849999999854
0
LINE
8
BLACK
6
CONTINUOUS
10
80.3494369999999947
20
-180.4538849999999854
11
80.2541989999999998
21
-180.6443610000000035
0
LINE
8
BLACK
6
CONTINUOUS
10
80.2541989999999998
20
-180.6443610000000035
11
80.1589609999999908
21
-180.7395999999999958
0
LINE
8
BLACK
6
CONTINUOUS
10
80.1589609999999908
20
-180.7395999999999958
11
79.9684850000000012
21
-180.8348379999999906
0
LINE
8
BLACK
6
CONTINUOUS
10
79.9684850000000012
20
-180.8348379999999906
11
79.3970559999999921
21
-180.8348379999999906
0
LINE
8
BLACK
6
CONTINUOUS
10
79.3970559999999921
20
-180.8348379999999906
11
79.2065800000000024
21
-180.7395999999999958
0
LINE
8
BLACK
6
CONTINUOUS
10
79.2065800000000024
20
-180.7395999999999958
11
79.1113419999999934
21
-180.6443610000000035
0
LINE
8
BLACK
6
CONTINUOUS
10
81.1113419999999934
20
-178.8348379999999906
11
81.1113419999999934
21
-179.2157899999999984
0
LINE
8
BLACK
6
CONTINUOUS
10
81.8732469999999921
20
-178.8348379999999906
11
81.8732469999999921
21
-179.2157899999999984
0
LINE
8
BLACK
6
CONTINUOUS
10
84.8256289999999922
20
-181.5967419999999777
11
84.7303899999999999
21
-181.5015039999999829
0
LINE
8
BLACK
6
CONTINUOUS
10
84.7303899999999999
20
-181.5015039999999829
11
84.539913999999996
21
-181.2157899999999984
0
LINE
8
BLACK
6
CONTINUOUS
10
84.539913999999996
20
-181.2157899999999984
11
84.4446760000000012
21
-181.0253139999999803
0
LINE
8
BLACK
6
CONTINUOUS
10
84.4446760000000012
20
-181.0253139999999803
11
84.3494379999999921
21
-180.7395999999999958
0
LINE
8
BLACK
6
CONTINUOUS
10
84.3494379999999921
20
-180.7395999999999958
11
84.2541999999999973
21
-180.2634089999999958
0
LINE
8
BLACK
6
CONTINUOUS
10
84.2541999999999973
20
-180.2634089999999958
11
84.2541999999999973
21
-179.8824569999999881
0
LINE
8
BLACK
6
CONTINUOUS
10
84.2541999999999973
20
-179.8824569999999881
11
84.3494379999999921
21
-179.406265999999988
0
LINE
8
BLACK
6
CONTINUOUS
10
84.3494379999999921
20
-179.406265999999988
11
84.4446760000000012
21
-179.1205520000000035
0
LINE
8
BLACK
6
CONTINUOUS
10
84.4446760000000012
20
-179.1205520000000035
11
84.539913999999996
21
-178.9300759999999855
0
LINE
8
BLACK
6
CONTINUOUS
10
84.539913999999996
20
-178.9300759999999855
11
84.7303899999999999
21
-178.6443610000000035
0
LINE
8
BLACK
6
CONTINUOUS
10
84.7303899999999999
20
-178.6443610000000035
11
84.8256289999999922
21
-178.5491229999999803
0
LINE
8
BLACK
6
CONTINUOUS
10
86.6351519999999908
20
-180.8348379999999906
11
85.4922949999999986
21
-180.8348379999999906
0
LINE
8
BLACK
6
CONTINUOUS
10
86.063722999999996
20
-180.8348379999999906
11
86.063722999999996
21
-178.8348379999999906
0
LINE
8
BLACK
6
CONTINUOUS
10
86.063722999999996
20
-178.8348379999999906
11
85.8732469999999921
21
-179.1205520000000035
0
LINE
8
BLACK
6
CONTINUOUS
10
85.8732469999999921
20
-179.1205520000000035
11
85.6827710000000025
21
-179.3110279999999932
0
LINE
8
BLACK
6
CONTINUOUS
10
85.6827710000000025
20
-179.3110279999999932
11
85.4922949999999986
21
-179.406265999999988
0
LINE
8
BLACK
6
CONTINUOUS
10
87.3970569999999896
20
-179.0253139999999803
11
87.4922949999999986
21
-178.9300759999999855
0
LINE
8
BLACK
6
CONTINUOUS
10
87.4922949999999986
20
-178.9300759999999855
11
87.6827710000000025
21
-178.8348379999999906
0
LINE
8
BLACK
6
CONTINUOUS
10
87.6827710000000025
20
-178.8348379999999906
11
88.1589620000000025
21
-178.8348379999999906
0
LINE
8
BLACK
6
CONTINUOUS
10
88.1589620000000025
20
-178.8348379999999906
11
88.3494379999999921
21
-178.9300759999999855
0
LINE
8
BLACK
6
CONTINUOUS
10
88.3494379999999921
20
-178.9300759999999855
11
88.4446760000000012
21
-179.0253139999999803
0
LINE
8
BLACK
6
CONTINUOUS
10
88.4446760000000012
20
-179.0253139999999803
11
88.539913999999996
21
-179.2157899999999984
0
LINE
8
BLACK
6
CONTINUOUS
10
88.539913999999996
20
-179.2157899999999984
11
88.539913999999996
21
-179.406265999999988
0
LINE
8
BLACK
6
CONTINUOUS
10
88.539913999999996
20
-179.406265999999988
11
88.4446760000000012
21
-179.6919800000000009
0
LINE
8
BLACK
6
CONTINUOUS
10
88.4446760000000012
20
-179.6919800000000009
11
87.3018189999999947
21
-180.8348379999999906
0
LINE
8
BLACK
6
CONTINUOUS
10
87.3018189999999947
20
-180.8348379999999906
11
88.539913999999996
21
-180.8348379999999906
0
LINE
8
BLACK
6
CONTINUOUS
10
90.9208670000000012
20
-180.8348379999999906
11
90.9208670000000012
21
-178.8348379999999906
0
LINE
8
BLACK
6
CONTINUOUS
10
91.7780099999999948
20
-180.8348379999999906
11
91.7780099999999948
21
-179.7872189999999932
0
LINE
8
BLACK
6
CONTINUOUS
10
91.7780099999999948
20
-179.7872189999999932
11
91.6827719999999999
21
-179.5967419999999777
0
LINE
8
BLACK
6
CONTINUOUS
10
91.6827719999999999
20
-179.5967419999999777
11
91.4922959999999961
21
-179.5015039999999829
0
LINE
8
BLACK
6
CONTINUOUS
10
91.4922959999999961
20
-179.5015039999999829
11
91.2065809999999999
21
-179.5015039999999829
0
LINE
8
BLACK
6
CONTINUOUS
10
91.2065809999999999
20
-179.5015039999999829
11
91.016104999999996
21
-179.5967419999999777
0
LINE
8
BLACK
6
CONTINUOUS
10
91.016104999999996
20
-179.5967419999999777
11
90.9208670000000012
21
-179.6919800000000009
0
LINE
8
BLACK
6
CONTINUOUS
10
93.016104999999996
20
-180.8348379999999906
11
92.8256289999999922
21
-180.7395999999999958
0
LINE
8
BLACK
6
CONTINUOUS
10
92.8256289999999922
20
-180.7395999999999958
11
92.7303909999999973
21
-180.6443610000000035
0
LINE
8
BLACK
6
CONTINUOUS
10
92.7303909999999973
20
-180.6443610000000035
11
92.6351530000000025
21
-180.4538849999999854
0
LINE
8
BLACK
6
CONTINUOUS
10
92.6351530000000025
20
-180.4538849999999854
11
92.6351530000000025
21
-179.8824569999999881
0
LINE
8
BLACK
6
CONTINUOUS
10
92.6351530000000025
20
-179.8824569999999881
11
92.7303909999999973
21
-179.6919800000000009
0
LINE
8
BLACK
6
CONTINUOUS
10
92.7303909999999973
20
-179.6919800000000009
11
92.8256289999999922
21
-179.5967419999999777
0
LINE
8
BLACK
6
CONTINUOUS
10
92.8256289999999922
20
-179.5967419999999777
11
93.016104999999996
21
-179.5015039999999829
0
LINE
8
BLACK
6
CONTINUOUS
10
93.016104999999996
20
-179.5015039999999829
11
93.3018199999999922
21
-179.5015039999999829
0
LINE
8
BLACK
6
CONTINUOUS
10
93.3018199999999922
20
-179.5015039999999829
11
93.4922959999999961
21
-179.5967419999999777
0
LINE
8
BLACK
6
CONTINUOUS
10
93.4922959999999961
20
-179.5967419999999777
11
93.5875339999999909
21
-179.6919800000000009
0
LINE
8
BLACK
6
CONTINUOUS
10
93.5875339999999909
20
-179.6919800000000009
11
93.6827719999999999
21
-179.8824569999999881
0
LINE
8
BLACK
6
CONTINUOUS
10
93.6827719999999999
20
-179.8824569999999881
11
93.6827719999999999
21
-180.4538849999999854
0
LINE
8
BLACK
6
CONTINUOUS
10
93.6827719999999999
20
-180.4538849999999854
11
93.5875339999999909
21
-180.6443610000000035
0
LINE
8
BLACK
6
CONTINUOUS
10
93.5875339999999909
20
-180.6443610000000035
11
93.4922959999999961
21
-180.7395999999999958
0
LINE
8
BLACK
6
CONTINUOUS
10
93.4922959999999961
20
-180.7395999999999958
11
93.3018199999999922
21
-180.8348379999999906
0
LINE
8
BLACK
6
CONTINUOUS
10
93.3018199999999922
20
-180.8348379999999906
11
93.016104999999996
21
-180.8348379999999906
0
LINE
8
BLACK
6
CONTINUOUS
10
94.8256289999999922
20
-180.8348379999999906
11
94.6351530000000025
21
-180.7395999999999958
0
LINE
8
BLACK
6
CONTINUOUS
10
94.6351530000000025
20
-180.7395999999999958
11
94.5399149999999935
21
-180.5491229999999803
0
LINE
8
BLACK
6
CONTINUOUS
10
94.5399149999999935
20
-180.5491229999999803
11
94.5399149999999935
21
-178.8348379999999906
0
LINE
8
BLACK
6
CONTINUOUS
10
96.3494389999999896
20
-180.7395999999999958
11
96.158963
21
-180.8348379999999906
0
LINE
8
BLACK
6
CONTINUOUS
10
96.158963
20
-180.8348379999999906
11
95.7780099999999948
21
-180.8348379999999906
0
LINE
8
BLACK
6
CONTINUOUS
10
95.7780099999999948
20
-180.8348379999999906
11
95.5875339999999909
21
-180.7395999999999958
0
LINE
8
BLACK
6
CONTINUOUS
10
95.5875339999999909
20
-180.7395999999999958
11
95.4922959999999961
21
-180.5491229999999803
0
LINE
8
BLACK
6
CONTINUOUS
10
95.4922959999999961
20
-180.5491229999999803
11
95.4922959999999961
21
-179.7872189999999932
0
LINE
8
BLACK
6
CONTINUOUS
10
95.4922959999999961
20
-179.7872189999999932
11
95.5875339999999909
21
-179.5967419999999777
0
LINE
8
BLACK
6
CONTINUOUS
10
95.5875339999999909
20
-179.5967419999999777
11
95.7780099999999948
21
-179.5015039999999829
0
LINE
8
BLACK
6
CONTINUOUS
10
95.7780099999999948
20
-179.5015039999999829
11
96.158963
21
-179.5015039999999829
0
LINE
8
BLACK
6
CONTINUOUS
10
96.158963
20
-179.5015039999999829
11
96.3494389999999896
21
-179.5967419999999777
0
LINE
8
BLACK
6
CONTINUOUS
10
96.3494389999999896
20
-179.5967419999999777
11
96.4446769999999987
21
-179.7872189999999932
0
LINE
8
BLACK
6
CONTINUOUS
10
96.4446769999999987
20
-179.7872189999999932
11
96.4446769999999987
21
-179.9776949999999829
0
LINE
8
BLACK
6
CONTINUOUS
10
96.4446769999999987
20
-179.9776949999999829
11
95.4922959999999961
21
-180.168171000000001
0
LINE
8
BLACK
6
CONTINUOUS
10
97.2065819999999974
20
-180.7395999999999958
11
97.3970580000000012
21
-180.8348379999999906
0
LINE
8
BLACK
6
CONTINUOUS
10
97.3970580000000012
20
-180.8348379999999906
11
97.7780099999999948
21
-180.8348379999999906
0
LINE
8
BLACK
6
CONTINUOUS
10
97.7780099999999948
20
-180.8348379999999906
11
97.9684869999999961
21
-180.7395999999999958
0
LINE
8
BLACK
6
CONTINUOUS
10
97.9684869999999961
20
-180.7395999999999958
11
98.0637249999999909
21
-180.5491229999999803
0
LINE
8
BLACK
6
CONTINUOUS
10
98.0637249999999909
20
-180.5491229999999803
11
98.0637249999999909
21
-180.4538849999999854
0
LINE
8
BLACK
6
CONTINUOUS
10
98.0637249999999909
20
-180.4538849999999854
11
97.9684869999999961
21
-180.2634089999999958
0
LINE
8
BLACK
6
CONTINUOUS
10
97.9684869999999961
20
-180.2634089999999958
11
97.7780099999999948
21
-180.168171000000001
0
LINE
8
BLACK
6
CONTINUOUS
10
97.7780099999999948
20
-180.168171000000001
11
97.4922959999999961
21
-180.168171000000001
0
LINE
8
BLACK
6
CONTINUOUS
10
97.4922959999999961
20
-180.168171000000001
11
97.3018199999999922
21
-180.0729329999999777
0
LINE
8
BLACK
6
CONTINUOUS
10
97.3018199999999922
20
-180.0729329999999777
11
97.2065819999999974
21
-179.8824569999999881
0
LINE
8
BLACK
6
CONTINUOUS
10
97.2065819999999974
20
-179.8824569999999881
11
97.2065819999999974
21
-179.7872189999999932
0
LINE
8
BLACK
6
CONTINUOUS
10
97.2065819999999974
20
-179.7872189999999932
11
97.3018199999999922
21
-179.5967419999999777
0
LINE
8
BLACK
6
CONTINUOUS
10
97.3018199999999922
20
-179.5967419999999777
11
97.4922959999999961
21
-179.5015039999999829
0
LINE
8
BLACK
6
CONTINUOUS
10
97.4922959999999961
20
-179.5015039999999829
11
97.7780099999999948
21
-179.5015039999999829
0
LINE
8
BLACK
6
CONTINUOUS
10
97.7780099999999948
20
-179.5015039999999829
11
97.9684869999999961
21
-179.5967419999999777
0
LINE
8
BLACK
6
CONTINUOUS
10
98.7303919999999948
20
-181.5967419999999777
11
98.8256299999999896
21
-181.5015039999999829
0
LINE
8
BLACK
6
CONTINUOUS
10
98.8256299999999896
20
-181.5015039999999829
11
99.0161059999999935
21
-181.2157899999999984
0
LINE
8
BLACK
6
CONTINUOUS
10
99.0161059999999935
20
-181.2157899999999984
11
99.1113440000000026
21
-181.0253139999999803
0
LINE
8
BLACK
6
CONTINUOUS
10
99.1113440000000026
20
-181.0253139999999803
11
99.2065819999999974
21
-180.7395999999999958
0
LINE
8
BLACK
6
CONTINUOUS
10
99.2065819999999974
20
-180.7395999999999958
11
99.3018199999999922
21
-180.2634089999999958
0
LINE
8
BLACK
6
CONTINUOUS
10
99.3018199999999922
20
-180.2634089999999958
11
99.3018199999999922
21
-179.8824569999999881
0
LINE
8
BLACK
6
CONTINUOUS
10
99.3018199999999922
20
-179.8824569999999881
11
99.2065819999999974
21
-179.406265999999988
0
LINE
8
BLACK
6
CONTINUOUS
10
99.2065819999999974
20
-179.406265999999988
11
99.1113440000000026
21
-179.1205520000000035
0
LINE
8
BLACK
6
CONTINUOUS
10
99.1113440000000026
20
-179.1205520000000035
11
99.0161059999999935
21
-178.9300759999999855
0
LINE
8
BLACK
6
CONTINUOUS
10
99.0161059999999935
20
-178.9300759999999855
11
98.8256299999999896
21
-178.6443610000000035
0
LINE
8
BLACK
6
CONTINUOUS
10
98.8256299999999896
20
-178.6443610000000035
11
98.7303919999999948
21
-178.5491229999999803
  0
ENDSEC
  0
EOF
