  0
SECTION
  2
HEADER
  9
$ANGBASE
  50
0.0
  9
$ANGDIR
  70
1
  9
$MEASUREMENT
  70
1
  0
ENDSEC
  0
SECTION
  2
TABLES
  0
TABLE
  2
LTYPE
  70
4
  0
LTYPE
  5
40F
  2
CONTINUOUS
  70
0
  3
Solid line
  72
65
  73
0
  40
0.0
  0
LTYPE
  5
410
  2
DASHDOT
 70
0
  3
Dash Dot ____ _ ____ _
 72
65
 73
4
 40
2.0
 49
1.25
 49
-0.25
 49
0.25
 49
-0.25
  0
LTYPE
  5
411
  2
DASHED
 70
0
  3
Dashed __ __ __ __ __
 72
65
 73
2
 40
0.75
 49
0.5
 49
-0.25
  0
LTYPE
  5
43B
  2
DOTTED
 70
0
  3
Dotted .  .  .  .
 72
65
 73
2
 40
0.2
 49
0.0
 49
-0.2
  0
ENDTAB
  0
TABLE
  2
STYLE
  70
4
  0
STYLE
  2
KICAD
  70
0
  40
0
  41
1
  42
1
  50
0
  71
0
  3
isocp.shx
  0
STYLE
  2
KICADB
  70
0
  40
0
  41
1
  42
1
  50
0
  71
0
  3
isocp.shx
  0
STYLE
  2
KICADI
  70
0
  40
0
  41
1
  42
1
  50
15
  71
0
  3
isocp.shx
  0
STYLE
  2
KICADBI
  70
0
  40
0
  41
1
  42
1
  50
15
  71
0
  3
isocp.shx
  0
ENDTAB
  0
TABLE
  2
LAYER
  70
1
  0
LAYER
  2
BLACK
  70
0
  62
7
  6
CONTINUOUS
  0
ENDTAB
  0
ENDSEC
  0
SECTION
  2
ENTITIES
0
LINE
8
BLACK
6
CONTINUOUS
10
110.3820009999999883
20
-106.7730899999999963
11
110.4929039999999958
21
-106.8273069999999905
0
LINE
8
BLACK
6
CONTINUOUS
10
110.4929039999999958
20
-106.8273069999999905
11
110.5801929999999942
21
-106.9145959999999889
0
LINE
8
BLACK
6
CONTINUOUS
10
110.5801929999999942
20
-106.9145959999999889
11
110.6344099999999884
21
-107.0254989999999964
0
LINE
8
BLACK
6
CONTINUOUS
10
110.6344099999999884
20
-107.0254989999999964
11
110.6499999999999915
21
-107.1324999999999932
0
LINE
8
BLACK
6
CONTINUOUS
10
110.6499999999999915
20
-107.1324999999999932
11
110.6499999999999915
21
-107.8824999999999932
0
LINE
8
BLACK
6
CONTINUOUS
10
110.6499999999999915
20
-107.8824999999999932
11
110.6344099999999884
21
-107.98950099999999
0
LINE
8
BLACK
6
CONTINUOUS
10
110.6344099999999884
20
-107.98950099999999
11
110.5801929999999942
21
-108.1004039999999975
0
LINE
8
BLACK
6
CONTINUOUS
10
110.5801929999999942
20
-108.1004039999999975
11
110.4929039999999958
21
-108.1876929999999959
0
LINE
8
BLACK
6
CONTINUOUS
10
110.4929039999999958
20
-108.1876929999999959
11
110.3820009999999883
21
-108.2419099999999901
0
LINE
8
BLACK
6
CONTINUOUS
10
110.3820009999999883
20
-108.2419099999999901
11
110.2749999999999915
21
-108.2574999999999932
0
LINE
8
BLACK
6
CONTINUOUS
10
110.2749999999999915
20
-108.2574999999999932
11
109.0249999999999915
21
-108.2574999999999932
0
LINE
8
BLACK
6
CONTINUOUS
10
109.0249999999999915
20
-108.2574999999999932
11
108.9179989999999947
21
-108.2419099999999901
0
LINE
8
BLACK
6
CONTINUOUS
10
108.9179989999999947
20
-108.2419099999999901
11
108.8070960000000014
21
-108.1876929999999959
0
LINE
8
BLACK
6
CONTINUOUS
10
108.8070960000000014
20
-108.1876929999999959
11
108.7198069999999888
21
-108.1004039999999975
0
LINE
8
BLACK
6
CONTINUOUS
10
108.7198069999999888
20
-108.1004039999999975
11
108.6655899999999946
21
-107.98950099999999
0
LINE
8
BLACK
6
CONTINUOUS
10
108.6655899999999946
20
-107.98950099999999
11
108.6499999999999915
21
-107.8824999999999932
0
LINE
8
BLACK
6
CONTINUOUS
10
108.6499999999999915
20
-107.8824999999999932
11
108.6499999999999915
21
-107.1324999999999932
0
LINE
8
BLACK
6
CONTINUOUS
10
108.6499999999999915
20
-107.1324999999999932
11
108.6655899999999946
21
-107.0254989999999964
0
LINE
8
BLACK
6
CONTINUOUS
10
108.6655899999999946
20
-107.0254989999999964
11
108.7198069999999888
21
-106.9145959999999889
0
LINE
8
BLACK
6
CONTINUOUS
10
108.7198069999999888
20
-106.9145959999999889
11
108.8070960000000014
21
-106.8273069999999905
0
LINE
8
BLACK
6
CONTINUOUS
10
108.8070960000000014
20
-106.8273069999999905
11
108.9179989999999947
21
-106.7730899999999963
0
LINE
8
BLACK
6
CONTINUOUS
10
108.9179989999999947
20
-106.7730899999999963
11
109.0249999999999915
21
-106.7574999999999932
0
LINE
8
BLACK
6
CONTINUOUS
10
109.0249999999999915
20
-106.7574999999999932
11
110.2749999999999915
21
-106.7574999999999932
0
LINE
8
BLACK
6
CONTINUOUS
10
110.2749999999999915
20
-106.7574999999999932
11
110.3820009999999883
21
-106.7730899999999963
0
LINE
8
BLACK
6
CONTINUOUS
10
116.5562829999999934
20
-103.3189270000000022
11
116.6896239999999949
21
-103.3686609999999888
0
LINE
8
BLACK
6
CONTINUOUS
10
116.6896239999999949
20
-103.3686609999999888
11
116.8035529999999937
21
-103.4539469999999994
0
LINE
8
BLACK
6
CONTINUOUS
10
116.8035529999999937
20
-103.4539469999999994
11
116.8888389999999902
21
-103.5678759999999983
0
LINE
8
BLACK
6
CONTINUOUS
10
116.8888389999999902
20
-103.5678759999999983
11
116.938572999999991
21
-103.7012169999999998
0
LINE
8
BLACK
6
CONTINUOUS
10
116.938572999999991
20
-103.7012169999999998
11
116.9499999999999886
21
-103.8074999999999903
0
LINE
8
BLACK
6
CONTINUOUS
10
116.9499999999999886
20
-103.8074999999999903
11
116.9499999999999886
21
-106.6075000000000017
0
LINE
8
BLACK
6
CONTINUOUS
10
116.9499999999999886
20
-106.6075000000000017
11
116.938572999999991
21
-106.7137829999999923
0
LINE
8
BLACK
6
CONTINUOUS
10
116.938572999999991
20
-106.7137829999999923
11
116.8888389999999902
21
-106.8471239999999938
0
LINE
8
BLACK
6
CONTINUOUS
10
116.8888389999999902
20
-106.8471239999999938
11
116.8035529999999937
21
-106.9610529999999926
0
LINE
8
BLACK
6
CONTINUOUS
10
116.8035529999999937
20
-106.9610529999999926
11
116.6896239999999949
21
-107.046338999999989
0
LINE
8
BLACK
6
CONTINUOUS
10
116.6896239999999949
20
-107.046338999999989
11
116.5562829999999934
21
-107.0960729999999899
0
LINE
8
BLACK
6
CONTINUOUS
10
116.5562829999999934
20
-107.0960729999999899
11
116.4499999999999886
21
-107.1075000000000017
0
LINE
8
BLACK
6
CONTINUOUS
10
116.4499999999999886
20
-107.1075000000000017
11
115.4499999999999886
21
-107.1075000000000017
0
LINE
8
BLACK
6
CONTINUOUS
10
115.4499999999999886
20
-107.1075000000000017
11
115.3437169999999981
21
-107.0960729999999899
0
LINE
8
BLACK
6
CONTINUOUS
10
115.3437169999999981
20
-107.0960729999999899
11
115.2103759999999966
21
-107.046338999999989
0
LINE
8
BLACK
6
CONTINUOUS
10
115.2103759999999966
20
-107.046338999999989
11
115.0964469999999977
21
-106.9610529999999926
0
LINE
8
BLACK
6
CONTINUOUS
10
115.0964469999999977
20
-106.9610529999999926
11
115.0111610000000013
21
-106.8471239999999938
0
LINE
8
BLACK
6
CONTINUOUS
10
115.0111610000000013
20
-106.8471239999999938
11
114.9614270000000005
21
-106.7137829999999923
0
LINE
8
BLACK
6
CONTINUOUS
10
114.9614270000000005
20
-106.7137829999999923
11
114.9499999999999886
21
-106.6075000000000017
0
LINE
8
BLACK
6
CONTINUOUS
10
114.9499999999999886
20
-106.6075000000000017
11
114.9499999999999886
21
-103.8074999999999903
0
LINE
8
BLACK
6
CONTINUOUS
10
114.9499999999999886
20
-103.8074999999999903
11
114.9614270000000005
21
-103.7012169999999998
0
LINE
8
BLACK
6
CONTINUOUS
10
114.9614270000000005
20
-103.7012169999999998
11
115.0111610000000013
21
-103.5678759999999983
0
LINE
8
BLACK
6
CONTINUOUS
10
115.0111610000000013
20
-103.5678759999999983
11
115.0964469999999977
21
-103.4539469999999994
0
LINE
8
BLACK
6
CONTINUOUS
10
115.0964469999999977
20
-103.4539469999999994
11
115.2103759999999966
21
-103.3686609999999888
0
LINE
8
BLACK
6
CONTINUOUS
10
115.2103759999999966
20
-103.3686609999999888
11
115.3437169999999981
21
-103.3189270000000022
0
LINE
8
BLACK
6
CONTINUOUS
10
115.3437169999999981
20
-103.3189270000000022
11
115.4499999999999886
21
-103.3074999999999903
0
LINE
8
BLACK
6
CONTINUOUS
10
115.4499999999999886
20
-103.3074999999999903
11
116.4499999999999886
21
-103.3074999999999903
0
LINE
8
BLACK
6
CONTINUOUS
10
116.4499999999999886
20
-103.3074999999999903
11
116.5562829999999934
21
-103.3189270000000022
0
LINE
8
BLACK
6
CONTINUOUS
10
110.3820009999999883
20
-104.4730899999999991
11
110.4929039999999958
21
-104.5273069999999933
0
LINE
8
BLACK
6
CONTINUOUS
10
110.4929039999999958
20
-104.5273069999999933
11
110.5801929999999942
21
-104.6145959999999917
0
LINE
8
BLACK
6
CONTINUOUS
10
110.5801929999999942
20
-104.6145959999999917
11
110.6344099999999884
21
-104.7254989999999992
0
LINE
8
BLACK
6
CONTINUOUS
10
110.6344099999999884
20
-104.7254989999999992
11
110.6499999999999915
21
-104.832499999999996
0
LINE
8
BLACK
6
CONTINUOUS
10
110.6499999999999915
20
-104.832499999999996
11
110.6499999999999915
21
-105.582499999999996
0
LINE
8
BLACK
6
CONTINUOUS
10
110.6499999999999915
20
-105.582499999999996
11
110.6344099999999884
21
-105.6895009999999928
0
LINE
8
BLACK
6
CONTINUOUS
10
110.6344099999999884
20
-105.6895009999999928
11
110.5801929999999942
21
-105.8004040000000003
0
LINE
8
BLACK
6
CONTINUOUS
10
110.5801929999999942
20
-105.8004040000000003
11
110.4929039999999958
21
-105.8876929999999987
0
LINE
8
BLACK
6
CONTINUOUS
10
110.4929039999999958
20
-105.8876929999999987
11
110.3820009999999883
21
-105.9419099999999929
0
LINE
8
BLACK
6
CONTINUOUS
10
110.3820009999999883
20
-105.9419099999999929
11
110.2749999999999915
21
-105.957499999999996
0
LINE
8
BLACK
6
CONTINUOUS
10
110.2749999999999915
20
-105.957499999999996
11
109.0249999999999915
21
-105.957499999999996
0
LINE
8
BLACK
6
CONTINUOUS
10
109.0249999999999915
20
-105.957499999999996
11
108.9179989999999947
21
-105.9419099999999929
0
LINE
8
BLACK
6
CONTINUOUS
10
108.9179989999999947
20
-105.9419099999999929
11
108.8070960000000014
21
-105.8876929999999987
0
LINE
8
BLACK
6
CONTINUOUS
10
108.8070960000000014
20
-105.8876929999999987
11
108.7198069999999888
21
-105.8004040000000003
0
LINE
8
BLACK
6
CONTINUOUS
10
108.7198069999999888
20
-105.8004040000000003
11
108.6655899999999946
21
-105.6895009999999928
0
LINE
8
BLACK
6
CONTINUOUS
10
108.6655899999999946
20
-105.6895009999999928
11
108.6499999999999915
21
-105.582499999999996
0
LINE
8
BLACK
6
CONTINUOUS
10
108.6499999999999915
20
-105.582499999999996
11
108.6499999999999915
21
-104.832499999999996
0
LINE
8
BLACK
6
CONTINUOUS
10
108.6499999999999915
20
-104.832499999999996
11
108.6655899999999946
21
-104.7254989999999992
0
LINE
8
BLACK
6
CONTINUOUS
10
108.6655899999999946
20
-104.7254989999999992
11
108.7198069999999888
21
-104.6145959999999917
0
LINE
8
BLACK
6
CONTINUOUS
10
108.7198069999999888
20
-104.6145959999999917
11
108.8070960000000014
21
-104.5273069999999933
0
LINE
8
BLACK
6
CONTINUOUS
10
108.8070960000000014
20
-104.5273069999999933
11
108.9179989999999947
21
-104.4730899999999991
0
LINE
8
BLACK
6
CONTINUOUS
10
108.9179989999999947
20
-104.4730899999999991
11
109.0249999999999915
21
-104.457499999999996
0
LINE
8
BLACK
6
CONTINUOUS
10
109.0249999999999915
20
-104.457499999999996
11
110.2749999999999915
21
-104.457499999999996
0
LINE
8
BLACK
6
CONTINUOUS
10
110.2749999999999915
20
-104.457499999999996
11
110.3820009999999883
21
-104.4730899999999991
0
LINE
8
BLACK
6
CONTINUOUS
10
110.3820009999999883
20
-102.173090000000002
11
110.4929039999999958
21
-102.2273069999999962
0
LINE
8
BLACK
6
CONTINUOUS
10
110.4929039999999958
20
-102.2273069999999962
11
110.5801929999999942
21
-102.3145959999999945
0
LINE
8
BLACK
6
CONTINUOUS
10
110.5801929999999942
20
-102.3145959999999945
11
110.6344099999999884
21
-102.4254990000000021
0
LINE
8
BLACK
6
CONTINUOUS
10
110.6344099999999884
20
-102.4254990000000021
11
110.6499999999999915
21
-102.5324999999999989
0
LINE
8
BLACK
6
CONTINUOUS
10
110.6499999999999915
20
-102.5324999999999989
11
110.6499999999999915
21
-103.2824999999999989
0
LINE
8
BLACK
6
CONTINUOUS
10
110.6499999999999915
20
-103.2824999999999989
11
110.6344099999999884
21
-103.3895009999999957
0
LINE
8
BLACK
6
CONTINUOUS
10
110.6344099999999884
20
-103.3895009999999957
11
110.5801929999999942
21
-103.500403999999989
0
LINE
8
BLACK
6
CONTINUOUS
10
110.5801929999999942
20
-103.500403999999989
11
110.4929039999999958
21
-103.5876930000000016
0
LINE
8
BLACK
6
CONTINUOUS
10
110.4929039999999958
20
-103.5876930000000016
11
110.3820009999999883
21
-103.6419099999999958
0
LINE
8
BLACK
6
CONTINUOUS
10
110.3820009999999883
20
-103.6419099999999958
11
110.2749999999999915
21
-103.6574999999999989
0
LINE
8
BLACK
6
CONTINUOUS
10
110.2749999999999915
20
-103.6574999999999989
11
109.0249999999999915
21
-103.6574999999999989
0
LINE
8
BLACK
6
CONTINUOUS
10
109.0249999999999915
20
-103.6574999999999989
11
108.9179989999999947
21
-103.6419099999999958
0
LINE
8
BLACK
6
CONTINUOUS
10
108.9179989999999947
20
-103.6419099999999958
11
108.8070960000000014
21
-103.5876930000000016
0
LINE
8
BLACK
6
CONTINUOUS
10
108.8070960000000014
20
-103.5876930000000016
11
108.7198069999999888
21
-103.500403999999989
0
LINE
8
BLACK
6
CONTINUOUS
10
108.7198069999999888
20
-103.500403999999989
11
108.6655899999999946
21
-103.3895009999999957
0
LINE
8
BLACK
6
CONTINUOUS
10
108.6655899999999946
20
-103.3895009999999957
11
108.6499999999999915
21
-103.2824999999999989
0
LINE
8
BLACK
6
CONTINUOUS
10
108.6499999999999915
20
-103.2824999999999989
11
108.6499999999999915
21
-102.5324999999999989
0
LINE
8
BLACK
6
CONTINUOUS
10
108.6499999999999915
20
-102.5324999999999989
11
108.6655899999999946
21
-102.4254990000000021
0
LINE
8
BLACK
6
CONTINUOUS
10
108.6655899999999946
20
-102.4254990000000021
11
108.7198069999999888
21
-102.3145959999999945
0
LINE
8
BLACK
6
CONTINUOUS
10
108.7198069999999888
20
-102.3145959999999945
11
108.8070960000000014
21
-102.2273069999999962
0
LINE
8
BLACK
6
CONTINUOUS
10
108.8070960000000014
20
-102.2273069999999962
11
108.9179989999999947
21
-102.173090000000002
0
LINE
8
BLACK
6
CONTINUOUS
10
108.9179989999999947
20
-102.173090000000002
11
109.0249999999999915
21
-102.1574999999999989
0
LINE
8
BLACK
6
CONTINUOUS
10
109.0249999999999915
20
-102.1574999999999989
11
110.2749999999999915
21
-102.1574999999999989
0
LINE
8
BLACK
6
CONTINUOUS
10
110.2749999999999915
20
-102.1574999999999989
11
110.3820009999999883
21
-102.173090000000002
  0
ENDSEC
  0
EOF
