M48
; DRILL file {KiCad 9.0.7} date 2026-06-03T20:11:35-0400
; FORMAT={-:-/ absolute / metric / decimal}
; #@! TF.CreationDate,2026-06-03T20:11:35-04:00
; #@! TF.GenerationSoftware,Kicad,Pcbnew,9.0.7
; #@! TF.FileFunction,Plated,1,2,PTH
FMAT,2
METRIC
; #@! TA.AperFunction,Plated,PTH,ComponentDrill
T1C0.800
; #@! TA.AperFunction,Plated,PTH,ComponentDrill
T2C1.000
; #@! TA.AperFunction,Plated,PTH,ComponentDrill
T3C1.016
; #@! TA.AperFunction,Plated,PTH,ComponentDrill
T4C1.100
%
G90
G05
T1
X58.35Y-104.495
X58.35Y-114.655
X110.1Y-96.825
X110.15Y-113.99
X111.7Y-90.825
X114.2Y-90.825
X115.1Y-96.825
X115.15Y-113.99
X122.2Y-103.665
X122.2Y-113.825
X128.2Y-103.745
X128.2Y-113.905
T2
X54.56Y-130.785
X54.56Y-133.325
X54.56Y-135.865
X57.1Y-130.785
X57.1Y-133.325
X57.1Y-135.865
X64.28Y-139.156
X64.28Y-141.696
X64.28Y-144.236
X64.28Y-146.776
X64.28Y-149.316
X64.28Y-151.856
X64.28Y-154.396
X73.175Y-122.941
X75.715Y-122.941
X78.255Y-122.941
X79.125Y-154.821
X80.795Y-122.941
X81.665Y-154.821
X83.335Y-122.941
X84.205Y-154.821
X85.875Y-122.941
X86.745Y-154.821
X88.415Y-122.941
X89.285Y-154.821
X90.955Y-122.941
X91.825Y-154.821
X93.495Y-122.941
X94.365Y-154.821
X96.905Y-154.821
X100.52Y-118.325
X101.682Y-139.723
X101.682Y-142.263
X101.682Y-144.803
X101.682Y-147.343
X101.682Y-149.883
X101.682Y-152.423
X103.06Y-118.325
X105.6Y-118.325
X108.14Y-118.325
T3
X80.58Y-90.395
X80.58Y-113.255
X83.12Y-90.395
X83.12Y-113.255
X85.66Y-90.395
X85.66Y-113.255
X88.2Y-90.395
X88.2Y-113.255
X90.74Y-90.395
X90.74Y-113.255
X93.28Y-90.395
X93.28Y-113.255
X95.82Y-90.395
X95.82Y-113.255
X98.36Y-90.395
X98.36Y-113.255
T4
X52.6Y-95.075
X52.6Y-99.575
X59.1Y-95.075
X59.1Y-99.575
X119.2Y-137.825
X119.2Y-142.325
X119.2Y-148.825
X119.2Y-153.325
X125.7Y-137.825
X125.7Y-142.325
X125.7Y-148.825
X125.7Y-153.325
T2
G00X123.325Y-90.152
M15
G01X123.325Y-88.152
M16
G05
G00X127.325Y-93.852
M15
G01X125.325Y-93.852
M16
G05
G00X129.325Y-90.152
M15
G01X129.325Y-88.152
M16
G05
M30
